<svg width="24" height="24" viewBox="0 0 24 24" fill="none" xmlns="http://www.w3.org/2000/svg">
<path fill-rule="evenodd" clip-rule="evenodd" d="M12 21.5999C17.3019 21.5999 21.6 17.3018 21.6 11.9999C21.6 6.69797 17.3019 2.3999 12 2.3999C6.69807 2.3999 2.4 6.69797 2.4 11.9999C2.4 17.3018 6.69807 21.5999 12 21.5999ZM16.4485 10.4484C16.9172 9.9798 16.9172 9.22 16.4485 8.75137C15.9799 8.28275 15.2201 8.28275 14.7515 8.75137L10.8 12.7028L9.24853 11.1514C8.7799 10.6827 8.0201 10.6827 7.55147 11.1514C7.08284 11.62 7.08284 12.3798 7.55147 12.8484L9.95147 15.2484C10.4201 15.7171 11.1799 15.7171 11.6485 15.2484L16.4485 10.4484Z" fill="white"/>
</svg>
