<svg width="24" height="24" viewBox="0 0 24 24" fill="none" xmlns="http://www.w3.org/2000/svg">
<path fill-rule="evenodd" clip-rule="evenodd" d="M2 7C2 4.23858 4.23858 2 7 2H9C9.55228 2 10 2.44772 10 3C10 3.55228 9.55228 4 9 4H7C5.34315 4 4 5.34315 4 7V7.5C4 8.05228 3.55228 8.5 3 8.5C2.44772 8.5 2 8.05228 2 7.5V7ZM15 3C15 2.44772 15.4477 2 16 2H17C19.7614 2 22 4.23858 22 7V7.5C22 8.05228 21.5523 8.5 21 8.5C20.4477 8.5 20 8.05228 20 7.5V7C20 5.34315 18.6569 4 17 4H16C15.4477 4 15 3.55228 15 3ZM2 12C2 11.4477 2.44772 11 3 11H21C21.5523 11 22 11.4477 22 12C22 12.5523 21.5523 13 21 13H3C2.44772 13 2 12.5523 2 12ZM3 15.5C3.55228 15.5 4 15.9477 4 16.5V17C4 18.6569 5.34315 20 7 20H9C9.55228 20 10 20.4477 10 21C10 21.5523 9.55228 22 9 22H7C4.23858 22 2 19.7614 2 17V16.5C2 15.9477 2.44772 15.5 3 15.5ZM21 15.5C21.5523 15.5 22 15.9477 22 16.5V17C22 19.7614 19.7614 22 17 22H16C15.4477 22 15 21.5523 15 21C15 20.4477 15.4477 20 16 20H17C18.6569 20 20 18.6569 20 17V16.5C20 15.9477 20.4477 15.5 21 15.5Z" fill="#A1A1AA"/>
</svg>
