<svg width="21" height="20" viewBox="0 0 21 20" fill="none" xmlns="http://www.w3.org/2000/svg">
<path fill-rule="evenodd" clip-rule="evenodd" d="M8.75694 3.09858C9.52154 1.73928 11.4786 1.73928 12.2432 3.09858L17.8235 13.0191C18.5735 14.3523 17.61 15.9996 16.0804 15.9996H4.91978C3.39013 15.9996 2.4267 14.3523 3.17663 13.0191L8.75694 3.09858ZM11.5 12.9998C11.5 13.552 11.0523 13.9998 10.5 13.9998C9.94772 13.9998 9.5 13.552 9.5 12.9998C9.5 12.4475 9.94772 11.9998 10.5 11.9998C11.0523 11.9998 11.5 12.4475 11.5 12.9998ZM10.5 4.99976C9.94772 4.99976 9.5 5.44747 9.5 5.99976V8.99976C9.5 9.55204 9.94772 9.99976 10.5 9.99976C11.0523 9.99976 11.5 9.55204 11.5 8.99976V5.99976C11.5 5.44747 11.0523 4.99976 10.5 4.99976Z" fill="#F14D00"/>
</svg>
