<svg width="18" height="18" viewBox="0 0 18 18" fill="none" xmlns="http://www.w3.org/2000/svg">
<g id="gift">
<g id="Shape">
<path fill-rule="evenodd" clip-rule="evenodd" d="M4.50005 4.4998C4.50005 3.00864 5.70888 1.7998 7.20005 1.7998C7.89157 1.7998 8.52237 2.05977 9.00005 2.48731C9.47773 2.05977 10.1085 1.7998 10.8 1.7998C12.2912 1.7998 13.5 3.00864 13.5 4.4998C13.5 4.81538 13.4459 5.1183 13.3464 5.3998H14.4C15.3942 5.3998 16.2 6.20569 16.2 7.1998C16.2 8.19392 15.3942 8.9998 14.4 8.9998H9.90005V8.0998C9.90005 7.60275 9.49711 7.1998 9.00005 7.1998C8.50299 7.1998 8.10005 7.60275 8.10005 8.0998V8.9998H3.60005C2.60594 8.9998 1.80005 8.19392 1.80005 7.1998C1.80005 6.20569 2.60594 5.3998 3.60005 5.3998H4.65368C4.55419 5.1183 4.50005 4.81538 4.50005 4.4998ZM8.10005 5.3998V4.4998C8.10005 4.00275 7.69711 3.5998 7.20005 3.5998C6.70299 3.5998 6.30005 4.00275 6.30005 4.4998C6.30005 4.99686 6.70299 5.3998 7.20005 5.3998H8.10005ZM10.8 5.3998C11.2971 5.3998 11.7 4.99686 11.7 4.4998C11.7 4.00275 11.2971 3.5998 10.8 3.5998C10.303 3.5998 9.90005 4.00275 9.90005 4.4998V5.3998H10.8Z" fill="white"/>
<path d="M8.10005 9.89981H2.70005V14.3998C2.70005 15.3939 3.50594 16.1998 4.50005 16.1998H8.10005V9.89981Z" fill="white"/>
<path d="M9.90005 16.1998H13.5C14.4942 16.1998 15.3 15.3939 15.3 14.3998V9.89981H9.90005V16.1998Z" fill="white"/>
</g>
</g>
</svg>
