<svg width="64" height="47" viewBox="0 0 64 47" fill="none" xmlns="http://www.w3.org/2000/svg">
<g opacity="0.3">
<path fill-rule="evenodd" clip-rule="evenodd" d="M32 40.6004C46.1385 40.6004 57.6 29.1389 57.6 15.0004C57.6 0.861901 46.1385 -10.5996 32 -10.5996C17.8615 -10.5996 6.40002 0.861901 6.40002 15.0004C6.40002 29.1389 17.8615 40.6004 32 40.6004ZM35.2 2.20039C35.2 0.433079 33.7673 -0.99961 32 -0.99961C30.2327 -0.99961 28.8 0.433079 28.8 2.20039V15.0004C28.8 15.8491 29.1372 16.663 29.7373 17.2631L38.7882 26.3141C40.0379 27.5638 42.0641 27.5638 43.3137 26.3141C44.5634 25.0644 44.5634 23.0383 43.3137 21.7886L35.2 13.6749V2.20039Z" fill="url(#paint0_linear_4787_10111)"/>
</g>
<defs>
<linearGradient id="paint0_linear_4787_10111" x1="32" y1="-10.5996" x2="32" y2="40.6004" gradientUnits="userSpaceOnUse">
<stop stop-color="#FFCD00" stop-opacity="0"/>
<stop offset="1" stop-color="#FFCD00"/>
</linearGradient>
</defs>
</svg>
