<svg width="40" height="40" viewBox="0 0 40 40" fill="none" xmlns="http://www.w3.org/2000/svg">
<path fill-rule="evenodd" clip-rule="evenodd" d="M13.6179 6.66634C14.3043 4.72435 16.1563 3.33301 18.3334 3.33301H21.6667C23.8437 3.33301 25.6958 4.72435 26.3822 6.66634H28.3334C31.0948 6.66634 33.3334 8.90492 33.3334 11.6663V31.6663C33.3334 34.4278 31.0948 36.6663 28.3334 36.6663H11.6667C8.90526 36.6663 6.66669 34.4278 6.66669 31.6663V11.6663C6.66669 8.90492 8.90526 6.66634 11.6667 6.66634H13.6179ZM13.6179 9.99967H11.6667C10.7462 9.99967 10 10.7459 10 11.6663V31.6663C10 32.5868 10.7462 33.333 11.6667 33.333H28.3334C29.2538 33.333 30 32.5868 30 31.6663V11.6663C30 10.7459 29.2538 9.99967 28.3334 9.99967H26.3822C25.6958 11.9417 23.8437 13.333 21.6667 13.333H18.3334C16.1563 13.333 14.3043 11.9417 13.6179 9.99967ZM18.3334 6.66634C17.4129 6.66634 16.6667 7.41253 16.6667 8.33301C16.6667 9.25348 17.4129 9.99967 18.3334 9.99967H21.6667C22.5872 9.99967 23.3334 9.25348 23.3334 8.33301C23.3334 7.41253 22.5872 6.66634 21.6667 6.66634H18.3334Z" fill="#A1A1AA"/>
</svg>
