<svg width="24" height="24" viewBox="0 0 24 24" fill="none" xmlns="http://www.w3.org/2000/svg">
<g clip-path="url(#clip0_4787_10667)">
<path d="M0.599976 1.5C0.599976 0.671574 1.27155 0 2.09998 0H21.9C22.7284 0 23.4 0.671573 23.4 1.5V16.462C23.4 16.9945 23.1176 17.4871 22.6582 17.7563L12.7582 23.5558C12.2899 23.8301 11.71 23.8301 11.2418 23.5558L1.34178 17.7563C0.8823 17.4871 0.599976 16.9945 0.599976 16.462V1.5Z" fill="url(#paint0_linear_4787_10667)"/>
<g filter="url(#filter0_i_4787_10667)">
<path d="M4.05005 3.89941C4.05005 3.4852 4.38584 3.14941 4.80005 3.14941H19.2C19.6143 3.14941 19.95 3.4852 19.95 3.89941V14.7566C19.95 15.0162 19.8158 15.2574 19.595 15.3941L12.395 19.8547C12.153 20.0046 11.847 20.0046 11.6051 19.8547L4.40506 15.3941C4.18434 15.2574 4.05005 15.0162 4.05005 14.7566V3.89941Z" fill="url(#paint1_radial_4787_10667)"/>
<path d="M4.05005 3.89941C4.05005 3.4852 4.38584 3.14941 4.80005 3.14941H19.2C19.6143 3.14941 19.95 3.4852 19.95 3.89941V14.7566C19.95 15.0162 19.8158 15.2574 19.595 15.3941L12.395 19.8547C12.153 20.0046 11.847 20.0046 11.6051 19.8547L4.40506 15.3941C4.18434 15.2574 4.05005 15.0162 4.05005 14.7566V3.89941Z" fill="url(#paint2_radial_4787_10667)" fill-opacity="0.29"/>
<path d="M4.05005 3.89941C4.05005 3.4852 4.38584 3.14941 4.80005 3.14941H19.2C19.6143 3.14941 19.95 3.4852 19.95 3.89941V14.7566C19.95 15.0162 19.8158 15.2574 19.595 15.3941L12.395 19.8547C12.153 20.0046 11.847 20.0046 11.6051 19.8547L4.40506 15.3941C4.18434 15.2574 4.05005 15.0162 4.05005 14.7566V3.89941Z" fill="url(#paint3_linear_4787_10667)" fill-opacity="0.2" style="mix-blend-mode:multiply"/>
</g>
<path d="M4.80005 2.39941C3.97162 2.39941 3.30005 3.07099 3.30005 3.89941V14.7566C3.30005 15.2759 3.56864 15.7582 4.01008 16.0317L11.2101 20.4923C11.694 20.7921 12.306 20.7921 12.79 20.4923L19.99 16.0317C20.4315 15.7582 20.7 15.2759 20.7 14.7566V3.89941C20.7 3.07099 20.0285 2.39941 19.2 2.39941H4.80005Z" stroke="url(#paint4_linear_4787_10667)" stroke-width="1.5"/>
<path opacity="0.74" d="M4.65007 1.72188C3.5317 1.72188 2.62507 2.6285 2.62507 3.74688V14.7487C2.62507 15.4497 2.98762 16.1009 3.5835 16.4701L10.9335 21.0242C11.5869 21.4291 12.4132 21.4291 13.0666 21.0242L20.4166 16.4701C21.0125 16.1009 21.3751 15.4497 21.3751 14.7487V3.74687C21.3751 2.6285 20.4684 1.72188 19.3501 1.72188H4.65007Z" stroke="url(#paint5_linear_4787_10667)" stroke-width="0.15"/>
<mask id="mask0_4787_10667" style="mask-type:alpha" maskUnits="userSpaceOnUse" x="4" y="3" width="16" height="18">
<path d="M4.04993 3.14941H19.9499V15.1742L11.9999 20.0994L4.04993 15.1742V3.14941Z" fill="#D9D9D9"/>
</mask>
<g mask="url(#mask0_4787_10667)">
<path d="M14.5146 12.4325C14.5146 14.03 13.3446 14.8175 11.9721 14.8175C10.6671 14.8175 9.4408 14.1312 9.4183 12.455H10.8808C10.9033 13.175 11.3983 13.5012 11.9721 13.5012C12.6021 13.5012 13.0521 13.1075 13.0521 12.3875C13.0521 11.7237 12.6471 11.285 11.9271 11.285H11.7133V10.0137H11.9271C12.6358 10.0137 12.9396 9.575 12.9396 9.0125C12.9396 8.3375 12.4896 7.98875 11.9608 7.98875C11.4096 7.98875 11.0046 8.34875 10.9708 8.95625H9.5083C9.54205 7.5275 10.6108 6.6725 11.9608 6.6725C13.3783 6.6725 14.4021 7.6175 14.4021 8.9675C14.4021 9.83375 14.0083 10.3287 13.4796 10.61C14.0533 10.9137 14.5146 11.465 14.5146 12.4325Z" fill="#F5F5F5"/>
</g>
</g>
<defs>
<filter id="filter0_i_4787_10667" x="2.55005" y="1.64941" width="18.9" height="19.8174" filterUnits="userSpaceOnUse" color-interpolation-filters="sRGB">
<feFlood flood-opacity="0" result="BackgroundImageFix"/>
<feBlend mode="normal" in="SourceGraphic" in2="BackgroundImageFix" result="shape"/>
<feColorMatrix in="SourceAlpha" type="matrix" values="0 0 0 0 0 0 0 0 0 0 0 0 0 0 0 0 0 0 127 0" result="hardAlpha"/>
<feOffset/>
<feGaussianBlur stdDeviation="3.375"/>
<feComposite in2="hardAlpha" operator="arithmetic" k2="-1" k3="1"/>
<feColorMatrix type="matrix" values="0 0 0 0 0.358333 0 0 0 0 0.0840788 0 0 0 0 0.0627083 0 0 0 1 0"/>
<feBlend mode="normal" in2="shape" result="effect1_innerShadow_4787_10667"/>
</filter>
<linearGradient id="paint0_linear_4787_10667" x1="12" y1="0" x2="12" y2="24" gradientUnits="userSpaceOnUse">
<stop stop-color="#FFC190"/>
<stop offset="1" stop-color="#C35A2A"/>
</linearGradient>
<radialGradient id="paint1_radial_4787_10667" cx="0" cy="0" r="1" gradientUnits="userSpaceOnUse" gradientTransform="translate(12 11.6244) rotate(90) scale(13.2014 12.3837)">
<stop stop-color="#DA9062"/>
<stop offset="1" stop-color="#C67341"/>
</radialGradient>
<radialGradient id="paint2_radial_4787_10667" cx="0" cy="0" r="1" gradientUnits="userSpaceOnUse" gradientTransform="translate(8.4837 8.52778) rotate(-46.0778) scale(8.48525 4.50207)">
<stop stop-color="#B57777"/>
<stop offset="1" stop-color="#D28787" stop-opacity="0"/>
</radialGradient>
<linearGradient id="paint3_linear_4787_10667" x1="12" y1="3.14941" x2="12" y2="20.0994" gradientUnits="userSpaceOnUse">
<stop stop-opacity="0"/>
<stop offset="1"/>
</linearGradient>
<linearGradient id="paint4_linear_4787_10667" x1="12" y1="3.14941" x2="12" y2="20.0994" gradientUnits="userSpaceOnUse">
<stop stop-color="#C76030"/>
<stop offset="1" stop-color="#FCBC8B"/>
</linearGradient>
<linearGradient id="paint5_linear_4787_10667" x1="6.81647" y1="1.11412" x2="14.7539" y2="21.3196" gradientUnits="userSpaceOnUse">
<stop stop-color="#FBFCFF"/>
<stop offset="1" stop-color="#D4D6D9"/>
</linearGradient>
<clipPath id="clip0_4787_10667">
<rect width="24" height="24" fill="white"/>
</clipPath>
</defs>
</svg>
