<svg width="24" height="24" viewBox="0 0 24 24" fill="none" xmlns="http://www.w3.org/2000/svg">
<g clip-path="url(#clip0_4551_8925)">
<circle cx="12" cy="12" r="12" fill="#53AE94"/>
<path d="M13.4809 10.4011V8.61587H17.563V5.896H6.4472V8.61587H10.5295V10.3996C7.21154 10.552 4.71704 11.2091 4.71704 11.9963C4.71704 12.7835 7.21304 13.4406 10.5295 13.594V19.312H13.4815V13.5932C16.7935 13.4403 19.2833 12.7837 19.2833 11.9972C19.2833 11.2108 16.7935 10.5542 13.4815 10.4012L13.4809 10.4011ZM13.4815 13.1089V13.1075C13.3983 13.1128 12.9703 13.1385 12.0175 13.1385C11.2558 13.1385 10.7199 13.1169 10.5309 13.1071V13.1095C7.59957 12.9797 5.41154 12.4692 5.41154 11.8584C5.41154 11.2476 7.59985 10.7378 10.5309 10.6078V12.601C10.7229 12.6142 11.272 12.6466 12.03 12.6466C12.9403 12.6466 13.398 12.6091 13.482 12.601V10.6079C16.4076 10.7382 18.5906 11.2491 18.5906 11.8577C18.5906 12.4664 16.4063 12.9776 13.482 13.1079" fill="white"/>
</g>
<defs>
<clipPath id="clip0_4551_8925">
<rect width="24" height="24" rx="12" fill="white"/>
</clipPath>
</defs>
</svg>
