<svg width="64" height="64" viewBox="0 0 64 64" fill="none" xmlns="http://www.w3.org/2000/svg">
<path fill-rule="evenodd" clip-rule="evenodd" d="M57.6 32.0004C57.6 46.1389 46.1385 57.6004 32 57.6004C17.8615 57.6004 6.39999 46.1389 6.39999 32.0004C6.39999 17.8619 17.8615 6.40039 32 6.40039C46.1385 6.40039 57.6 17.8619 57.6 32.0004ZM35.2 44.8004C35.2 46.5677 33.7673 48.0004 32 48.0004C30.2327 48.0004 28.8 46.5677 28.8 44.8004C28.8 43.0331 30.2327 41.6004 32 41.6004C33.7673 41.6004 35.2 43.0331 35.2 44.8004ZM32 16.0004C30.2327 16.0004 28.8 17.4331 28.8 19.2004V32.0004C28.8 33.7677 30.2327 35.2004 32 35.2004C33.7673 35.2004 35.2 33.7677 35.2 32.0004V19.2004C35.2 17.4331 33.7673 16.0004 32 16.0004Z" fill="#F14D00"/>
</svg>
