<svg width="44" height="44" viewBox="0 0 44 44" fill="none" xmlns="http://www.w3.org/2000/svg">
<rect width="44" height="44" rx="22" fill="#18181B"/>
<path fill-rule="evenodd" clip-rule="evenodd" d="M16.2929 13.2929C16.6834 12.9024 17.3166 12.9024 17.7071 13.2929L21.7071 17.2929C22.0976 17.6834 22.0976 18.3166 21.7071 18.7071C21.3166 19.0976 20.6834 19.0976 20.2929 18.7071L18 16.4142V26C18 26.5523 17.5523 27 17 27C16.4477 27 16 26.5523 16 26V16.4142L13.7071 18.7071C13.3166 19.0976 12.6834 19.0976 12.2929 18.7071C11.9024 18.3166 11.9024 17.6834 12.2929 17.2929L16.2929 13.2929ZM26 27.5858V18C26 17.4477 26.4477 17 27 17C27.5523 17 28 17.4477 28 18V27.5858L30.2929 25.2929C30.6834 24.9024 31.3166 24.9024 31.7071 25.2929C32.0976 25.6834 32.0976 26.3166 31.7071 26.7071L27.7071 30.7071C27.3166 31.0976 26.6834 31.0976 26.2929 30.7071L22.2929 26.7071C21.9024 26.3166 21.9024 25.6834 22.2929 25.2929C22.6834 24.9024 23.3166 24.9024 23.7071 25.2929L26 27.5858Z" fill="white"/>
</svg>
