<svg width="24" height="24" viewBox="0 0 24 24" fill="none" xmlns="http://www.w3.org/2000/svg">
<g clip-path="url(#clip0_4787_10650)">
<path d="M0.599976 1.5C0.599976 0.671574 1.27155 0 2.09998 0H21.9C22.7284 0 23.4 0.671573 23.4 1.5V16.462C23.4 16.9945 23.1176 17.4871 22.6582 17.7563L12.7582 23.5558C12.2899 23.8301 11.71 23.8301 11.2418 23.5558L1.34178 17.7563C0.8823 17.4871 0.599976 16.9945 0.599976 16.462V1.5Z" fill="url(#paint0_linear_4787_10650)"/>
<g filter="url(#filter0_i_4787_10650)">
<path d="M4.05005 3.89941C4.05005 3.4852 4.38584 3.14941 4.80005 3.14941H19.2C19.6143 3.14941 19.95 3.4852 19.95 3.89941V14.7566C19.95 15.0162 19.8158 15.2574 19.595 15.3941L12.395 19.8547C12.153 20.0046 11.847 20.0046 11.6051 19.8547L4.40506 15.3941C4.18434 15.2574 4.05005 15.0162 4.05005 14.7566V3.89941Z" fill="url(#paint1_radial_4787_10650)"/>
<path d="M4.05005 3.89941C4.05005 3.4852 4.38584 3.14941 4.80005 3.14941H19.2C19.6143 3.14941 19.95 3.4852 19.95 3.89941V14.7566C19.95 15.0162 19.8158 15.2574 19.595 15.3941L12.395 19.8547C12.153 20.0046 11.847 20.0046 11.6051 19.8547L4.40506 15.3941C4.18434 15.2574 4.05005 15.0162 4.05005 14.7566V3.89941Z" fill="url(#paint2_radial_4787_10650)" fill-opacity="0.29"/>
<path d="M4.05005 3.89941C4.05005 3.4852 4.38584 3.14941 4.80005 3.14941H19.2C19.6143 3.14941 19.95 3.4852 19.95 3.89941V14.7566C19.95 15.0162 19.8158 15.2574 19.595 15.3941L12.395 19.8547C12.153 20.0046 11.847 20.0046 11.6051 19.8547L4.40506 15.3941C4.18434 15.2574 4.05005 15.0162 4.05005 14.7566V3.89941Z" fill="url(#paint3_linear_4787_10650)" fill-opacity="0.2"/>
</g>
<path d="M4.80005 2.54941C4.05446 2.54941 3.45005 3.15383 3.45005 3.89941V14.7566C3.45005 15.2239 3.69178 15.6581 4.08907 15.9042L11.2891 20.3648C11.7246 20.6346 12.2754 20.6346 12.711 20.3648L19.911 15.9042C20.3083 15.6581 20.55 15.2239 20.55 14.7566V3.89941C20.55 3.15383 19.9456 2.54941 19.2 2.54941H4.80005Z" stroke="url(#paint4_linear_4787_10650)" stroke-width="1.2"/>
<path opacity="0.74" d="M4.79985 1.87813C3.68148 1.87813 2.77485 2.78475 2.77485 3.90313V14.7482C2.77485 15.4477 3.1358 16.0976 3.72956 16.4673L10.9296 20.9501C11.5848 21.358 12.4149 21.358 13.0701 20.9501L20.2701 16.4673C20.8639 16.0976 21.2249 15.4477 21.2249 14.7482V3.90313C21.2249 2.78475 20.3182 1.87813 19.1999 1.87813H4.79985Z" stroke="url(#paint5_linear_4787_10650)" stroke-width="0.15"/>
<mask id="mask0_4787_10650" style="mask-type:alpha" maskUnits="userSpaceOnUse" x="4" y="3" width="16" height="17">
<path d="M4.05005 3.89941C4.05005 3.4852 4.38584 3.14941 4.80005 3.14941H19.2C19.6143 3.14941 19.95 3.4852 19.95 3.89941V14.7566C19.95 15.0162 19.8158 15.2574 19.595 15.3941L12.395 19.8547C12.153 20.0046 11.847 20.0046 11.6051 19.8547L4.40506 15.3941C4.18434 15.2574 4.05005 15.0162 4.05005 14.7566V3.89941Z" fill="#D9D9D9"/>
</mask>
<g mask="url(#mask0_4787_10650)">
<path d="M14.4808 14.75H9.60955V13.4337L12.6021 9.9575C12.8946 9.60875 13.0183 9.36125 13.0183 8.99C13.0183 8.39375 12.6696 7.98875 12.0508 7.98875C11.5671 7.98875 11.0721 8.23625 11.0721 9.0125H9.60955C9.60955 7.55 10.6783 6.6725 12.0508 6.6725C13.4683 6.6725 14.4808 7.56125 14.4808 9.00125C14.4808 9.7775 14.1771 10.1937 13.6258 10.835L11.3871 13.4337H14.4808V14.75Z" fill="#F5F5F5"/>
</g>
</g>
<defs>
<filter id="filter0_i_4787_10650" x="2.8501" y="1.94922" width="18.2999" height="19.2178" filterUnits="userSpaceOnUse" color-interpolation-filters="sRGB">
<feFlood flood-opacity="0" result="BackgroundImageFix"/>
<feBlend mode="normal" in="SourceGraphic" in2="BackgroundImageFix" result="shape"/>
<feColorMatrix in="SourceAlpha" type="matrix" values="0 0 0 0 0 0 0 0 0 0 0 0 0 0 0 0 0 0 127 0" result="hardAlpha"/>
<feOffset/>
<feGaussianBlur stdDeviation="3.375"/>
<feComposite in2="hardAlpha" operator="arithmetic" k2="-1" k3="1"/>
<feColorMatrix type="matrix" values="0 0 0 0 0.23559 0 0 0 0 0.238151 0 0 0 0 0.245833 0 0 0 1 0"/>
<feBlend mode="normal" in2="shape" result="effect1_innerShadow_4787_10650"/>
</filter>
<linearGradient id="paint0_linear_4787_10650" x1="1.94998" y1="-2.23926e-07" x2="13.275" y2="23.175" gradientUnits="userSpaceOnUse">
<stop stop-color="#ECEFF7"/>
<stop offset="1" stop-color="#B5B5B6"/>
</linearGradient>
<radialGradient id="paint1_radial_4787_10650" cx="0" cy="0" r="1" gradientUnits="userSpaceOnUse" gradientTransform="translate(12 11.9994) rotate(90) scale(13.7856 13.0846)">
<stop stop-color="#9B9DA2"/>
<stop offset="1" stop-color="#67676A"/>
</radialGradient>
<radialGradient id="paint2_radial_4787_10650" cx="0" cy="0" r="1" gradientUnits="userSpaceOnUse" gradientTransform="translate(8.28466 8.76576) rotate(-45.741) scale(8.91131 4.7299)">
<stop stop-color="white"/>
<stop offset="1" stop-color="white" stop-opacity="0"/>
</radialGradient>
<linearGradient id="paint3_linear_4787_10650" x1="12" y1="3.14941" x2="12" y2="20.8494" gradientUnits="userSpaceOnUse">
<stop stop-opacity="0"/>
<stop offset="1"/>
</linearGradient>
<linearGradient id="paint4_linear_4787_10650" x1="12" y1="3.14941" x2="12" y2="20.8494" gradientUnits="userSpaceOnUse">
<stop stop-color="#ACACAC"/>
<stop offset="1" stop-color="#DFE3EA"/>
</linearGradient>
<linearGradient id="paint5_linear_4787_10650" x1="6.89985" y1="1.27812" x2="14.7749" y2="21.2281" gradientUnits="userSpaceOnUse">
<stop stop-color="#FBFCFF"/>
<stop offset="1" stop-color="#D4D6D9"/>
</linearGradient>
<clipPath id="clip0_4787_10650">
<rect width="24" height="24" fill="white"/>
</clipPath>
</defs>
</svg>
