<svg width="21" height="20" viewBox="0 0 21 20" fill="none" xmlns="http://www.w3.org/2000/svg">
<path fill-rule="evenodd" clip-rule="evenodd" d="M10.5 18C14.9183 18 18.5 14.4183 18.5 10C18.5 5.58172 14.9183 2 10.5 2C6.08172 2 2.5 5.58172 2.5 10C2.5 14.4183 6.08172 18 10.5 18ZM8.00407 11.6689C7.54384 11.6689 7.17074 12.042 7.17074 12.5022C7.17074 12.9625 7.54384 13.3356 8.00407 13.3356H9.67076V14.1689C9.67076 14.6292 10.0439 15.0022 10.5041 15.0022C10.9643 15.0022 11.3374 14.6292 11.3374 14.1689V13.3356H12.1708C13.3213 13.3356 14.2541 12.4029 14.2541 11.2522C14.2541 10.1017 13.3213 9.16891 12.1708 9.16891H8.83742C8.60729 9.16891 8.42074 8.98241 8.42074 8.75225C8.42074 8.52216 8.60729 8.33558 8.83742 8.33558H13.0041C13.4643 8.33558 13.8374 7.96249 13.8374 7.50227C13.8374 7.04204 13.4643 6.66896 13.0041 6.66896H11.3374V5.83562C11.3374 5.37538 10.9643 5.00229 10.5041 5.00229C10.0439 5.00229 9.67076 5.37538 9.67076 5.83562V6.66896H8.83742C7.68682 6.66896 6.75407 7.60169 6.75407 8.75225C6.75407 9.90291 7.68682 10.8356 8.83742 10.8356H12.1708C12.4008 10.8356 12.5874 11.0222 12.5874 11.2522C12.5874 11.4824 12.4008 11.6689 12.1708 11.6689H8.00407Z" fill="white"/>
</svg>
