<svg width="18" height="18" viewBox="0 0 18 18" fill="none" xmlns="http://www.w3.org/2000/svg">
<path fill-rule="evenodd" clip-rule="evenodd" d="M2.25 4.5C2.25 3.25736 3.25736 2.25 4.5 2.25H10.5C11.7426 2.25 12.75 3.25736 12.75 4.5V5.25H13.5C14.7426 5.25 15.75 6.25736 15.75 7.5V13.5C15.75 14.7426 14.7426 15.75 13.5 15.75H7.5C6.25736 15.75 5.25 14.7426 5.25 13.5V12.75H4.5C3.25736 12.75 2.25 11.7426 2.25 10.5V4.5ZM6.75 13.5C6.75 13.9142 7.08579 14.25 7.5 14.25H13.5C13.9142 14.25 14.25 13.9142 14.25 13.5V7.5C14.25 7.08579 13.9142 6.75 13.5 6.75H7.5C7.08579 6.75 6.75 7.08579 6.75 7.5V13.5ZM11.25 5.25H7.5C6.25736 5.25 5.25 6.25736 5.25 7.5V11.25H4.5C4.08579 11.25 3.75 10.9142 3.75 10.5V4.5C3.75 4.08579 4.08579 3.75 4.5 3.75H10.5C10.9142 3.75 11.25 4.08579 11.25 4.5V5.25Z" fill="#83838F"/>
</svg>
