<svg width="86" height="34" viewBox="0 0 86 34" fill="none" xmlns="http://www.w3.org/2000/svg">
<rect x="1" y="1" width="52" height="32" rx="6" stroke="white" stroke-width="2"/>
<g clip-path="url(#clip0_4787_10149)">
<rect x="2" y="2" width="50" height="30" rx="5.09091" fill="url(#paint0_linear_4787_10149)"/>
<g filter="url(#filter0_d_4787_10149)">
<path d="M20.2084 1.49937L3.84916 -5.8428C2.20644 -6.58006 0.34112 -5.98873 -0.317154 -4.52201L-1.50906 -1.86629C0.955015 -0.760394 2.15209 1.91962 1.16468 4.1197C0.17727 6.31977 -2.62071 7.20677 -5.08479 6.10087L-6.2767 8.75659C-6.93498 10.2233 -6.13693 12.01 -4.49421 12.7472L19.301 23.4268C20.9438 24.164 22.8091 23.5727 23.4674 22.106L24.6593 19.4503C22.1952 18.3444 20.9981 15.6643 21.9855 13.4643C22.9729 11.2642 25.7709 10.3772 28.235 11.4831L29.4269 8.82738C30.0852 7.36066 29.2871 5.57398 27.6444 4.83672L20.2084 1.49937Z" fill="url(#paint1_linear_4787_10149)"/>
<path d="M3.71888 -5.55251L20.0781 1.78966L27.5141 5.127C29.0283 5.80659 29.7095 7.42076 29.1366 8.69709L28.0715 11.0704C25.5497 10.1 22.7278 11.0333 21.6952 13.334C20.6627 15.6346 21.841 18.3633 24.2423 19.6024L23.1771 21.9757C22.6042 23.252 20.9455 23.8161 19.4313 23.1365L-4.36392 12.457C-5.87813 11.7774 -6.55925 10.1632 -5.98642 8.88687L-4.92124 6.51353C-2.39945 7.48394 0.42242 6.55062 1.45497 4.24998C2.48751 1.94934 1.30918 -0.779315 -1.09204 -2.0184L-0.0268678 -4.39173C0.545962 -5.66807 2.20467 -6.2321 3.71888 -5.55251Z" stroke="url(#paint2_linear_4787_10149)" stroke-opacity="0.3" stroke-width="0.636364"/>
</g>
<path d="M19.9217 5.55616C20.0656 5.23552 20.4422 5.09225 20.7628 5.23615C21.0835 5.38006 21.2267 5.75665 21.0828 6.07729L20.0406 8.39958C19.8967 8.72022 19.5201 8.86349 19.1994 8.71959C18.8788 8.57568 18.7355 8.19909 18.8794 7.87845L19.9217 5.55616Z" fill="white"/>
<path d="M17.8372 10.2007C17.9811 9.88009 18.3577 9.73682 18.6783 9.88073C18.9989 10.0246 19.1422 10.4012 18.9983 10.7219L17.956 13.0442C17.8121 13.3648 17.4355 13.5081 17.1149 13.3642C16.7943 13.2203 16.651 12.8437 16.7949 12.523L17.8372 10.2007Z" fill="white"/>
<path d="M15.7526 14.8453C15.8965 14.5247 16.2731 14.3814 16.5938 14.5253C16.9144 14.6692 17.0577 15.0458 16.9138 15.3664L15.8715 17.6887C15.7276 18.0094 15.351 18.1526 15.0304 18.0087C14.7097 17.8648 14.5665 17.4882 14.7104 17.1676L15.7526 14.8453Z" fill="white"/>
<path d="M37.9546 9C42.6494 9 46.4546 12.806 46.4546 17.5C46.4546 22.1948 42.6494 26 37.9546 26C33.2606 26 29.4546 22.1944 29.4546 17.5C29.4546 12.806 33.2606 9 37.9546 9Z" fill="#B4DB20"/>
<path d="M47.091 17.5C47.091 12.4546 43.0009 8.36364 37.9546 8.36364C32.9091 8.36364 28.8182 12.4545 28.8182 17.5C28.8182 22.5459 32.9091 26.6364 37.9546 26.6364C43.0009 26.6364 47.091 22.5463 47.091 17.5Z" stroke="white" stroke-opacity="0.5" stroke-width="1.27273"/>
<path d="M38.1087 14.4706C38.1087 14.0472 38.4493 13.7023 38.8675 13.7023H40.2253V11.833H38.8675C37.4289 11.833 36.2624 13.0141 36.2624 14.4706C36.2624 14.8507 36.3424 15.2119 36.4853 15.538C35.368 16.0163 34.6261 17.0322 34.4534 18.3179C34.2515 19.7295 34.8102 21.2522 36.0267 21.9878C37.1125 22.6801 38.8102 22.6343 39.7272 21.674V22.3115H41.6171V15.2389H38.8683C38.4501 15.2389 38.1095 14.894 38.1095 14.4706H38.1087ZM39.7692 17.1091V18.8844C39.7692 19.8652 38.9837 20.6596 38.0158 20.6596C37.0479 20.6596 36.2624 19.8643 36.2624 18.8844C36.2624 17.9044 37.0479 17.1091 38.0158 17.1091H39.7692Z" fill="white"/>
</g>
<rect x="2.63636" y="2.63636" width="48.7273" height="28.7273" rx="4.45455" stroke="#18181B" stroke-opacity="0.08" stroke-width="1.27273"/>
<path d="M9.69537 23.7045C9.73927 23.6011 9.88576 23.6011 9.92966 23.7045L10.532 25.1227C10.5446 25.1522 10.5678 25.1759 10.597 25.189L11.9847 25.8126C12.0849 25.8576 12.0849 25.9998 11.9847 26.0448L10.597 26.6684C10.5678 26.6816 10.5446 26.7052 10.532 26.7347L9.92966 28.1529C9.88576 28.2563 9.73927 28.2563 9.69537 28.1529L9.09298 26.7347C9.08045 26.7052 9.05725 26.6816 9.02801 26.6684L7.64029 26.0448C7.54015 25.9998 7.54015 25.8576 7.64029 25.8126L9.02801 25.189C9.05725 25.1759 9.08045 25.1522 9.09298 25.1227L9.69537 23.7045Z" fill="white"/>
<path d="M47.2023 4.77579C47.2462 4.67243 47.3927 4.67243 47.4366 4.77579L48.039 6.19397C48.0515 6.22347 48.0747 6.24716 48.104 6.2603L49.4917 6.88391C49.5918 6.92891 49.5918 7.07109 49.4917 7.11609L48.104 7.7397C48.0747 7.75284 48.0515 7.77653 48.039 7.80603L47.4366 9.22421C47.3927 9.32757 47.2462 9.32757 47.2023 9.22421L46.5999 7.80603C46.5874 7.77653 46.5642 7.75284 46.535 7.7397L45.1472 7.11609C45.0471 7.07109 45.0471 6.92891 45.1472 6.88391L46.535 6.2603C46.5642 6.24716 46.5874 6.22347 46.5999 6.19397L47.2023 4.77579Z" fill="white"/>
<rect x="17" y="1" width="52" height="32" rx="6" stroke="white" stroke-width="2"/>
<g clip-path="url(#clip1_4787_10149)">
<rect x="18" y="2" width="50" height="30" rx="5.09091" fill="url(#paint3_linear_4787_10149)"/>
<g filter="url(#filter1_d_4787_10149)">
<path d="M36.2084 1.49937L19.8492 -5.8428C18.2064 -6.58006 16.3411 -5.98873 15.6828 -4.52201L14.4909 -1.86629C16.955 -0.760394 18.1521 1.91962 17.1647 4.1197C16.1773 6.31977 13.3793 7.20677 10.9152 6.10087L9.7233 8.75659C9.06502 10.2233 9.86307 12.01 11.5058 12.7472L35.301 23.4268C36.9438 24.164 38.8091 23.5727 39.4674 22.106L40.6593 19.4503C38.1952 18.3444 36.9981 15.6643 37.9855 13.4643C38.9729 11.2642 41.7709 10.3772 44.235 11.4831L45.4269 8.82738C46.0852 7.36066 45.2871 5.57398 43.6444 4.83672L36.2084 1.49937Z" fill="url(#paint4_linear_4787_10149)"/>
<path d="M19.7189 -5.55251L36.0781 1.78966L43.5141 5.127C45.0283 5.80659 45.7095 7.42076 45.1366 8.69709L44.0715 11.0704C41.5497 10.1 38.7278 11.0333 37.6952 13.334C36.6627 15.6346 37.841 18.3633 40.2423 19.6024L39.1771 21.9757C38.6042 23.252 36.9455 23.8161 35.4313 23.1365L11.6361 12.457C10.1219 11.7774 9.44075 10.1632 10.0136 8.88687L11.0788 6.51353C13.6006 7.48394 16.4224 6.55062 17.455 4.24998C18.4875 1.94934 17.3092 -0.779315 14.908 -2.0184L15.9731 -4.39173C16.546 -5.66807 18.2047 -6.2321 19.7189 -5.55251Z" stroke="url(#paint5_linear_4787_10149)" stroke-opacity="0.3" stroke-width="0.636364"/>
</g>
<path d="M35.9217 5.55616C36.0656 5.23552 36.4422 5.09225 36.7628 5.23615C37.0835 5.38006 37.2267 5.75665 37.0828 6.07729L36.0406 8.39958C35.8967 8.72022 35.5201 8.86349 35.1994 8.71959C34.8788 8.57568 34.7355 8.19909 34.8794 7.87845L35.9217 5.55616Z" fill="white"/>
<path d="M33.8372 10.2007C33.9811 9.88009 34.3577 9.73682 34.6783 9.88073C34.9989 10.0246 35.1422 10.4012 34.9983 10.7219L33.956 13.0442C33.8121 13.3648 33.4355 13.5081 33.1149 13.3642C32.7943 13.2203 32.651 12.8437 32.7949 12.523L33.8372 10.2007Z" fill="white"/>
<path d="M31.7526 14.8453C31.8965 14.5247 32.2731 14.3814 32.5938 14.5253C32.9144 14.6692 33.0577 15.0458 32.9138 15.3664L31.8715 17.6887C31.7276 18.0094 31.351 18.1526 31.0304 18.0087C30.7097 17.8648 30.5665 17.4882 30.7104 17.1676L31.7526 14.8453Z" fill="white"/>
<path d="M53.9546 9C58.6494 9 62.4546 12.806 62.4546 17.5C62.4546 22.1948 58.6494 26 53.9546 26C49.2606 26 45.4546 22.1944 45.4546 17.5C45.4546 12.806 49.2606 9 53.9546 9Z" fill="#B4DB20"/>
<path d="M63.091 17.5C63.091 12.4546 59.0009 8.36364 53.9546 8.36364C48.9091 8.36364 44.8182 12.4545 44.8182 17.5C44.8182 22.5459 48.9091 26.6364 53.9546 26.6364C59.0009 26.6364 63.091 22.5463 63.091 17.5Z" stroke="white" stroke-opacity="0.5" stroke-width="1.27273"/>
<path d="M54.1087 14.4706C54.1087 14.0472 54.4493 13.7023 54.8675 13.7023H56.2253V11.833H54.8675C53.4289 11.833 52.2624 13.0141 52.2624 14.4706C52.2624 14.8507 52.3424 15.2119 52.4853 15.538C51.368 16.0163 50.6261 17.0322 50.4534 18.3179C50.2515 19.7295 50.8102 21.2522 52.0267 21.9878C53.1125 22.6801 54.8102 22.6343 55.7272 21.674V22.3115H57.6171V15.2389H54.8683C54.4501 15.2389 54.1095 14.894 54.1095 14.4706H54.1087ZM55.7692 17.1091V18.8844C55.7692 19.8652 54.9837 20.6596 54.0158 20.6596C53.0479 20.6596 52.2624 19.8643 52.2624 18.8844C52.2624 17.9044 53.0479 17.1091 54.0158 17.1091H55.7692Z" fill="white"/>
</g>
<rect x="18.6364" y="2.63636" width="48.7273" height="28.7273" rx="4.45455" stroke="#18181B" stroke-opacity="0.08" stroke-width="1.27273"/>
<path d="M25.6954 23.7045C25.7393 23.6011 25.8858 23.6011 25.9297 23.7045L26.532 25.1227C26.5446 25.1522 26.5678 25.1759 26.597 25.189L27.9847 25.8126C28.0849 25.8576 28.0849 25.9998 27.9847 26.0448L26.597 26.6684C26.5678 26.6816 26.5446 26.7052 26.532 26.7347L25.9297 28.1529C25.8858 28.2563 25.7393 28.2563 25.6954 28.1529L25.093 26.7347C25.0805 26.7052 25.0572 26.6816 25.028 26.6684L23.6403 26.0448C23.5402 25.9998 23.5402 25.8576 23.6403 25.8126L25.028 25.189C25.0572 25.1759 25.0805 25.1522 25.093 25.1227L25.6954 23.7045Z" fill="white"/>
<path d="M63.2023 4.77579C63.2462 4.67243 63.3927 4.67243 63.4366 4.77579L64.039 6.19397C64.0515 6.22347 64.0747 6.24716 64.104 6.2603L65.4917 6.88391C65.5918 6.92891 65.5918 7.07109 65.4917 7.11609L64.104 7.7397C64.0747 7.75284 64.0515 7.77653 64.039 7.80603L63.4366 9.22421C63.3927 9.32757 63.2462 9.32757 63.2023 9.22421L62.5999 7.80603C62.5874 7.77653 62.5642 7.75284 62.535 7.7397L61.1472 7.11609C61.0471 7.07109 61.0471 6.92891 61.1472 6.88391L62.535 6.2603C62.5642 6.24716 62.5874 6.22347 62.5999 6.19397L63.2023 4.77579Z" fill="white"/>
<rect x="33" y="1" width="52" height="32" rx="6" stroke="white" stroke-width="2"/>
<g clip-path="url(#clip2_4787_10149)">
<rect x="34" y="2" width="50" height="30" rx="5.09091" fill="url(#paint6_linear_4787_10149)"/>
<g filter="url(#filter2_d_4787_10149)">
<path d="M52.2084 1.49937L35.8492 -5.8428C34.2064 -6.58006 32.3411 -5.98873 31.6828 -4.52201L30.4909 -1.86629C32.955 -0.760394 34.1521 1.91962 33.1647 4.1197C32.1773 6.31977 29.3793 7.20677 26.9152 6.10087L25.7233 8.75659C25.065 10.2233 25.8631 12.01 27.5058 12.7472L51.301 23.4268C52.9438 24.164 54.8091 23.5727 55.4674 22.106L56.6593 19.4503C54.1952 18.3444 52.9981 15.6643 53.9855 13.4643C54.9729 11.2642 57.7709 10.3772 60.235 11.4831L61.4269 8.82738C62.0852 7.36066 61.2871 5.57398 59.6444 4.83672L52.2084 1.49937Z" fill="url(#paint7_linear_4787_10149)"/>
<path d="M35.7189 -5.55251L52.0781 1.78966L59.5141 5.127C61.0283 5.80659 61.7095 7.42076 61.1366 8.69709L60.0715 11.0704C57.5497 10.1 54.7278 11.0333 53.6952 13.334C52.6627 15.6346 53.841 18.3633 56.2423 19.6024L55.1771 21.9757C54.6042 23.252 52.9455 23.8161 51.4313 23.1365L27.6361 12.457C26.1219 11.7774 25.4408 10.1632 26.0136 8.88687L27.0788 6.51353C29.6006 7.48394 32.4224 6.55062 33.455 4.24998C34.4875 1.94934 33.3092 -0.779315 30.908 -2.0184L31.9731 -4.39173C32.546 -5.66807 34.2047 -6.2321 35.7189 -5.55251Z" stroke="url(#paint8_linear_4787_10149)" stroke-opacity="0.3" stroke-width="0.636364"/>
</g>
<path d="M51.9217 5.55616C52.0656 5.23552 52.4422 5.09225 52.7628 5.23615C53.0835 5.38006 53.2267 5.75665 53.0828 6.07729L52.0406 8.39958C51.8967 8.72022 51.5201 8.86349 51.1994 8.71959C50.8788 8.57568 50.7355 8.19909 50.8794 7.87845L51.9217 5.55616Z" fill="white"/>
<path d="M49.8372 10.2007C49.9811 9.88009 50.3577 9.73682 50.6783 9.88073C50.9989 10.0246 51.1422 10.4012 50.9983 10.7219L49.956 13.0442C49.8121 13.3648 49.4355 13.5081 49.1149 13.3642C48.7943 13.2203 48.651 12.8437 48.7949 12.523L49.8372 10.2007Z" fill="white"/>
<path d="M47.7526 14.8453C47.8965 14.5247 48.2731 14.3814 48.5938 14.5253C48.9144 14.6692 49.0577 15.0458 48.9138 15.3664L47.8715 17.6887C47.7276 18.0094 47.351 18.1526 47.0304 18.0087C46.7097 17.8648 46.5665 17.4882 46.7104 17.1676L47.7526 14.8453Z" fill="white"/>
<path d="M69.9546 9C74.6494 9 78.4546 12.806 78.4546 17.5C78.4546 22.1948 74.6494 26 69.9546 26C65.2606 26 61.4546 22.1944 61.4546 17.5C61.4546 12.806 65.2606 9 69.9546 9Z" fill="#B4DB20"/>
<path d="M79.091 17.5C79.091 12.4546 75.0009 8.36364 69.9546 8.36364C64.9091 8.36364 60.8182 12.4545 60.8182 17.5C60.8182 22.5459 64.9091 26.6364 69.9546 26.6364C75.0009 26.6364 79.091 22.5463 79.091 17.5Z" stroke="white" stroke-opacity="0.5" stroke-width="1.27273"/>
<path d="M70.1087 14.4706C70.1087 14.0472 70.4493 13.7023 70.8675 13.7023H72.2253V11.833H70.8675C69.4289 11.833 68.2624 13.0141 68.2624 14.4706C68.2624 14.8507 68.3424 15.2119 68.4853 15.538C67.368 16.0163 66.6261 17.0322 66.4534 18.3179C66.2515 19.7295 66.8102 21.2522 68.0267 21.9878C69.1125 22.6801 70.8102 22.6343 71.7272 21.674V22.3115H73.6171V15.2389H70.8683C70.4501 15.2389 70.1095 14.894 70.1095 14.4706H70.1087ZM71.7692 17.1091V18.8844C71.7692 19.8652 70.9837 20.6596 70.0158 20.6596C69.0479 20.6596 68.2624 19.8643 68.2624 18.8844C68.2624 17.9044 69.0479 17.1091 70.0158 17.1091H71.7692Z" fill="white"/>
</g>
<rect x="34.6364" y="2.63636" width="48.7273" height="28.7273" rx="4.45455" stroke="#18181B" stroke-opacity="0.08" stroke-width="1.27273"/>
<path d="M41.6954 23.7045C41.7393 23.6011 41.8858 23.6011 41.9297 23.7045L42.532 25.1227C42.5446 25.1522 42.5678 25.1759 42.597 25.189L43.9847 25.8126C44.0849 25.8576 44.0849 25.9998 43.9847 26.0448L42.597 26.6684C42.5678 26.6816 42.5446 26.7052 42.532 26.7347L41.9297 28.1529C41.8858 28.2563 41.7393 28.2563 41.6954 28.1529L41.093 26.7347C41.0805 26.7052 41.0572 26.6816 41.028 26.6684L39.6403 26.0448C39.5402 25.9998 39.5402 25.8576 39.6403 25.8126L41.028 25.189C41.0572 25.1759 41.0805 25.1522 41.093 25.1227L41.6954 23.7045Z" fill="white"/>
<path d="M79.2023 4.77579C79.2462 4.67243 79.3927 4.67243 79.4366 4.77579L80.039 6.19397C80.0515 6.22347 80.0747 6.24716 80.104 6.2603L81.4917 6.88391C81.5918 6.92891 81.5918 7.07109 81.4917 7.11609L80.104 7.7397C80.0747 7.75284 80.0515 7.77653 80.039 7.80603L79.4366 9.22421C79.3927 9.32757 79.2462 9.32757 79.2023 9.22421L78.5999 7.80603C78.5874 7.77653 78.5642 7.75284 78.535 7.7397L77.1472 7.11609C77.0471 7.07109 77.0471 6.92891 77.1472 6.88391L78.535 6.2603C78.5642 6.24716 78.5874 6.22347 78.5999 6.19397L79.2023 4.77579Z" fill="white"/>
<defs>
<filter id="filter0_d_4787_10149" x="-7.14381" y="-6.16016" width="36.8015" height="31.177" filterUnits="userSpaceOnUse" color-interpolation-filters="sRGB">
<feFlood flood-opacity="0" result="BackgroundImageFix"/>
<feColorMatrix in="SourceAlpha" type="matrix" values="0 0 0 0 0 0 0 0 0 0 0 0 0 0 0 0 0 0 127 0" result="hardAlpha"/>
<feOffset dx="-0.636364" dy="1.27273"/>
<feComposite in2="hardAlpha" operator="out"/>
<feColorMatrix type="matrix" values="0 0 0 0 0 0 0 0 0 0 0 0 0 0 0 0 0 0 0.07 0"/>
<feBlend mode="normal" in2="BackgroundImageFix" result="effect1_dropShadow_4787_10149"/>
<feBlend mode="normal" in="SourceGraphic" in2="effect1_dropShadow_4787_10149" result="shape"/>
</filter>
<filter id="filter1_d_4787_10149" x="8.85619" y="-6.16016" width="36.8015" height="31.177" filterUnits="userSpaceOnUse" color-interpolation-filters="sRGB">
<feFlood flood-opacity="0" result="BackgroundImageFix"/>
<feColorMatrix in="SourceAlpha" type="matrix" values="0 0 0 0 0 0 0 0 0 0 0 0 0 0 0 0 0 0 127 0" result="hardAlpha"/>
<feOffset dx="-0.636364" dy="1.27273"/>
<feComposite in2="hardAlpha" operator="out"/>
<feColorMatrix type="matrix" values="0 0 0 0 0 0 0 0 0 0 0 0 0 0 0 0 0 0 0.07 0"/>
<feBlend mode="normal" in2="BackgroundImageFix" result="effect1_dropShadow_4787_10149"/>
<feBlend mode="normal" in="SourceGraphic" in2="effect1_dropShadow_4787_10149" result="shape"/>
</filter>
<filter id="filter2_d_4787_10149" x="24.8562" y="-6.16016" width="36.8015" height="31.177" filterUnits="userSpaceOnUse" color-interpolation-filters="sRGB">
<feFlood flood-opacity="0" result="BackgroundImageFix"/>
<feColorMatrix in="SourceAlpha" type="matrix" values="0 0 0 0 0 0 0 0 0 0 0 0 0 0 0 0 0 0 127 0" result="hardAlpha"/>
<feOffset dx="-0.636364" dy="1.27273"/>
<feComposite in2="hardAlpha" operator="out"/>
<feColorMatrix type="matrix" values="0 0 0 0 0 0 0 0 0 0 0 0 0 0 0 0 0 0 0.07 0"/>
<feBlend mode="normal" in2="BackgroundImageFix" result="effect1_dropShadow_4787_10149"/>
<feBlend mode="normal" in="SourceGraphic" in2="effect1_dropShadow_4787_10149" result="shape"/>
</filter>
<linearGradient id="paint0_linear_4787_10149" x1="2.00001" y1="32" x2="43.58" y2="-6.98127" gradientUnits="userSpaceOnUse">
<stop stop-color="#A2CA0B"/>
<stop offset="1" stop-color="#DCF858"/>
</linearGradient>
<linearGradient id="paint1_linear_4787_10149" x1="0.374342" y1="-6.06275" x2="18.7205" y2="26.906" gradientUnits="userSpaceOnUse">
<stop stop-color="#EDB427"/>
<stop offset="1" stop-color="#FBFFCB"/>
</linearGradient>
<linearGradient id="paint2_linear_4787_10149" x1="15.7468" y1="-0.503039" x2="7.40342" y2="18.087" gradientUnits="userSpaceOnUse">
<stop stop-color="white"/>
<stop offset="1" stop-color="white" stop-opacity="0"/>
</linearGradient>
<linearGradient id="paint3_linear_4787_10149" x1="18" y1="32" x2="59.58" y2="-6.98127" gradientUnits="userSpaceOnUse">
<stop stop-color="#A2CA0B"/>
<stop offset="1" stop-color="#DCF858"/>
</linearGradient>
<linearGradient id="paint4_linear_4787_10149" x1="16.3743" y1="-6.06275" x2="34.7205" y2="26.906" gradientUnits="userSpaceOnUse">
<stop stop-color="#EDB427"/>
<stop offset="1" stop-color="#FBFFCB"/>
</linearGradient>
<linearGradient id="paint5_linear_4787_10149" x1="31.7468" y1="-0.503039" x2="23.4034" y2="18.087" gradientUnits="userSpaceOnUse">
<stop stop-color="white"/>
<stop offset="1" stop-color="white" stop-opacity="0"/>
</linearGradient>
<linearGradient id="paint6_linear_4787_10149" x1="34" y1="32" x2="75.58" y2="-6.98127" gradientUnits="userSpaceOnUse">
<stop stop-color="#A2CA0B"/>
<stop offset="1" stop-color="#DCF858"/>
</linearGradient>
<linearGradient id="paint7_linear_4787_10149" x1="32.3743" y1="-6.06275" x2="50.7205" y2="26.906" gradientUnits="userSpaceOnUse">
<stop stop-color="#EDB427"/>
<stop offset="1" stop-color="#FBFFCB"/>
</linearGradient>
<linearGradient id="paint8_linear_4787_10149" x1="47.7468" y1="-0.503039" x2="39.4034" y2="18.087" gradientUnits="userSpaceOnUse">
<stop stop-color="white"/>
<stop offset="1" stop-color="white" stop-opacity="0"/>
</linearGradient>
<clipPath id="clip0_4787_10149">
<rect x="2" y="2" width="50" height="30" rx="5.09091" fill="white"/>
</clipPath>
<clipPath id="clip1_4787_10149">
<rect x="18" y="2" width="50" height="30" rx="5.09091" fill="white"/>
</clipPath>
<clipPath id="clip2_4787_10149">
<rect x="34" y="2" width="50" height="30" rx="5.09091" fill="white"/>
</clipPath>
</defs>
</svg>
