<svg width="32" height="32" viewBox="0 0 32 32" fill="none" xmlns="http://www.w3.org/2000/svg">
<rect width="32" height="32" rx="10" fill="#7C8794"/>
<path d="M13.8 10.5002C13.1925 10.5002 12.7001 10.9927 12.7 11.6002C12.7 12.2077 13.1925 12.7002 13.8 12.7002L19.9444 12.7002L18.5222 14.1224C18.0927 14.552 18.0927 15.2484 18.5222 15.678C18.9518 16.1076 19.6483 16.1076 20.0779 15.678L23.3779 12.378C23.5842 12.1717 23.7 11.8919 23.7 11.6002C23.7 11.3085 23.5842 11.0287 23.3779 10.8224L20.0779 7.52238C19.6483 7.0928 18.9518 7.0928 18.5222 7.52238C18.0927 7.95195 18.0927 8.64844 18.5222 9.07801L19.9444 10.5002L13.8 10.5002Z" fill="white"/>
<path d="M18.2 21.5002C18.8076 21.5002 19.3 21.0077 19.3 20.4002C19.3 19.7927 18.8076 19.3002 18.2 19.3002L12.0557 19.3002L13.4779 17.878C13.9074 17.4484 13.9074 16.752 13.4779 16.3224C13.0483 15.8928 12.3518 15.8928 11.9222 16.3224L8.62223 19.6224C8.41594 19.8287 8.30005 20.1085 8.30005 20.4002C8.30005 20.6919 8.41594 20.9717 8.62223 21.178L11.9222 24.478C12.3518 24.9076 13.0483 24.9076 13.4779 24.478C13.9074 24.0484 13.9074 23.352 13.4779 22.9224L12.0557 21.5002L18.2 21.5002Z" fill="white"/>
</svg>
