<svg width="206" height="32" viewBox="0 0 206 32" fill="none" xmlns="http://www.w3.org/2000/svg">
<path d="M0.938477 4.37192C0.938477 2.88425 1.69979 2.12524 3.19195 2.12524C4.68412 2.12524 5.44542 2.88425 5.44542 4.37192V20.8577H12.7235C13.9721 20.8577 14.6116 21.4953 14.6116 22.74C14.6116 23.9848 13.9721 24.6224 12.7235 24.6224H2.91788C1.73024 24.6224 0.938477 23.833 0.938477 22.649V4.37192Z" fill="#483A00"/>
<path d="M32.4386 22.8008C32.4386 24.0152 31.7382 24.6224 30.5201 24.6224C29.4238 24.6224 28.7234 24.0759 28.5711 22.9829L28.4493 22.1632H28.3275C26.8658 23.8937 25.2518 25.0474 22.907 25.0474C19.2223 25.0474 17.6387 22.4972 17.6387 18.2163V9.83681C17.6387 8.34915 18.3696 7.62049 19.8618 7.62049C21.3539 7.62049 22.0848 8.34915 22.0848 9.83681V17.6698C22.0848 20.3112 22.8461 21.222 24.521 21.222C25.8913 21.222 26.8049 20.6148 27.9621 19.0968V9.59393C27.9621 8.40987 28.7538 7.62049 29.9415 7.62049H31.4032C32.0427 7.62049 32.4386 8.01518 32.4386 8.65275V22.8008Z" fill="#483A00"/>
<path d="M38.5509 22.7097C37.0588 21.1613 36.1452 18.945 36.1452 16.1214C36.1452 13.2979 37.1806 11.0512 38.7641 9.53321C40.3781 8.01518 42.5402 7.19545 44.8546 7.19545C46.2858 7.19545 47.5039 7.55977 48.5393 8.16698C49.4224 8.83491 49.4529 9.59393 48.7829 10.4744C48.0521 11.4459 47.0776 11.5977 46.0422 10.9905C45.7377 10.8994 45.4332 10.8387 45.0982 10.8387C42.4793 10.8387 40.7131 12.9336 40.7131 16.1214C40.7131 19.3397 42.4793 21.4042 44.9459 21.4042C45.555 21.4042 46.1031 21.2827 46.6513 21.0399C47.7171 20.3719 48.6002 20.6148 49.2397 21.6774C49.7574 22.5275 49.5442 23.3472 48.722 23.9241C47.3821 24.6831 45.8595 25.0474 44.4587 25.0474C42.1139 25.0474 40.0431 24.2277 38.5509 22.7097Z" fill="#483A00"/>
<path d="M53.2699 2.58065C53.2699 1.12334 54.0312 0.394687 55.4929 0.394687C56.9546 0.394687 57.6855 1.12334 57.6855 2.58065V14.907H57.8073L62.8928 8.53131C63.3496 7.98482 64.0805 7.62049 64.8113 7.62049H67.3998C68.1002 7.62049 68.2524 7.95446 67.7957 8.47059L62.6797 14.6338L67.6434 22.4061C68.5265 23.7419 68.0393 24.6224 66.4253 24.6224H65.5726C64.7504 24.6224 63.9282 24.1366 63.5019 23.4383L60.0608 17.5484L57.6855 20.3112V22.4364C57.6855 23.8937 56.9546 24.6224 55.4929 24.6224C54.0312 24.6224 53.2699 23.8937 53.2699 22.4364V2.58065Z" fill="#483A00"/>
<path d="M80.2664 25.1385C78.7742 29.1461 76.9471 31.4232 73.1405 31.4232C72.8665 31.4232 72.6228 31.4232 72.3792 31.3928C71.2525 31.2106 71.0089 30.1784 71.2829 29.055C71.4657 28.3264 71.9833 27.7495 72.7446 27.9013C72.7751 27.9013 72.7751 27.9013 72.8055 27.9013C74.5413 27.9013 75.5158 26.8083 76.0031 25.3207L76.3076 24.2884L70.4607 9.62429C69.9735 8.40987 70.5216 7.62049 71.8311 7.62049H73.1405C73.78 7.62049 74.2977 7.98482 74.5109 8.59203L76.8862 15.5142C77.4039 17.0323 77.8302 18.6717 78.3174 20.3112H78.4697C78.8351 18.7324 79.2615 17.093 79.6878 15.5142L81.5454 9.29032C81.8804 8.16698 82.6112 7.62049 83.7684 7.62049C85.5042 7.62049 86.0523 8.44023 85.4737 10.0493L80.2664 25.1385Z" fill="#483A00"/>
<path d="M93.9095 3.6129C95.3103 2.42884 97.2593 1.73055 99.5127 1.73055C101.584 1.73055 103.624 2.36812 105.299 3.55218C106.151 4.28084 106.212 5.13093 105.512 5.98103C104.751 6.89184 103.807 7.07401 102.802 6.40607C101.797 5.88994 100.731 5.58634 99.5127 5.58634C97.5333 5.58634 96.3152 6.46679 96.3152 7.95446C96.3152 9.56357 97.8988 10.1404 99.8173 10.9298L102.771 12.1139C105.512 13.2372 107.309 14.9981 107.309 18.2467C107.309 20.0683 106.547 21.7685 105.116 23.0133C103.715 24.2581 101.644 25.0474 99.0255 25.0474C96.6502 25.0474 94.3054 24.3491 92.326 23.0133C91.3211 22.1936 91.2297 21.2524 92.0519 20.2808C92.935 19.2182 94.0313 19.1575 95.1276 19.9772C96.4066 20.7059 97.8074 21.1613 99.1169 21.1613C101.462 21.1613 102.71 20.1594 102.71 18.5806C102.71 16.9108 101.309 16.3947 99.2996 15.5446L96.3152 14.2391C94.0313 13.3283 91.7169 11.5066 91.7169 8.22771C91.7169 6.40607 92.5392 4.7666 93.9095 3.6129Z" fill="#483A00"/>
<path d="M124.363 22.8008C124.363 24.0152 123.662 24.6224 122.444 24.6224C121.348 24.6224 120.617 24.0759 120.434 23.0133L120.404 22.8008H120.252C118.79 24.1063 117.084 25.0474 115.105 25.0474C112.06 25.0474 110.08 22.8918 110.08 19.9772C110.08 16.3643 113.034 14.4516 119.886 13.723C119.825 12.0531 119.094 10.778 116.993 10.778C115.958 10.778 114.953 11.0816 113.948 11.537C112.943 12.0835 112.029 11.871 111.481 10.8691C110.994 9.92789 111.146 9.19924 112.06 8.68311C113.765 7.83302 115.714 7.19545 117.815 7.19545C122.14 7.19545 124.363 9.77609 124.363 14.6945V22.8008ZM117.267 16.9715C116.567 17.1537 115.988 17.3966 115.562 17.6698C114.679 18.186 114.344 18.8539 114.344 19.6433C114.344 20.9791 115.288 21.556 116.597 21.556C117.876 21.556 118.82 20.9488 119.886 19.8862V16.4858C118.851 16.6072 117.998 16.759 117.267 16.9715Z" fill="#483A00"/>
<path d="M129.839 16.1214L127.829 10.2011C127.25 8.47059 127.798 7.62049 129.625 7.62049C130.874 7.62049 131.635 8.19734 131.97 9.3814L133.919 16.0911C134.406 17.7609 134.833 19.5218 135.32 21.2524H135.472C135.929 19.5218 136.386 17.7609 136.843 16.0911L138.852 9.29032C139.187 8.16698 139.918 7.62049 141.075 7.62049C142.781 7.62049 143.359 8.44023 142.811 10.0493L138.457 23.1044C138.152 24.0152 137.299 24.6224 136.325 24.6224H133.95C133.219 24.6224 132.61 24.1973 132.366 23.4991L129.839 16.1214Z" fill="#483A00"/>
<path d="M150.947 22.649C150.947 23.833 150.155 24.6224 148.968 24.6224H147.476C146.867 24.6224 146.471 24.2277 146.471 23.6205V9.83681C146.471 8.34915 147.232 7.62049 148.724 7.62049C150.216 7.62049 150.947 8.34915 150.947 9.83681V22.649ZM150.582 0.667932C151.039 1.09298 151.313 1.70019 151.313 2.42884C151.313 3.1575 151.039 3.76471 150.582 4.18975C150.125 4.6148 149.486 4.85769 148.724 4.85769C147.141 4.85769 146.136 3.91651 146.136 2.42884C146.136 0.971537 147.141 0 148.724 0C149.486 0 150.125 0.242885 150.582 0.667932Z" fill="#483A00"/>
<path d="M155.719 9.44213C155.719 8.22771 156.42 7.62049 157.638 7.62049C158.734 7.62049 159.465 8.16698 159.617 9.25996L159.709 9.86717H159.8C161.292 8.40987 163.028 7.19545 165.342 7.19545C169.027 7.19545 170.611 9.74573 170.611 14.0266V22.4061C170.611 23.8937 169.88 24.6224 168.388 24.6224C166.895 24.6224 166.134 23.8937 166.134 22.4061V14.5731C166.134 11.9317 165.403 11.0209 163.728 11.0209C162.358 11.0209 161.445 11.6888 160.196 12.9336V22.649C160.196 23.833 159.404 24.6224 158.217 24.6224H156.724C156.115 24.6224 155.719 24.2277 155.719 23.6205V9.44213Z" fill="#483A00"/>
<path d="M188.018 30.2695C186.404 31.3624 184.09 32 181.227 32C177.207 32 174.132 30.6338 174.132 27.6281C174.132 26.2011 174.954 24.9867 176.568 24.1063V23.9545C175.654 23.3776 175.015 22.4972 175.015 21.0702C175.015 19.8254 175.867 18.6414 176.903 17.9127V17.7913C175.715 16.9412 174.619 15.3321 174.619 13.3283C174.619 9.35104 177.877 7.19545 181.471 7.19545C182.476 7.19545 183.359 7.37761 184.09 7.62049H188.566C189.662 7.62049 190.211 8.16698 190.211 9.25996C190.211 10.3529 189.662 10.8994 188.566 10.8994H187.318C187.744 11.4763 188.079 12.4175 188.079 13.4801C188.079 17.3359 185.155 19.2486 181.471 19.2486C180.831 19.2486 180.039 19.1271 179.278 18.8539C178.852 19.2486 178.547 19.6129 178.547 20.3416C178.547 21.222 179.248 21.7078 181.227 21.7078H184.151C188.262 21.7078 190.515 22.9829 190.515 25.9583C190.515 27.6888 189.632 29.1765 188.018 30.2695ZM179.613 15.666C180.07 16.2125 180.74 16.4858 181.471 16.4858C182.232 16.4858 182.902 16.2125 183.389 15.666C183.876 15.1195 184.181 14.3302 184.181 13.3283C184.181 11.3548 182.993 10.2619 181.471 10.2619C179.979 10.2619 178.821 11.3548 178.821 13.3283C178.821 14.3302 179.126 15.1195 179.613 15.666ZM178.943 28.5693C179.644 28.9639 180.679 29.1461 181.897 29.1461C183.207 29.1461 184.272 28.8729 185.034 28.4175C185.795 27.9924 186.221 27.3852 186.221 26.7173C186.221 25.5028 185.216 25.1689 183.389 25.1689H181.288C180.283 25.1689 179.583 25.1082 178.943 24.9564C178.182 25.5636 177.847 26.2315 177.847 26.9602C177.847 27.6584 178.243 28.2049 178.943 28.5693Z" fill="#483A00"/>
<path d="M194.464 8.65275C195.56 7.74194 197.144 7.19545 199.093 7.19545C200.89 7.19545 202.412 7.74194 203.63 8.44023C204.544 9.04744 204.544 9.77609 203.874 10.6565C203.234 11.537 202.29 11.6281 201.346 11.0816C200.646 10.7476 199.946 10.5351 199.215 10.5351C197.662 10.5351 196.931 11.203 196.931 12.1746C196.931 13.4194 198.484 13.8748 200.311 14.5427C202.564 15.3928 205.062 16.5465 205.062 19.6736C205.062 21.1613 204.483 22.5275 203.326 23.4991C202.169 24.4402 200.494 25.0474 198.271 25.0474C196.535 25.0474 194.677 24.5009 193.124 23.5901C192.211 22.9829 192.15 22.1936 192.789 21.3131C193.459 20.3719 194.464 20.2808 195.439 20.9184C196.383 21.4042 197.357 21.7078 198.392 21.7078C200.098 21.7078 200.859 20.9791 200.859 19.9165C200.859 18.6414 199.093 18.0645 197.296 17.3662C195.134 16.5465 192.728 15.241 192.728 12.3871C192.728 10.8691 193.337 9.56357 194.464 8.65275Z" fill="#483A00"/>
</svg>
