<svg width="74" height="74" viewBox="0 0 74 74" fill="none" xmlns="http://www.w3.org/2000/svg">
<path d="M37.0005 55.5C39.2029 55.5 41.2256 56.2699 42.8141 57.555L37.0005 64.75L31.1865 57.555C32.7751 56.2699 34.7977 55.5 37.0005 55.5ZM8.65711 4.29639L63.1632 58.8025L58.8027 63.163L42.8317 47.1879C40.9983 46.5796 39.0379 46.25 37.0005 46.25C32.5969 46.25 28.5526 47.7886 25.3759 50.3576L21.5022 45.559C25.4365 42.3779 30.3687 40.3821 35.7557 40.1141L27.7509 32.1098C23.2877 33.3721 19.1986 35.5252 15.6875 38.3647L11.8124 33.5676C15.1068 30.903 18.832 28.7501 22.8672 27.2294L15.8228 20.1807C12.2989 21.8581 9.00528 23.9412 6.00236 26.3695L2.12598 21.5733C4.94453 19.2938 7.99081 17.2848 11.2253 15.5856L4.29663 8.6569L8.65711 4.29639ZM44.7097 31.7133L37.6677 24.6741L37.0002 24.6666C46.5422 24.6666 55.3056 28.001 62.1888 33.5679L58.3131 38.3647C54.4019 35.2015 49.7735 32.8905 44.7097 31.7133ZM37.0005 9.25007C50.2119 9.25007 62.3452 13.8663 71.8754 21.5738L67.9981 26.3695C59.5273 19.5194 48.743 15.4167 37.0005 15.4167C34.293 15.4167 31.6364 15.6349 29.0475 16.0544L23.8175 10.8252C28.043 9.79579 32.4578 9.25007 37.0005 9.25007Z" fill="#DDB305"/>
</svg>
