<svg width="50" height="50" viewBox="0 0 50 50" fill="none" xmlns="http://www.w3.org/2000/svg">
<rect width="50" height="50" rx="14" fill="#E96F36"/>
<path fill-rule="evenodd" clip-rule="evenodd" d="M29.32 15.4004H13.48C11.8894 15.4004 10.6 16.6898 10.6 18.2804V21.1604C12.9858 21.1604 14.92 23.0945 14.92 25.4804C14.92 27.8663 12.9858 29.8004 10.6 29.8004V32.6804C10.6 34.271 11.8894 35.5604 13.48 35.5604H29.32H36.52C38.1106 35.5604 39.4 34.271 39.4 32.6804V29.8004C37.0141 29.8004 35.08 27.8663 35.08 25.4804C35.08 23.0945 37.0141 21.1604 39.4 21.1604V18.2804C39.4 16.6898 38.1106 15.4004 36.52 15.4004H29.32ZM30.76 19.7204C30.76 18.9251 30.1153 18.2804 29.32 18.2804C28.5247 18.2804 27.88 18.9251 27.88 19.7204V22.6004C27.88 23.3957 28.5247 24.0404 29.32 24.0404C30.1153 24.0404 30.76 23.3957 30.76 22.6004V19.7204ZM30.76 28.3604C30.76 27.5651 30.1153 26.9204 29.32 26.9204C28.5247 26.9204 27.88 27.5651 27.88 28.3604V31.2404C27.88 32.0357 28.5247 32.6804 29.32 32.6804C30.1153 32.6804 30.76 32.0357 30.76 31.2404V28.3604Z" fill="white"/>
</svg>
