<svg width="50" height="50" viewBox="0 0 50 50" fill="none" xmlns="http://www.w3.org/2000/svg">
<rect width="50" height="50" rx="14" fill="#20D0EF"/>
<path fill-rule="evenodd" clip-rule="evenodd" d="M15.4 15.4002C15.4 13.6329 16.8327 12.2002 18.6 12.2002H25.9373C26.786 12.2002 27.5999 12.5373 28.2 13.1375L33.6628 18.6002C34.2629 19.2003 34.6 20.0142 34.6 20.8629V34.6002C34.6 36.3675 33.1673 37.8002 31.4 37.8002H18.6C16.8327 37.8002 15.4 36.3675 15.4 34.6002V15.4002ZM18.6 25.0002C18.6 24.1165 19.3164 23.4002 20.2 23.4002H29.8C30.6837 23.4002 31.4 24.1165 31.4 25.0002C31.4 25.8839 30.6837 26.6002 29.8 26.6002H20.2C19.3164 26.6002 18.6 25.8839 18.6 25.0002ZM20.2 29.8002C19.3164 29.8002 18.6 30.5165 18.6 31.4002C18.6 32.2838 19.3164 33.0002 20.2 33.0002H29.8C30.6837 33.0002 31.4 32.2838 31.4 31.4002C31.4 30.5165 30.6837 29.8002 29.8 29.8002H20.2Z" fill="white"/>
</svg>
