<svg width="50" height="50" viewBox="0 0 50 50" fill="none" xmlns="http://www.w3.org/2000/svg">
<rect width="50" height="50" rx="14" fill="#06C756"/>
<path d="M40.9985 23.3166C40.9985 16.1575 33.8214 10.333 24.9992 10.333C16.1771 10.333 9 16.1575 9 23.3166C9 29.7349 14.6925 35.1094 22.3809 36.1262C22.9013 36.2386 23.6106 36.4696 23.7906 36.9149C23.9525 37.3198 23.8955 37.9527 23.8431 38.3621C23.8431 38.3621 23.6556 39.4913 23.6151 39.7312C23.5446 40.1361 23.2942 41.3133 25.0007 40.5935C26.7088 39.8737 34.2143 35.1679 37.5704 31.3049C39.8888 28.7616 41 26.1823 41 23.3166H40.9985Z" fill="white"/>
<path d="M35.6753 27.451H31.181C31.0115 27.451 30.8751 27.3145 30.8751 27.1451V20.1629C30.8751 19.9935 31.0115 19.857 31.181 19.857H35.6753C35.8433 19.857 35.9812 19.995 35.9812 20.1629V21.2981C35.9812 21.4676 35.8448 21.604 35.6753 21.604H32.6206V22.7827H35.6753C35.8433 22.7827 35.9812 22.9207 35.9812 23.0886V24.2238C35.9812 24.3933 35.8448 24.5298 35.6753 24.5298H32.6206V25.7084H35.6753C35.8433 25.7084 35.9812 25.8464 35.9812 26.0144V27.1496C35.9812 27.319 35.8448 27.4555 35.6753 27.4555V27.451Z" fill="#06C756"/>
<path d="M19.0492 27.451C19.2171 27.451 19.3551 27.3145 19.3551 27.145V26.0098C19.3551 25.8419 19.2171 25.7039 19.0492 25.7039H15.9945V20.1614C15.9945 19.9934 15.8565 19.8555 15.6886 19.8555H14.5534C14.3839 19.8555 14.2474 19.9919 14.2474 20.1614V27.145C14.2474 27.3145 14.3839 27.451 14.5534 27.451H19.0492Z" fill="#06C756"/>
<path d="M21.7545 19.857H20.6208C20.4519 19.857 20.3149 19.994 20.3149 20.1629V27.1451C20.3149 27.314 20.4519 27.451 20.6208 27.451H21.7545C21.9235 27.451 22.0605 27.314 22.0605 27.1451V20.1629C22.0605 19.994 21.9235 19.857 21.7545 19.857Z" fill="#06C756"/>
<path d="M29.479 19.857H28.3438C28.1743 19.857 28.0378 19.9935 28.0378 20.1629V24.3093L24.8437 19.995C24.8362 19.9845 24.8272 19.974 24.8197 19.9635C24.8137 19.9575 24.8062 19.9485 24.8002 19.9425C24.7987 19.941 24.7957 19.9395 24.7942 19.938C24.7882 19.9335 24.7837 19.929 24.7777 19.9245C24.7747 19.923 24.7717 19.92 24.7687 19.9185C24.7642 19.914 24.7582 19.911 24.7522 19.908C24.7492 19.9065 24.7462 19.9035 24.7432 19.902C24.7372 19.899 24.7327 19.896 24.7267 19.893C24.7237 19.8915 24.7207 19.89 24.7177 19.8885C24.7117 19.8855 24.7057 19.8825 24.6997 19.881C24.6967 19.881 24.6937 19.878 24.6892 19.878C24.6832 19.8765 24.6772 19.8735 24.6712 19.872C24.6682 19.872 24.6637 19.8705 24.6607 19.869C24.6547 19.869 24.6487 19.866 24.6427 19.8645C24.6382 19.8645 24.6337 19.8645 24.6292 19.863C24.6232 19.863 24.6187 19.8615 24.6127 19.8615C24.6068 19.8615 24.6023 19.8615 24.5963 19.8615C24.5933 19.8615 24.5888 19.8615 24.5858 19.8615H23.4581C23.2901 19.8615 23.1521 19.998 23.1521 20.1674V27.1496C23.1521 27.3175 23.2886 27.4555 23.4581 27.4555H24.5933C24.7627 27.4555 24.8992 27.319 24.8992 27.1496V23.0032L28.0978 27.3235C28.1203 27.355 28.1473 27.3805 28.1773 27.4C28.1773 27.4 28.1803 27.4015 28.1803 27.403C28.1863 27.4075 28.1923 27.4105 28.1998 27.415C28.2028 27.4165 28.2058 27.418 28.2088 27.4195C28.2133 27.4225 28.2193 27.424 28.2238 27.427C28.2283 27.43 28.2343 27.4315 28.2388 27.433C28.2418 27.433 28.2448 27.436 28.2478 27.436C28.2553 27.439 28.2613 27.4405 28.2688 27.442C28.2688 27.442 28.2718 27.442 28.2733 27.442C28.2988 27.448 28.3258 27.4525 28.3528 27.4525H29.4805C29.6484 27.4525 29.7864 27.316 29.7864 27.1466V20.1644C29.7864 19.9965 29.6484 19.857 29.479 19.857Z" fill="#06C756"/>
</svg>
