<svg width="50" height="50" viewBox="0 0 50 50" fill="none" xmlns="http://www.w3.org/2000/svg">
<rect width="50" height="50" rx="14" fill="#408BEB"/>
<path d="M21.8 23.3998C24.4509 23.3998 26.6 21.2508 26.6 18.5998C26.6 15.9488 24.4509 13.7998 21.8 13.7998C19.149 13.7998 17 15.9488 17 18.5998C17 21.2508 19.149 23.3998 21.8 23.3998Z" fill="white"/>
<path d="M21.8 26.5998C26.7647 26.5998 30.8493 30.3686 31.3487 35.2014C31.4054 35.7507 30.9522 36.1998 30.4 36.1998H13.2C12.6477 36.1998 12.1945 35.7507 12.2512 35.2014C12.7506 30.3686 16.8352 26.5998 21.8 26.5998Z" fill="white"/>
<path d="M34.5999 20.1998C34.5999 19.3161 33.8836 18.5998 33 18.5998C32.1163 18.5998 31.4 19.3161 31.4 20.1998V21.7998H29.7999C28.9163 21.7998 28.2 22.5161 28.2 23.3998C28.2 24.2835 28.9163 24.9998 29.7999 24.9998H31.4V26.5998C31.4 27.4835 32.1163 28.1998 33 28.1998C33.8836 28.1998 34.5999 27.4835 34.5999 26.5998V24.9998H36.1999C37.0836 24.9998 37.7999 24.2835 37.7999 23.3998C37.7999 22.5161 37.0836 21.7998 36.1999 21.7998H34.5999V20.1998Z" fill="white"/>
</svg>
