<svg width="50" height="50" viewBox="0 0 50 50" fill="none" xmlns="http://www.w3.org/2000/svg">
<rect width="50" height="50" rx="14" fill="#DFAE19"/>
<path fill-rule="evenodd" clip-rule="evenodd" d="M29.0249 35.4755V36.5642C29.0249 36.9077 29.3035 37.1862 29.647 37.1862H32.5511C32.7748 37.1862 32.9812 37.0661 33.0918 36.8717L37.2692 29.5252C37.3691 29.3496 37.5231 29.2112 37.7083 29.1307L40.0649 28.1061C40.6327 27.8592 41 27.299 41 26.6799V21.8419C41 21.3688 40.6458 20.9705 40.1759 20.9152L38.698 20.7413C38.4773 20.7154 38.2732 20.6116 38.1223 20.4486L34.9238 16.9942C34.6515 16.7001 34.5974 16.2651 34.7893 15.9134L35.6609 14.3154C35.9195 13.8413 35.4925 13.2854 34.9677 13.4131L30.5801 14.4803C21.3735 13.753 16.7458 15.1211 13.0064 20.7011L11.1073 19.3085C10.9144 19.167 10.6398 19.2873 10.6216 19.5259C10.5377 20.6296 10.6641 21.5016 11.6067 23.656C10.0745 27.1653 11.5982 30.0568 14.039 34.6884C14.4498 35.4679 14.8866 36.2968 15.3392 37.1862H18.6051C18.9487 37.1862 19.2272 36.9077 19.2272 36.5642V35.4755C19.2272 35.132 19.5057 34.8534 19.8493 34.8534H28.4029C28.7464 34.8534 29.0249 35.132 29.0249 35.4755ZM20.4283 20.7091C21.2441 19.984 21.9645 19.5936 22.8264 19.3964C23.7176 19.1924 24.8096 19.183 26.398 19.3143C26.8204 19.3492 27.1911 19.035 27.226 18.6126C27.2609 18.1901 26.9468 17.8194 26.5244 17.7845C24.9027 17.6505 23.6155 17.6412 22.484 17.9001C21.3231 18.1657 20.3772 18.7009 19.4086 19.5618C19.0917 19.8434 19.0632 20.3285 19.3448 20.6454C19.6264 20.9622 20.1115 20.9907 20.4283 20.7091Z" fill="white"/>
</svg>
