<svg width="72" height="76" viewBox="0 0 72 76" fill="none" xmlns="http://www.w3.org/2000/svg">
<path d="M6.61577 52.0089C19.7155 63.3752 52.2756 63.3752 65.3753 52.0427C70.8344 76.2413 -1.35753 71.2784 6.61577 52.0089Z" fill="#F66760"/>
<path d="M52.4657 0.936214C58.3593 0.936214 61.8645 14.5262 61.961 14.9046C61.9633 14.9138 61.965 14.916 61.969 14.9212L61.973 14.9265C62.8852 16.1885 64.0522 18.3846 65.1639 21.1642C71.9281 26.3646 74.243 40.0881 65.5654 52.0427C52.4657 63.3753 19.9056 63.3753 6.80594 52.0089C-4.5552 38.6122 3.02725 19.0628 10.3596 14.9063C10.3914 14.8882 10.4124 14.8629 10.4218 14.8267C10.6629 13.8988 14.1423 0.902435 19.9056 0.902435C23.8258 0.902435 30.1486 9.16406 30.6774 9.8642C30.7024 9.89736 30.7368 9.91135 30.7776 9.91135H41.6196C41.6601 9.91135 41.6947 9.89697 41.7197 9.86406C42.3998 8.96749 48.6006 0.936214 52.4657 0.936214Z" fill="#FEE719"/>
<path d="M42.1181 67.0828C42.1181 70.4046 39.4243 73.0975 36.1013 73.0975C32.7782 73.0975 30.0844 70.4046 30.0844 67.0828C30.0844 63.761 32.7782 61.0682 36.1013 61.0682C39.4243 61.0682 42.1181 63.761 42.1181 67.0828Z" fill="#FEE719"/>
<path fill-rule="evenodd" clip-rule="evenodd" d="M31.0872 40.7588C31.641 40.7588 32.09 41.2077 32.09 41.7616C32.09 43.6423 33.8373 45.3559 36.2396 45.3559C38.6418 45.3559 40.3891 43.6423 40.3891 41.7616C40.3891 41.2077 40.8381 40.7588 41.3919 40.7588C41.9458 40.7588 42.3948 41.2077 42.3948 41.7616C42.3948 44.9587 39.5284 47.3614 36.2396 47.3614C32.9507 47.3614 30.0844 44.9587 30.0844 41.7616C30.0844 41.2077 30.5333 40.7588 31.0872 40.7588Z" fill="#483A00"/>
<path fill-rule="evenodd" clip-rule="evenodd" d="M29.4716 29.023C30.0016 29.1839 30.3008 29.7439 30.14 30.2738C30.0153 30.6845 30.1097 30.9903 30.3298 31.2427C30.5785 31.5278 31.0322 31.7811 31.6336 31.869C32.8051 32.0402 34.3046 31.5478 35.1336 29.8382C35.525 29.0311 36.6154 28.9404 37.1537 29.6143C38.3043 31.0545 39.2049 31.6678 39.8344 31.8848C40.4075 32.0824 40.8035 31.9712 41.1151 31.763C41.4705 31.5254 41.7642 31.1201 41.9499 30.7069C42.0403 30.5056 42.0899 30.3355 42.1096 30.2277L42.1105 30.2228C42.0085 29.8101 42.1785 29.3617 42.5603 29.1276C43.0325 28.8382 43.6499 28.9864 43.9394 29.4586C44.0992 29.7193 44.1195 29.9878 44.123 30.1205C44.1274 30.2827 44.109 30.4436 44.0825 30.5886C44.029 30.8812 43.9242 31.2063 43.7793 31.5288C43.4943 32.1632 42.9932 32.92 42.2296 33.4304C41.4221 33.97 40.3749 34.1925 39.1807 33.7808C38.267 33.4659 37.3191 32.7985 36.3261 31.7278C35.0096 33.5004 33.024 34.099 31.3436 33.8534C30.3753 33.7119 29.4458 33.2805 28.8183 32.5609C28.1622 31.8087 27.8873 30.7899 28.2208 29.6913C28.3816 29.1614 28.9417 28.8622 29.4716 29.023Z" fill="#483A00"/>
<path d="M35.463 30.3784C35.9016 30.7685 36.5637 30.7657 36.9991 30.3719L38.9789 28.5812C39.7615 27.8734 39.2578 26.5736 38.2027 26.5781L34.2288 26.595C33.1737 26.5995 32.6806 27.9036 33.4689 28.6047L35.463 30.3784Z" fill="#483A00"/>
<path fill-rule="evenodd" clip-rule="evenodd" d="M22.1359 20.859C22.1904 20.3079 22.6814 19.9053 23.2326 19.9598C24.8663 20.1215 26.1998 20.3305 27.4973 20.7939C28.8029 21.2602 30.0181 21.9642 31.4568 23.0514C31.8986 23.3853 31.9861 24.0142 31.6521 24.456C31.3182 24.8978 30.6893 24.9853 30.2475 24.6514C28.9137 23.6434 27.8786 23.0597 26.8227 22.6826C25.7585 22.3025 24.6191 22.1123 23.0351 21.9556C22.4839 21.9011 22.0814 21.4101 22.1359 20.859Z" fill="#483A00"/>
<path fill-rule="evenodd" clip-rule="evenodd" d="M49.3277 20.859C49.2731 20.3079 48.7822 19.9053 48.231 19.9598C46.5973 20.1215 45.2637 20.3305 43.9663 20.7939C42.6606 21.2602 41.4454 21.9642 40.0068 23.0514C39.565 23.3853 39.4775 24.0142 39.8114 24.456C40.1454 24.8978 40.7743 24.9853 41.2161 24.6514C42.5498 23.6434 43.585 23.0597 44.6409 22.6826C45.7051 22.3025 46.8445 22.1123 48.4285 21.9556C48.9796 21.9011 49.3822 21.4101 49.3277 20.859Z" fill="#483A00"/>
<path fill-rule="evenodd" clip-rule="evenodd" d="M15.0973 26.6471C15.2782 26.1237 15.8491 25.8459 16.3726 26.0267C17.6173 26.4567 18.5502 26.717 19.5005 26.8419C20.4466 26.9661 21.4537 26.9616 22.8418 26.815C23.3926 26.7568 23.8862 27.1561 23.9444 27.7069C24.0026 28.2576 23.6032 28.7512 23.0525 28.8094C21.5652 28.9665 20.3906 28.9815 19.2393 28.8303C18.0921 28.6796 17.0117 28.3693 15.7178 27.9224C15.1943 27.7415 14.9165 27.1706 15.0973 26.6471ZM23.9623 32.1054C24.1427 32.629 23.8646 33.1998 23.341 33.3802C21.9241 33.8685 20.7817 34.1479 19.6261 34.2599C18.4746 34.3714 17.3538 34.3122 15.9955 34.1678C15.4447 34.1092 15.0458 33.6153 15.1043 33.0646C15.1629 32.5139 15.6568 32.1149 16.2075 32.1735C17.5136 32.3124 18.4791 32.3561 19.4327 32.2637C20.3824 32.1717 21.3642 31.9402 22.6874 31.4841C23.211 31.3037 23.7818 31.5818 23.9623 32.1054Z" fill="#483A00"/>
<path fill-rule="evenodd" clip-rule="evenodd" d="M56.9319 26.6472C57.1128 27.1706 56.835 27.7416 56.3115 27.9224C55.0176 28.3693 53.9372 28.6796 52.79 28.8303C51.6387 28.9816 50.4641 28.9665 48.9768 28.8094C48.426 28.7513 48.0267 28.2576 48.0849 27.7069C48.1431 27.1561 48.6367 26.7568 49.1875 26.815C50.5756 26.9616 51.5827 26.9662 52.5288 26.8419C53.4791 26.7171 54.412 26.4567 55.6567 26.0268C56.1801 25.8459 56.7511 26.1237 56.9319 26.6472ZM48.0673 32.1053C48.2478 31.5817 48.8185 31.3036 49.3422 31.484C50.6654 31.9401 51.6472 32.1716 52.5969 32.2636C53.5505 32.356 54.516 32.3123 55.822 32.1734C56.3728 32.1148 56.8667 32.5138 56.9253 33.0645C56.9838 33.6152 56.5848 34.1091 56.0341 34.1677C54.6758 34.3121 53.555 34.3713 52.4035 34.2598C51.2479 34.1478 50.1055 33.8684 48.6886 33.3801C48.165 33.1997 47.8868 32.6289 48.0673 32.1053Z" fill="#483A00"/>
<path d="M16.5427 13.9156C14.6654 10.6879 18.5763 6.46118 20.3753 6.23063C23.5822 5.81966 27.4984 10.6042 26.0852 12.4555C25.4595 13.2752 17.9424 16.3223 16.5427 13.9156Z" fill="#483A00"/>
<path d="M56.2499 13.9158C58.1271 10.6881 54.2162 6.46136 52.4172 6.23081C49.2103 5.81984 45.2941 10.6044 46.7073 12.4556C47.3331 13.2754 54.8501 16.3225 56.2499 13.9158Z" fill="#483A00"/>
<path d="M66.4106 52.2725C66.3395 52.3728 66.2676 52.4729 66.195 52.5729L66.1339 52.6572L66.0551 52.7253C65.6524 53.0737 65.2324 53.4115 64.7963 53.7386C64.9818 55.8769 64.4593 57.7058 63.4063 59.2768C62.0966 61.231 59.9179 62.8555 57.0717 64.1326C53.2096 65.8657 48.2421 66.9036 42.917 67.2965C42.8977 67.9321 42.7927 68.5461 42.613 69.1273C48.2564 68.7486 53.6051 67.6665 57.8107 65.7794C60.8402 64.42 63.3436 62.6126 64.9058 60.2817C66.4171 58.0268 67.0028 55.3463 66.4106 52.2725Z" fill="#483A00"/>
<path d="M32.1604 61.3282C21.9839 60.7476 12.1294 57.9104 6.11364 52.6906L6.06147 52.6453L6.0168 52.5927C5.89482 52.4488 5.77495 52.3043 5.65717 52.1592C4.77813 54.6487 5.10423 56.9672 6.37387 59.0115C7.6973 61.1424 10.0059 62.917 12.8607 64.3527C17.2331 66.5517 23.0853 68.0547 29.2915 68.7809C29.1543 68.2376 29.0815 67.6688 29.0815 67.0829C29.0815 67.0345 29.082 66.9862 29.083 66.938C23.1881 66.2121 17.7143 64.7733 13.6717 62.7402C10.965 61.379 8.98438 59.7935 7.90728 58.0592C7.0583 56.6923 6.74608 55.198 7.1303 53.5409C13.2092 58.2231 22.5413 60.7838 32.1585 61.3294L32.1604 61.3282Z" fill="#483A00"/>
<path d="M36.0852 59.6355C36.0426 59.6355 35.9999 59.6354 35.9573 59.6353C24.6727 59.6139 13.5656 56.7876 7.27256 51.3273L5.84709 51.6639C5.77848 51.8297 5.7152 51.9948 5.65717 52.1592C5.77495 52.3043 5.89482 52.4488 6.0168 52.5927L6.06147 52.6453L6.11364 52.6906C12.1294 57.9104 21.9839 60.7476 32.1604 61.3282C33.2592 60.5939 34.58 60.1658 36.0009 60.1658C37.4281 60.1658 38.7545 60.5978 39.8562 61.3381C49.4084 60.8183 58.6899 58.3125 64.7949 53.7216L64.7963 53.7386C65.2324 53.4115 65.6524 53.0737 66.0551 52.7253L66.1339 52.6572L66.195 52.5729C66.2676 52.4729 66.3395 52.3728 66.4106 52.2725C66.3832 52.1306 66.3533 51.9878 66.3209 51.8441L64.85 51.3602C64.8449 51.3646 64.8398 51.3691 64.8347 51.3735C64.8216 51.3916 64.8086 51.4098 64.7955 51.4279C58.4695 56.8443 47.3587 59.6396 36.0852 59.6355Z" fill="#483A00"/>
<path fill-rule="evenodd" clip-rule="evenodd" d="M11.1947 15.0529C11.3117 14.6028 12.2243 11.1913 13.8052 7.90818C14.5977 6.26244 15.5346 4.6993 16.588 3.56047C17.6483 2.41418 18.7237 1.80497 19.8048 1.80497C20.504 1.80497 21.445 2.19062 22.559 2.95001C23.6446 3.69001 24.7734 4.70013 25.8219 5.75656C27.9146 7.86505 29.598 10.0661 29.8558 10.4073L29.8564 10.4082L30.1614 10.8139H41.5188C41.54 10.8139 41.5615 10.8132 41.5831 10.8119L41.5873 10.8116L42.3379 10.4095L42.3387 10.4085C42.6718 9.96943 44.3622 7.77714 46.436 5.70188C47.475 4.66213 48.5877 3.67464 49.6561 2.95302C50.7519 2.21287 51.6765 1.83875 52.3649 1.83875C53.4708 1.83875 54.5705 2.47652 55.6523 3.67133C56.7257 4.85689 57.6746 6.47724 58.4702 8.1636C60.058 11.5294 60.9416 14.9551 60.9856 15.1276C60.9945 15.1623 61.0159 15.2405 61.0628 15.3307C61.0862 15.3757 61.1095 15.4116 61.1277 15.4374C61.1356 15.4486 61.1423 15.4576 61.1465 15.4632C61.998 16.6439 63.1303 18.7619 64.2251 21.4993L64.317 21.7289L64.513 21.8797C70.7593 26.682 73.1905 39.732 64.8347 51.3735L64.85 51.3602L66.3209 51.8441C66.3533 51.9878 66.3832 52.1306 66.4106 52.2725C74.9589 40.2184 72.8511 26.2418 65.8102 20.6033C64.7453 17.9772 63.6224 15.8444 62.6934 14.5237C62.4921 13.7672 61.5994 10.5662 60.1027 7.39353C59.2732 5.63509 58.2348 3.83429 56.9904 2.4599C55.7544 1.09476 54.2059 0.0337784 52.3649 0.0337784C51.1208 0.0337784 49.8209 0.663569 48.6457 1.4573C47.4431 2.26956 46.2385 3.34593 45.1591 4.42607C43.3122 6.27427 41.7664 8.20054 41.138 9.00892H31.058C30.4567 8.23373 28.9345 6.33033 27.1031 4.48508C26.0148 3.38858 24.7948 2.28954 23.5757 1.4586C22.3852 0.647055 21.0658 0 19.8048 0C18.0043 0 16.4835 1.01533 15.2629 2.33485C14.0355 3.66183 13.0068 5.40578 12.1789 7.12511C10.7243 10.1458 9.81667 13.2461 9.53088 14.2884C7.61407 15.467 5.77189 17.5347 4.23711 20.1114C2.61842 22.8291 1.30179 26.1788 0.586324 29.8185C-0.814626 36.9455 0.0765843 45.2813 5.65717 52.1592C5.7152 51.9948 5.77848 51.8297 5.84709 51.6639L7.27256 51.3273C13.5656 56.7876 24.6727 59.6139 35.9573 59.6353C24.7121 59.61 13.6464 56.7993 7.34881 51.3724C1.92885 44.9441 1.00769 37.0334 2.35749 30.1666C3.03404 26.7249 4.27776 23.5706 5.78795 21.0351C7.3063 18.4858 9.05476 16.6268 10.7025 15.6922L10.7039 15.6915L11.0858 15.4767L11.1947 15.0529ZM62.5938 14.3845C62.5834 14.3701 62.578 14.3638 62.582 14.369L62.5892 14.3782L62.5938 14.3845Z" fill="#483A00"/>
<path d="M43 67.9977C43 71.8625 39.866 74.9955 36 74.9955C32.134 74.9955 29 71.8625 29 67.9977C29 64.133 32.134 61 36 61C39.866 61 43 64.133 43 67.9977Z" fill="#FEE719"/>
<path fill-rule="evenodd" clip-rule="evenodd" d="M35.9999 61.9C32.6307 61.9 29.8999 64.6304 29.8999 67.9978C29.8999 71.3652 32.6307 74.0955 35.9999 74.0955C39.3691 74.0955 42.0999 71.3652 42.0999 67.9978C42.0999 64.6304 39.3691 61.9 35.9999 61.9ZM28.0999 67.9978C28.0999 63.6357 31.6371 60.1 35.9999 60.1C40.3627 60.1 43.8999 63.6357 43.8999 67.9978C43.8999 72.3599 40.3627 75.8955 35.9999 75.8955C31.6371 75.8955 28.0999 72.3599 28.0999 67.9978Z" fill="#483A00"/>
<path fill-rule="evenodd" clip-rule="evenodd" d="M36.2161 63.0158C36.7131 63.0158 37.1161 63.4187 37.1161 63.9158V64.593H38.3806C38.8776 64.593 39.2806 64.9959 39.2806 65.493C39.2806 65.99 38.8776 66.393 38.3806 66.393L34.4993 66.3929C34.4391 66.3929 34.3805 66.4121 34.332 66.4477C34.1778 66.5607 34.1778 66.7909 34.332 66.904C34.3805 66.9395 34.4391 66.9587 34.4993 66.9587H37.5564C37.9994 66.9587 38.4308 67.0999 38.7881 67.3619C39.9231 68.1941 39.9231 69.8891 38.7881 70.7214C38.4308 70.9833 37.9994 71.1245 37.5564 71.1245L37.1161 71.1245V71.8017C37.1161 72.2988 36.7131 72.7017 36.2161 72.7017C35.719 72.7017 35.3161 72.2988 35.3161 71.8017V71.1245H33.6751C33.1781 71.1245 32.7751 70.7216 32.7751 70.2245C32.7751 69.7275 33.1781 69.3245 33.6751 69.3245L37.5564 69.3245C37.6166 69.3245 37.6752 69.3053 37.7237 69.2698C37.8779 69.1567 37.8779 68.9265 37.7237 68.8135C37.6752 68.7779 37.6166 68.7587 37.5564 68.7587H34.4993C34.0563 68.7587 33.6249 68.6175 33.2676 68.3556C32.1326 67.5234 32.1326 65.8283 33.2676 64.9961C33.6249 64.7342 34.0563 64.5929 34.4993 64.5929L35.3161 64.5929V63.9158C35.3161 63.4187 35.719 63.0158 36.2161 63.0158Z" fill="#483A00"/>
</svg>
