<svg width="24" height="24" viewBox="0 0 24 24" fill="none" xmlns="http://www.w3.org/2000/svg">
<g clip-path="url(#clip0_4787_10633)">
<path d="M0.5 1.5C0.5 0.671574 1.17157 0 2 0H21.8C22.6284 0 23.3 0.671573 23.3 1.5V16.462C23.3 16.9945 23.0177 17.4871 22.5582 17.7563L12.6582 23.5558C12.1899 23.8301 11.6101 23.8301 11.1418 23.5558L1.2418 17.7563C0.782324 17.4871 0.5 16.9945 0.5 16.462V1.5Z" fill="url(#paint0_linear_4787_10633)"/>
<g filter="url(#filter0_i_4787_10633)">
<path d="M3.95007 3.89941C3.95007 3.4852 4.28586 3.14941 4.70007 3.14941H19.1001C19.5143 3.14941 19.8501 3.4852 19.8501 3.89941V14.7566C19.8501 15.0162 19.7158 15.2574 19.4951 15.3941L12.2951 19.8547C12.0531 20.0046 11.7471 20.0046 11.5051 19.8547L4.30509 15.3941C4.08437 15.2574 3.95007 15.0162 3.95007 14.7566V3.89941Z" fill="url(#paint1_radial_4787_10633)"/>
<path d="M3.95007 3.89941C3.95007 3.4852 4.28586 3.14941 4.70007 3.14941H19.1001C19.5143 3.14941 19.8501 3.4852 19.8501 3.89941V14.7566C19.8501 15.0162 19.7158 15.2574 19.4951 15.3941L12.2951 19.8547C12.0531 20.0046 11.7471 20.0046 11.5051 19.8547L4.30509 15.3941C4.08437 15.2574 3.95007 15.0162 3.95007 14.7566V3.89941Z" fill="url(#paint2_radial_4787_10633)" fill-opacity="0.29"/>
<path d="M3.95007 3.89941C3.95007 3.4852 4.28586 3.14941 4.70007 3.14941H19.1001C19.5143 3.14941 19.8501 3.4852 19.8501 3.89941V14.7566C19.8501 15.0162 19.7158 15.2574 19.4951 15.3941L12.2951 19.8547C12.0531 20.0046 11.7471 20.0046 11.5051 19.8547L4.30509 15.3941C4.08437 15.2574 3.95007 15.0162 3.95007 14.7566V3.89941Z" fill="url(#paint3_linear_4787_10633)" fill-opacity="0.2" style="mix-blend-mode:multiply"/>
</g>
<path d="M4.70007 2.48191C3.91721 2.48191 3.28257 3.11655 3.28257 3.89941V14.7566C3.28257 15.2473 3.53639 15.7031 3.95355 15.9616L11.1536 20.4221C11.6109 20.7055 12.1892 20.7055 12.6466 20.4221L19.8466 15.9616C20.2638 15.7031 20.5176 15.2473 20.5176 14.7566V3.89941C20.5176 3.11655 19.8829 2.48191 19.1001 2.48191H4.70007Z" stroke="url(#paint4_linear_4787_10633)" stroke-width="1.335"/>
<path opacity="0.74" d="M4.5501 1.72188C3.43172 1.72188 2.5251 2.6285 2.5251 3.74688V14.7487C2.5251 15.4497 2.88764 16.1009 3.48353 16.4701L10.8335 21.0242C11.4869 21.4291 12.3133 21.4291 12.9667 21.0242L20.3167 16.4701C20.9126 16.1009 21.2751 15.4497 21.2751 14.7487V3.74687C21.2751 2.6285 20.3685 1.72188 19.2501 1.72188H4.5501Z" stroke="url(#paint5_linear_4787_10633)" stroke-width="0.15"/>
<mask id="mask0_4787_10633" style="mask-type:alpha" maskUnits="userSpaceOnUse" x="3" y="3" width="17" height="18">
<path d="M3.94995 3.14941H19.8499V15.1742L11.9 20.0994L3.94995 15.1742V3.14941Z" fill="#D9D9D9"/>
</mask>
<g mask="url(#mask0_4787_10633)">
<path d="M13.0983 14.75H11.6358V8.315L10.0046 9.7325V8.1575L11.6358 6.74H13.0983V14.75Z" fill="#F5F5F5"/>
</g>
</g>
<defs>
<filter id="filter0_i_4787_10633" x="2.61511" y="1.81445" width="18.5699" height="19.4873" filterUnits="userSpaceOnUse" color-interpolation-filters="sRGB">
<feFlood flood-opacity="0" result="BackgroundImageFix"/>
<feBlend mode="normal" in="SourceGraphic" in2="BackgroundImageFix" result="shape"/>
<feColorMatrix in="SourceAlpha" type="matrix" values="0 0 0 0 0 0 0 0 0 0 0 0 0 0 0 0 0 0 127 0" result="hardAlpha"/>
<feOffset/>
<feGaussianBlur stdDeviation="3.75469"/>
<feComposite in2="hardAlpha" operator="arithmetic" k2="-1" k3="1"/>
<feColorMatrix type="matrix" values="0 0 0 0 0.7875 0 0 0 0 0.62959 0 0 0 0 0.246094 0 0 0 1 0"/>
<feBlend mode="normal" in2="shape" result="effect1_innerShadow_4787_10633"/>
</filter>
<linearGradient id="paint0_linear_4787_10633" x1="7.26875" y1="0.631579" x2="16.9048" y2="21.0761" gradientUnits="userSpaceOnUse">
<stop stop-color="#FDF0D5"/>
<stop offset="1" stop-color="#F8D169"/>
</linearGradient>
<radialGradient id="paint1_radial_4787_10633" cx="0" cy="0" r="1" gradientUnits="userSpaceOnUse" gradientTransform="translate(11.9001 11.9994) rotate(90) scale(13.7856 13.0846)">
<stop stop-color="#FECC2B"/>
<stop offset="1" stop-color="#F1A420"/>
</radialGradient>
<radialGradient id="paint2_radial_4787_10633" cx="0" cy="0" r="1" gradientUnits="userSpaceOnUse" gradientTransform="translate(8.18469 8.76576) rotate(-45.741) scale(8.91131 4.7299)">
<stop stop-color="white"/>
<stop offset="1" stop-color="white" stop-opacity="0"/>
</radialGradient>
<linearGradient id="paint3_linear_4787_10633" x1="11.9001" y1="3.14941" x2="11.9001" y2="20.8494" gradientUnits="userSpaceOnUse">
<stop stop-color="#765913" stop-opacity="0"/>
<stop offset="1" stop-color="#816011"/>
</linearGradient>
<linearGradient id="paint4_linear_4787_10633" x1="11.9001" y1="3.14941" x2="11.9001" y2="20.8494" gradientUnits="userSpaceOnUse">
<stop stop-color="#F6CD62"/>
<stop offset="1" stop-color="#FFE9B8"/>
</linearGradient>
<linearGradient id="paint5_linear_4787_10633" x1="6.71649" y1="1.11412" x2="14.6539" y2="21.3196" gradientUnits="userSpaceOnUse">
<stop stop-color="#FBFCFF"/>
<stop offset="1" stop-color="#D4D6D9"/>
</linearGradient>
<clipPath id="clip0_4787_10633">
<rect width="24" height="24" fill="white"/>
</clipPath>
</defs>
</svg>
