<svg width="48" height="48" viewBox="0 0 48 48" fill="none" xmlns="http://www.w3.org/2000/svg">
<g opacity="0.3">
<path fill-rule="evenodd" clip-rule="evenodd" d="M24 43.2008C34.6039 43.2008 43.2 34.6046 43.2 24.0008C43.2 13.3969 34.6039 4.80078 24 4.80078C13.3962 4.80078 4.80005 13.3969 4.80005 24.0008C4.80005 34.6046 13.3962 43.2008 24 43.2008ZM18.0098 28.0062C16.9053 28.0062 16.0098 28.9016 16.0098 30.0062C16.0098 31.1107 16.9053 32.0062 18.0098 32.0062H22.0099V34.0062C22.0099 35.1107 22.9053 36.0062 24.0099 36.0062C25.1144 36.0062 26.0099 35.1107 26.0099 34.0062V32.0062H28.0099C30.7713 32.0062 33.0099 29.7678 33.0099 27.0062C33.0099 24.2448 30.7713 22.0062 28.0099 22.0062H20.0099C19.4575 22.0062 19.0098 21.5586 19.0098 21.0062C19.0098 20.454 19.4575 20.0062 20.0099 20.0062H30.0099C31.1145 20.0062 32.0099 19.1108 32.0099 18.0062C32.0099 16.9017 31.1145 16.0063 30.0099 16.0063H26.0099V14.0063C26.0099 12.9017 25.1144 12.0063 24.0099 12.0063C22.9053 12.0063 22.0099 12.9017 22.0099 14.0063V16.0063H20.0099C17.2484 16.0063 15.0098 18.2448 15.0098 21.0062C15.0098 23.7678 17.2484 26.0062 20.0099 26.0062H28.0099C28.5621 26.0062 29.0099 26.454 29.0099 27.0062C29.0099 27.5586 28.5621 28.0062 28.0099 28.0062H18.0098Z" fill="url(#paint0_linear_4787_10056)"/>
</g>
<defs>
<linearGradient id="paint0_linear_4787_10056" x1="24" y1="43.2008" x2="24" y2="4.80078" gradientUnits="userSpaceOnUse">
<stop stop-color="#FFCD00" stop-opacity="0.12"/>
<stop offset="1" stop-color="#FFCD00"/>
</linearGradient>
</defs>
</svg>
