<svg width="18" height="18" viewBox="0 0 18 18" fill="none" xmlns="http://www.w3.org/2000/svg">
<path fill-rule="evenodd" clip-rule="evenodd" d="M13.5037 15.0019C13.5037 14.5877 13.1679 14.2519 12.7537 14.2519H9.75368V12.7056C12.7134 12.3365 15.0037 9.81169 15.0037 6.75195V3.00195C15.0037 2.58774 14.6679 2.25195 14.2537 2.25195H3.75366C3.33945 2.25195 3.00366 2.58774 3.00366 3.00195V6.75195C3.00366 9.81169 5.29393 12.3365 8.25368 12.7056V14.2519H5.25366C4.83945 14.2519 4.50366 14.5877 4.50366 15.0019C4.50366 15.4161 4.83945 15.7519 5.25366 15.7519H12.7537C13.1679 15.7519 13.5037 15.4161 13.5037 15.0019ZM9.00368 11.2519C6.51838 11.2519 4.50366 9.23727 4.50366 6.75195V3.75195H13.5037V6.75195C13.5037 9.23727 11.489 11.2519 9.00368 11.2519ZM1.50366 3.75195C1.08945 3.75195 0.753662 4.08774 0.753662 4.50195V6.75195C0.753662 7.16617 1.08945 7.50195 1.50366 7.50195C1.91788 7.50195 2.25366 7.16617 2.25366 6.75195V4.50195C2.25366 4.08774 1.91788 3.75195 1.50366 3.75195ZM16.5037 3.75195C16.0895 3.75195 15.7537 4.08774 15.7537 4.50195V6.75195C15.7537 7.16617 16.0895 7.50195 16.5037 7.50195C16.9179 7.50195 17.2537 7.16617 17.2537 6.75195V4.50195C17.2537 4.08774 16.9179 3.75195 16.5037 3.75195Z" fill="#18181B"/>
</svg>
