<svg width="24" height="24" viewBox="0 0 24 24" fill="none" xmlns="http://www.w3.org/2000/svg">
<path d="M12 0C18.628 0 24 5.37314 24 12C24 18.628 18.628 24 12 24C5.37314 24 0 18.6274 0 12C0 5.37314 5.37314 0 12 0Z" fill="#BFF009"/>
<path d="M12.2175 7.72366C12.2175 7.1259 12.6984 6.63896 13.2888 6.63896H15.2057V4H13.2888C11.2578 4 9.61102 5.66741 9.61102 7.72366C9.61102 8.26021 9.72387 8.77023 9.92558 9.23065C8.34835 9.90577 7.30094 11.3401 7.05706 13.1552C6.77212 15.148 7.56079 17.2977 9.27828 18.3362C10.8111 19.3136 13.2079 19.2489 14.5025 17.8931V18.7932H17.1705V8.80836H13.2899C12.6995 8.80836 12.2186 8.32141 12.2186 7.72366H12.2175ZM14.5617 11.4485V13.9548C14.5617 15.3395 13.4528 16.4611 12.0864 16.4611C10.7199 16.4611 9.61102 15.3383 9.61102 13.9548C9.61102 12.5714 10.72 11.4485 12.0864 11.4485H14.5617Z" fill="#040404"/>
</svg>
