<svg width="24" height="24" viewBox="0 0 24 24" fill="none" xmlns="http://www.w3.org/2000/svg">
<path fill-rule="evenodd" clip-rule="evenodd" d="M11.2929 3.29289C11.6834 2.90237 12.3166 2.90237 12.7071 3.29289L16.7071 7.29289C17.0976 7.68342 17.0976 8.31658 16.7071 8.70711C16.3166 9.09763 15.6834 9.09763 15.2929 8.70711L13 6.41421L13 16C13 16.5523 12.5523 17 12 17C11.4477 17 11 16.5523 11 16L11 6.41421L8.70711 8.70711C8.31658 9.09763 7.68342 9.09763 7.29289 8.70711C6.90237 8.31658 6.90237 7.68342 7.29289 7.29289L11.2929 3.29289ZM4 13C4.55228 13 5 13.4477 5 14V17C5 18.1046 5.89543 19 7 19H17C18.1046 19 19 18.1046 19 17V14C19 13.4477 19.4477 13 20 13C20.5523 13 21 13.4477 21 14V17C21 19.2091 19.2091 21 17 21H7C4.79086 21 3 19.2091 3 17V14C3 13.4477 3.44772 13 4 13Z" fill="#18181B"/>
</svg>
