<svg width="16" height="16" viewBox="0 0 16 16" fill="none" xmlns="http://www.w3.org/2000/svg">
<path fill-rule="evenodd" clip-rule="evenodd" d="M2.70797 7.3335H5.34515C5.39662 5.88437 5.61456 4.56315 5.95337 3.5467C6.01765 3.35388 6.0876 3.16796 6.16352 2.99146C4.32311 3.66648 2.95819 5.3269 2.70797 7.3335ZM8.00004 1.3335C4.31814 1.3335 1.33337 4.31826 1.33337 8.00016C1.33337 11.6821 4.31814 14.6668 8.00004 14.6668C10.6186 14.6668 12.8833 13.157 13.9734 10.9635C14.4174 10.0701 14.6667 9.06329 14.6667 8.00016C14.6667 4.31826 11.6819 1.3335 8.00004 1.3335ZM8.00004 2.66683C8.0001 2.66683 8.00016 2.66683 8.00022 2.66683C8.00105 2.66683 8.00394 2.66695 8.01024 2.66887C8.01766 2.67113 8.03234 2.67671 8.05433 2.69021C8.10042 2.71851 8.16973 2.77622 8.25492 2.88432C8.4284 3.10444 8.61378 3.46427 8.7818 3.96834C9.06853 4.82854 9.26973 6.002 9.3207 7.3335H6.67938C6.73035 6.002 6.93155 4.82854 7.21828 3.96834C7.38631 3.46427 7.57169 3.10444 7.74516 2.88432C7.83036 2.77622 7.89966 2.71851 7.94575 2.69021C7.96774 2.67671 7.98242 2.67113 7.98985 2.66887C7.99675 2.66676 7.99955 2.66683 8.00004 2.66683ZM5.34515 8.66683H2.70797C2.95819 10.6734 4.32312 12.3339 6.16352 13.0089C6.0876 12.8324 6.01765 12.6464 5.95337 12.4536C5.61456 11.4372 5.39662 10.116 5.34515 8.66683ZM9.83652 13.0089C11.1215 12.5377 12.1751 11.586 12.7794 10.3701C13.0399 9.8459 13.2167 9.27251 13.2922 8.66683H10.6549C10.6353 9.21996 10.5914 9.75289 10.5263 10.2562C10.3891 11.3167 10.1542 12.2702 9.83652 13.0089ZM9.3207 8.66683C9.30171 9.16286 9.26181 9.6384 9.20402 10.0851C9.06431 11.1648 8.82375 12.0468 8.54097 12.6381C8.39906 12.9349 8.26151 13.1266 8.14787 13.2355C8.09307 13.288 8.05238 13.313 8.02852 13.3242C8.01697 13.3296 8.00951 13.3318 8.00584 13.3327C8.00235 13.3335 8.00071 13.3335 8.00004 13.3335C7.99955 13.3335 7.99675 13.3336 7.98985 13.3315C7.98242 13.3292 7.96774 13.3236 7.94575 13.3101C7.89966 13.2818 7.83036 13.2241 7.74516 13.116C7.57169 12.8959 7.38631 12.5361 7.21828 12.032C6.93155 11.1718 6.73035 9.99833 6.67938 8.66683H9.3207ZM10.6549 7.3335C10.6035 5.88437 10.3855 4.56315 10.0467 3.5467C9.98244 3.35388 9.91248 3.16796 9.83657 2.99146C11.677 3.66648 13.0419 5.3269 13.2921 7.3335H10.6549Z" fill="#18181B"/>
</svg>
