<svg width="21" height="20" viewBox="0 0 21 20" fill="none" xmlns="http://www.w3.org/2000/svg">
<path fill-rule="evenodd" clip-rule="evenodd" d="M3 5C3 3.61929 4.11929 2.5 5.5 2.5H12.1667C13.5474 2.5 14.6667 3.61929 14.6667 5V5.83333H15.5C16.8807 5.83333 18 6.95262 18 8.33333V15C18 16.3807 16.8807 17.5 15.5 17.5H8.83333C7.45262 17.5 6.33333 16.3807 6.33333 15V14.1667H5.5C4.11929 14.1667 3 13.0474 3 11.6667V5ZM8 15C8 15.4602 8.3731 15.8333 8.83333 15.8333H15.5C15.9602 15.8333 16.3333 15.4602 16.3333 15V8.33333C16.3333 7.8731 15.9602 7.5 15.5 7.5H8.83333C8.3731 7.5 8 7.8731 8 8.33333V15ZM13 5.83333H8.83333C7.45262 5.83333 6.33333 6.95262 6.33333 8.33333V12.5H5.5C5.03976 12.5 4.66667 12.1269 4.66667 11.6667V5C4.66667 4.53976 5.03976 4.16667 5.5 4.16667H12.1667C12.6269 4.16667 13 4.53976 13 5V5.83333Z" fill="white"/>
</svg>
