<svg width="32" height="32" viewBox="0 0 32 32" fill="none" xmlns="http://www.w3.org/2000/svg">
<rect width="32" height="32" rx="10" fill="#2D87FA"/>
<path fill-rule="evenodd" clip-rule="evenodd" d="M16 24.8002C20.8601 24.8002 24.7999 20.8603 24.7999 16.0002C24.7999 11.1401 20.8601 7.2002 16 7.2002C11.1398 7.2002 7.19995 11.1401 7.19995 16.0002C7.19995 20.8603 11.1398 24.8002 16 24.8002ZM20.0778 15.2224L16.7778 11.9224C16.3482 11.4928 15.6517 11.4928 15.2221 11.9224L11.9221 15.2224C11.4926 15.652 11.4926 16.3484 11.9221 16.778C12.3517 17.2076 13.0482 17.2076 13.4778 16.778L14.9 15.3558L14.9 19.3002C14.9 19.9077 15.3924 20.4002 15.9999 20.4002C16.6075 20.4002 17.1 19.9077 17.1 19.3002V15.3558L18.5221 16.778C18.9517 17.2076 19.6482 17.2076 20.0778 16.778C20.5073 16.3484 20.5073 15.652 20.0778 15.2224Z" fill="white"/>
</svg>
