<svg width="87" height="34" viewBox="0 0 87 34" fill="none" xmlns="http://www.w3.org/2000/svg">
<rect x="1.5" y="1" width="52" height="32" rx="6" stroke="white" stroke-width="2"/>
<g clip-path="url(#clip0_4787_10131)">
<rect x="2.5" y="2" width="50" height="30" rx="5.09091" fill="url(#paint0_linear_4787_10131)"/>
<g filter="url(#filter0_d_4787_10131)">
<path d="M19.6746 1.61819L3.31525 -5.7237C1.67252 -6.46094 -0.192796 -5.86958 -0.851045 -4.40285L-2.04291 -1.74711C0.421186 -0.641255 1.61831 2.03874 0.630933 4.23883C-0.356441 6.43892 -3.15441 7.32596 -5.61851 6.22011L-6.81037 8.87585C-7.46862 10.3426 -6.67054 12.1292 -5.02781 12.8665L18.7676 23.5456C20.4104 24.2828 22.2757 23.6915 22.9339 22.2247L24.1258 19.569C21.6617 18.4631 20.4646 15.7831 21.4519 13.5831C22.4393 11.383 25.2373 10.4959 27.7014 11.6018L28.8932 8.94604C29.5515 7.47932 28.7534 5.69265 27.1107 4.95541L19.6746 1.61819Z" fill="url(#paint1_linear_4787_10131)"/>
<path d="M3.18497 -5.43342L19.5443 1.90848L26.9804 5.2457C28.4946 5.92526 29.1758 7.53942 28.603 8.81577L27.5378 11.1891C25.016 10.2187 22.1942 11.1521 21.1616 13.4528C20.1291 15.7534 21.3075 18.4821 23.7088 19.7211L22.6436 22.0945C22.0708 23.3708 20.4121 23.9349 18.8979 23.2553L-4.89753 12.5762C-6.41175 11.8966 -7.0929 10.2825 -6.52009 9.00612L-5.45495 6.63277C-2.93314 7.60314 -0.111288 6.66977 0.921221 4.36911C1.95373 2.06845 0.775347 -0.660182 -1.62589 -1.89922L-0.560757 -4.27258C0.0120515 -5.54892 1.67075 -6.11298 3.18497 -5.43342Z" stroke="url(#paint2_linear_4787_10131)" stroke-opacity="0.3" stroke-width="0.636364"/>
</g>
<path d="M19.3879 5.67433C19.5318 5.35368 19.9084 5.2104 20.229 5.35431C20.5497 5.49821 20.6929 5.8748 20.549 6.19544L19.5068 8.51775C19.3629 8.83839 18.9863 8.98167 18.6657 8.83777C18.345 8.69386 18.2018 8.31728 18.3457 7.99663L19.3879 5.67433Z" fill="white"/>
<path d="M17.3034 10.3189C17.4473 9.9983 17.8239 9.85502 18.1446 9.99892C18.4652 10.1428 18.6085 10.5194 18.4646 10.8401L17.4224 13.1624C17.2785 13.483 16.9019 13.6263 16.5812 13.4824C16.2606 13.3385 16.1173 12.9619 16.2612 12.6412L17.3034 10.3189Z" fill="white"/>
<path d="M15.219 14.9636C15.3629 14.6429 15.7395 14.4996 16.0601 14.6435C16.3808 14.7874 16.524 15.164 16.3801 15.4847L15.3379 17.807C15.194 18.1276 14.8174 18.2709 14.4968 18.127C14.1761 17.9831 14.0329 17.6065 14.1768 17.2859L15.219 14.9636Z" fill="white"/>
<path d="M47.7023 4.77579C47.7462 4.67243 47.8927 4.67243 47.9366 4.77579L48.539 6.19397C48.5515 6.22347 48.5747 6.24716 48.604 6.2603L49.9917 6.88391C50.0918 6.92891 50.0918 7.07109 49.9917 7.11609L48.604 7.7397C48.5747 7.75284 48.5515 7.77653 48.539 7.80603L47.9366 9.22421C47.8927 9.32757 47.7462 9.32757 47.7023 9.22421L47.0999 7.80603C47.0874 7.77653 47.0642 7.75284 47.035 7.7397L45.6472 7.11609C45.5471 7.07109 45.5471 6.92891 45.6472 6.88391L47.035 6.2603C47.0642 6.24716 47.0874 6.22347 47.0999 6.19397L47.7023 4.77579Z" fill="white"/>
<circle cx="38.4546" cy="17.5" r="8.5" fill="#16C677"/>
<circle cx="38.4546" cy="17.5" r="9.13636" stroke="white" stroke-opacity="0.5" stroke-width="1.27273"/>
<path d="M39.5036 16.3678V15.1033H42.3951V13.1768H34.5214V15.1033H37.4131V16.3668C35.0628 16.4748 33.2959 16.9402 33.2959 17.4978C33.2959 18.0554 35.0639 18.5209 37.4131 18.6295V22.6798H39.5041V18.629C41.8501 18.5207 43.6136 18.0556 43.6136 17.4985C43.6136 16.9414 41.8501 16.4763 39.5041 16.368L39.5036 16.3678ZM39.5041 18.2859V18.2849C39.4451 18.2886 39.142 18.3068 38.4671 18.3068C37.9275 18.3068 37.5479 18.2916 37.4141 18.2846V18.2863C35.3377 18.1943 33.7878 17.8328 33.7878 17.4001C33.7878 16.9675 35.3379 16.6064 37.4141 16.5143V17.9261C37.5501 17.9355 37.939 17.9584 38.4759 17.9584C39.1207 17.9584 39.4449 17.9318 39.5044 17.9261V16.5143C41.5767 16.6066 43.123 16.9686 43.123 17.3997C43.123 17.8308 41.5758 18.1929 39.5044 18.2852" fill="white"/>
</g>
<rect x="3.13636" y="2.63636" width="48.7273" height="28.7273" rx="4.45455" stroke="#18181B" stroke-opacity="0.08" stroke-width="1.27273"/>
<path d="M10.1954 23.7045C10.2393 23.6011 10.3858 23.6011 10.4297 23.7045L11.032 25.1227C11.0446 25.1522 11.0678 25.1759 11.097 25.189L12.4847 25.8126C12.5849 25.8576 12.5849 25.9998 12.4847 26.0448L11.097 26.6684C11.0678 26.6816 11.0446 26.7052 11.032 26.7347L10.4297 28.1529C10.3858 28.2563 10.2393 28.2563 10.1954 28.1529L9.59298 26.7347C9.58045 26.7052 9.55725 26.6816 9.52801 26.6684L8.14029 26.0448C8.04015 25.9998 8.04015 25.8576 8.14029 25.8126L9.52801 25.189C9.55725 25.1759 9.58045 25.1522 9.59298 25.1227L10.1954 23.7045Z" fill="white"/>
<rect x="17.5" y="1" width="52" height="32" rx="6" stroke="white" stroke-width="2"/>
<g clip-path="url(#clip1_4787_10131)">
<rect x="18.5" y="2" width="50" height="30" rx="5.09091" fill="url(#paint3_linear_4787_10131)"/>
<g filter="url(#filter1_d_4787_10131)">
<path d="M35.6746 1.61819L19.3152 -5.7237C17.6725 -6.46094 15.8072 -5.86958 15.149 -4.40285L13.9571 -1.74711C16.4212 -0.641255 17.6183 2.03874 16.6309 4.23883C15.6436 6.43892 12.8456 7.32596 10.3815 6.22011L9.18963 8.87585C8.53138 10.3426 9.32946 12.1292 10.9722 12.8665L34.7676 23.5456C36.4104 24.2828 38.2757 23.6915 38.9339 22.2247L40.1258 19.569C37.6617 18.4631 36.4646 15.7831 37.4519 13.5831C38.4393 11.383 41.2373 10.4959 43.7014 11.6018L44.8932 8.94604C45.5515 7.47932 44.7534 5.69265 43.1107 4.95541L35.6746 1.61819Z" fill="url(#paint4_linear_4787_10131)"/>
<path d="M19.185 -5.43342L35.5443 1.90848L42.9804 5.2457C44.4946 5.92526 45.1758 7.53942 44.603 8.81577L43.5378 11.1891C41.016 10.2187 38.1942 11.1521 37.1616 13.4528C36.1291 15.7534 37.3075 18.4821 39.7088 19.7211L38.6436 22.0945C38.0708 23.3708 36.4121 23.9349 34.8979 23.2553L11.1025 12.5762C9.58825 11.8966 8.9071 10.2825 9.47991 9.00612L10.545 6.63277C13.0669 7.60314 15.8887 6.66977 16.9212 4.36911C17.9537 2.06845 16.7753 -0.660182 14.3741 -1.89922L15.4392 -4.27258C16.0121 -5.54892 17.6708 -6.11298 19.185 -5.43342Z" stroke="url(#paint5_linear_4787_10131)" stroke-opacity="0.3" stroke-width="0.636364"/>
</g>
<path d="M35.3879 5.67433C35.5318 5.35368 35.9084 5.2104 36.229 5.35431C36.5497 5.49821 36.6929 5.8748 36.549 6.19544L35.5068 8.51775C35.3629 8.83839 34.9863 8.98167 34.6657 8.83777C34.345 8.69386 34.2018 8.31728 34.3457 7.99663L35.3879 5.67433Z" fill="white"/>
<path d="M33.3034 10.3189C33.4473 9.9983 33.8239 9.85502 34.1446 9.99892C34.4652 10.1428 34.6085 10.5194 34.4646 10.8401L33.4224 13.1624C33.2785 13.483 32.9019 13.6263 32.5812 13.4824C32.2606 13.3385 32.1173 12.9619 32.2612 12.6412L33.3034 10.3189Z" fill="white"/>
<path d="M31.219 14.9636C31.3629 14.6429 31.7395 14.4996 32.0601 14.6435C32.3808 14.7874 32.524 15.164 32.3801 15.4847L31.3379 17.807C31.194 18.1276 30.8174 18.2709 30.4968 18.127C30.1761 17.9831 30.0329 17.6065 30.1768 17.2859L31.219 14.9636Z" fill="white"/>
<path d="M63.7023 4.77579C63.7462 4.67243 63.8927 4.67243 63.9366 4.77579L64.539 6.19397C64.5515 6.22347 64.5747 6.24716 64.604 6.2603L65.9917 6.88391C66.0918 6.92891 66.0918 7.07109 65.9917 7.11609L64.604 7.7397C64.5747 7.75284 64.5515 7.77653 64.539 7.80603L63.9366 9.22421C63.8927 9.32757 63.7462 9.32757 63.7023 9.22421L63.0999 7.80603C63.0874 7.77653 63.0642 7.75284 63.035 7.7397L61.6472 7.11609C61.5471 7.07109 61.5471 6.92891 61.6472 6.88391L63.035 6.2603C63.0642 6.24716 63.0874 6.22347 63.0999 6.19397L63.7023 4.77579Z" fill="white"/>
<circle cx="54.4546" cy="17.5" r="8.5" fill="#16C677"/>
<circle cx="54.4546" cy="17.5" r="9.13636" stroke="white" stroke-opacity="0.5" stroke-width="1.27273"/>
<path d="M55.5036 16.3678V15.1033H58.3951V13.1768H50.5214V15.1033H53.4131V16.3668C51.0628 16.4748 49.2959 16.9402 49.2959 17.4978C49.2959 18.0554 51.0639 18.5209 53.4131 18.6295V22.6798H55.5041V18.629C57.8501 18.5207 59.6136 18.0556 59.6136 17.4985C59.6136 16.9414 57.8501 16.4763 55.5041 16.368L55.5036 16.3678ZM55.5041 18.2859V18.2849C55.4451 18.2886 55.142 18.3068 54.4671 18.3068C53.9275 18.3068 53.5479 18.2916 53.4141 18.2846V18.2863C51.3377 18.1943 49.7878 17.8328 49.7878 17.4001C49.7878 16.9675 51.3379 16.6064 53.4141 16.5143V17.9261C53.5501 17.9355 53.939 17.9584 54.4759 17.9584C55.1207 17.9584 55.4449 17.9318 55.5044 17.9261V16.5143C57.5767 16.6066 59.123 16.9686 59.123 17.3997C59.123 17.8308 57.5758 18.1929 55.5044 18.2852" fill="white"/>
</g>
<rect x="19.1364" y="2.63636" width="48.7273" height="28.7273" rx="4.45455" stroke="#18181B" stroke-opacity="0.08" stroke-width="1.27273"/>
<path d="M26.1954 23.7045C26.2393 23.6011 26.3858 23.6011 26.4297 23.7045L27.032 25.1227C27.0446 25.1522 27.0678 25.1759 27.097 25.189L28.4847 25.8126C28.5849 25.8576 28.5849 25.9998 28.4847 26.0448L27.097 26.6684C27.0678 26.6816 27.0446 26.7052 27.032 26.7347L26.4297 28.1529C26.3858 28.2563 26.2393 28.2563 26.1954 28.1529L25.593 26.7347C25.5805 26.7052 25.5572 26.6816 25.528 26.6684L24.1403 26.0448C24.0402 25.9998 24.0402 25.8576 24.1403 25.8126L25.528 25.189C25.5572 25.1759 25.5805 25.1522 25.593 25.1227L26.1954 23.7045Z" fill="white"/>
<rect x="33.5" y="1" width="52" height="32" rx="6" stroke="white" stroke-width="2"/>
<g clip-path="url(#clip2_4787_10131)">
<rect x="34.5" y="2" width="50" height="30" rx="5.09091" fill="url(#paint6_linear_4787_10131)"/>
<g filter="url(#filter2_d_4787_10131)">
<path d="M51.6746 1.61819L35.3152 -5.7237C33.6725 -6.46094 31.8072 -5.86958 31.149 -4.40285L29.9571 -1.74711C32.4212 -0.641255 33.6183 2.03874 32.6309 4.23883C31.6436 6.43892 28.8456 7.32596 26.3815 6.22011L25.1896 8.87585C24.5314 10.3426 25.3295 12.1292 26.9722 12.8665L50.7676 23.5456C52.4104 24.2828 54.2757 23.6915 54.9339 22.2247L56.1258 19.569C53.6617 18.4631 52.4646 15.7831 53.4519 13.5831C54.4393 11.383 57.2373 10.4959 59.7014 11.6018L60.8932 8.94604C61.5515 7.47932 60.7534 5.69265 59.1107 4.95541L51.6746 1.61819Z" fill="url(#paint7_linear_4787_10131)"/>
<path d="M35.185 -5.43342L51.5443 1.90848L58.9804 5.2457C60.4946 5.92526 61.1758 7.53942 60.603 8.81577L59.5378 11.1891C57.016 10.2187 54.1942 11.1521 53.1616 13.4528C52.1291 15.7534 53.3075 18.4821 55.7088 19.7211L54.6436 22.0945C54.0708 23.3708 52.4121 23.9349 50.8979 23.2553L27.1025 12.5762C25.5882 11.8966 24.9071 10.2825 25.4799 9.00612L26.545 6.63277C29.0669 7.60314 31.8887 6.66977 32.9212 4.36911C33.9537 2.06845 32.7753 -0.660182 30.3741 -1.89922L31.4392 -4.27258C32.0121 -5.54892 33.6708 -6.11298 35.185 -5.43342Z" stroke="url(#paint8_linear_4787_10131)" stroke-opacity="0.3" stroke-width="0.636364"/>
</g>
<path d="M51.3879 5.67433C51.5318 5.35368 51.9084 5.2104 52.229 5.35431C52.5497 5.49821 52.6929 5.8748 52.549 6.19544L51.5068 8.51775C51.3629 8.83839 50.9863 8.98167 50.6657 8.83777C50.345 8.69386 50.2018 8.31728 50.3457 7.99663L51.3879 5.67433Z" fill="white"/>
<path d="M49.3034 10.3189C49.4473 9.9983 49.8239 9.85502 50.1446 9.99892C50.4652 10.1428 50.6085 10.5194 50.4646 10.8401L49.4224 13.1624C49.2785 13.483 48.9019 13.6263 48.5812 13.4824C48.2606 13.3385 48.1173 12.9619 48.2612 12.6412L49.3034 10.3189Z" fill="white"/>
<path d="M47.219 14.9636C47.3629 14.6429 47.7395 14.4996 48.0601 14.6435C48.3808 14.7874 48.524 15.164 48.3801 15.4847L47.3379 17.807C47.194 18.1276 46.8174 18.2709 46.4968 18.127C46.1761 17.9831 46.0329 17.6065 46.1768 17.2859L47.219 14.9636Z" fill="white"/>
<path d="M79.7023 4.77579C79.7462 4.67243 79.8927 4.67243 79.9366 4.77579L80.539 6.19397C80.5515 6.22347 80.5747 6.24716 80.604 6.2603L81.9917 6.88391C82.0918 6.92891 82.0918 7.07109 81.9917 7.11609L80.604 7.7397C80.5747 7.75284 80.5515 7.77653 80.539 7.80603L79.9366 9.22421C79.8927 9.32757 79.7462 9.32757 79.7023 9.22421L79.0999 7.80603C79.0874 7.77653 79.0642 7.75284 79.035 7.7397L77.6472 7.11609C77.5471 7.07109 77.5471 6.92891 77.6472 6.88391L79.035 6.2603C79.0642 6.24716 79.0874 6.22347 79.0999 6.19397L79.7023 4.77579Z" fill="white"/>
<circle cx="70.4546" cy="17.5" r="8.5" fill="#16C677"/>
<circle cx="70.4546" cy="17.5" r="9.13636" stroke="white" stroke-opacity="0.5" stroke-width="1.27273"/>
<path d="M71.5036 16.3678V15.1033H74.3951V13.1768H66.5214V15.1033H69.4131V16.3668C67.0628 16.4748 65.2959 16.9402 65.2959 17.4978C65.2959 18.0554 67.0639 18.5209 69.4131 18.6295V22.6798H71.5041V18.629C73.8501 18.5207 75.6136 18.0556 75.6136 17.4985C75.6136 16.9414 73.8501 16.4763 71.5041 16.368L71.5036 16.3678ZM71.5041 18.2859V18.2849C71.4451 18.2886 71.142 18.3068 70.4671 18.3068C69.9275 18.3068 69.5479 18.2916 69.4141 18.2846V18.2863C67.3377 18.1943 65.7878 17.8328 65.7878 17.4001C65.7878 16.9675 67.3379 16.6064 69.4141 16.5143V17.9261C69.5501 17.9355 69.939 17.9584 70.4759 17.9584C71.1207 17.9584 71.4449 17.9318 71.5044 17.9261V16.5143C73.5767 16.6066 75.123 16.9686 75.123 17.3997C75.123 17.8308 73.5758 18.1929 71.5044 18.2852" fill="white"/>
</g>
<rect x="35.1364" y="2.63636" width="48.7273" height="28.7273" rx="4.45455" stroke="#18181B" stroke-opacity="0.08" stroke-width="1.27273"/>
<path d="M42.1954 23.7045C42.2393 23.6011 42.3858 23.6011 42.4297 23.7045L43.032 25.1227C43.0446 25.1522 43.0678 25.1759 43.097 25.189L44.4847 25.8126C44.5849 25.8576 44.5849 25.9998 44.4847 26.0448L43.097 26.6684C43.0678 26.6816 43.0446 26.7052 43.032 26.7347L42.4297 28.1529C42.3858 28.2563 42.2393 28.2563 42.1954 28.1529L41.593 26.7347C41.5805 26.7052 41.5572 26.6816 41.528 26.6684L40.1403 26.0448C40.0402 25.9998 40.0402 25.8576 40.1403 25.8126L41.528 25.189C41.5572 25.1759 41.5805 25.1522 41.593 25.1227L42.1954 23.7045Z" fill="white"/>
<defs>
<filter id="filter0_d_4787_10131" x="-7.6775" y="-6.04102" width="36.8015" height="31.177" filterUnits="userSpaceOnUse" color-interpolation-filters="sRGB">
<feFlood flood-opacity="0" result="BackgroundImageFix"/>
<feColorMatrix in="SourceAlpha" type="matrix" values="0 0 0 0 0 0 0 0 0 0 0 0 0 0 0 0 0 0 127 0" result="hardAlpha"/>
<feOffset dx="-0.636364" dy="1.27273"/>
<feComposite in2="hardAlpha" operator="out"/>
<feColorMatrix type="matrix" values="0 0 0 0 0 0 0 0 0 0 0 0 0 0 0 0 0 0 0.07 0"/>
<feBlend mode="normal" in2="BackgroundImageFix" result="effect1_dropShadow_4787_10131"/>
<feBlend mode="normal" in="SourceGraphic" in2="effect1_dropShadow_4787_10131" result="shape"/>
</filter>
<filter id="filter1_d_4787_10131" x="8.3225" y="-6.04102" width="36.8015" height="31.177" filterUnits="userSpaceOnUse" color-interpolation-filters="sRGB">
<feFlood flood-opacity="0" result="BackgroundImageFix"/>
<feColorMatrix in="SourceAlpha" type="matrix" values="0 0 0 0 0 0 0 0 0 0 0 0 0 0 0 0 0 0 127 0" result="hardAlpha"/>
<feOffset dx="-0.636364" dy="1.27273"/>
<feComposite in2="hardAlpha" operator="out"/>
<feColorMatrix type="matrix" values="0 0 0 0 0 0 0 0 0 0 0 0 0 0 0 0 0 0 0.07 0"/>
<feBlend mode="normal" in2="BackgroundImageFix" result="effect1_dropShadow_4787_10131"/>
<feBlend mode="normal" in="SourceGraphic" in2="effect1_dropShadow_4787_10131" result="shape"/>
</filter>
<filter id="filter2_d_4787_10131" x="24.3225" y="-6.04102" width="36.8015" height="31.177" filterUnits="userSpaceOnUse" color-interpolation-filters="sRGB">
<feFlood flood-opacity="0" result="BackgroundImageFix"/>
<feColorMatrix in="SourceAlpha" type="matrix" values="0 0 0 0 0 0 0 0 0 0 0 0 0 0 0 0 0 0 127 0" result="hardAlpha"/>
<feOffset dx="-0.636364" dy="1.27273"/>
<feComposite in2="hardAlpha" operator="out"/>
<feColorMatrix type="matrix" values="0 0 0 0 0 0 0 0 0 0 0 0 0 0 0 0 0 0 0.07 0"/>
<feBlend mode="normal" in2="BackgroundImageFix" result="effect1_dropShadow_4787_10131"/>
<feBlend mode="normal" in="SourceGraphic" in2="effect1_dropShadow_4787_10131" result="shape"/>
</filter>
<linearGradient id="paint0_linear_4787_10131" x1="2.5" y1="32" x2="44.08" y2="-6.98129" gradientUnits="userSpaceOnUse">
<stop stop-color="#08BE5A"/>
<stop offset="1" stop-color="#40F29B"/>
</linearGradient>
<linearGradient id="paint1_linear_4787_10131" x1="-0.159575" y1="-5.9436" x2="18.1871" y2="27.0248" gradientUnits="userSpaceOnUse">
<stop stop-color="#EBE12D"/>
<stop offset="1" stop-color="#F6FF8E"/>
</linearGradient>
<linearGradient id="paint2_linear_4787_10131" x1="15.213" y1="-0.384146" x2="6.8699" y2="18.206" gradientUnits="userSpaceOnUse">
<stop stop-color="white"/>
<stop offset="1" stop-color="white" stop-opacity="0"/>
</linearGradient>
<linearGradient id="paint3_linear_4787_10131" x1="18.5" y1="32" x2="60.08" y2="-6.98129" gradientUnits="userSpaceOnUse">
<stop stop-color="#08BE5A"/>
<stop offset="1" stop-color="#40F29B"/>
</linearGradient>
<linearGradient id="paint4_linear_4787_10131" x1="15.8404" y1="-5.9436" x2="34.1871" y2="27.0248" gradientUnits="userSpaceOnUse">
<stop stop-color="#EBE12D"/>
<stop offset="1" stop-color="#F6FF8E"/>
</linearGradient>
<linearGradient id="paint5_linear_4787_10131" x1="31.213" y1="-0.384146" x2="22.8699" y2="18.206" gradientUnits="userSpaceOnUse">
<stop stop-color="white"/>
<stop offset="1" stop-color="white" stop-opacity="0"/>
</linearGradient>
<linearGradient id="paint6_linear_4787_10131" x1="34.5" y1="32" x2="76.08" y2="-6.98129" gradientUnits="userSpaceOnUse">
<stop stop-color="#08BE5A"/>
<stop offset="1" stop-color="#40F29B"/>
</linearGradient>
<linearGradient id="paint7_linear_4787_10131" x1="31.8404" y1="-5.9436" x2="50.1871" y2="27.0248" gradientUnits="userSpaceOnUse">
<stop stop-color="#EBE12D"/>
<stop offset="1" stop-color="#F6FF8E"/>
</linearGradient>
<linearGradient id="paint8_linear_4787_10131" x1="47.213" y1="-0.384146" x2="38.8699" y2="18.206" gradientUnits="userSpaceOnUse">
<stop stop-color="white"/>
<stop offset="1" stop-color="white" stop-opacity="0"/>
</linearGradient>
<clipPath id="clip0_4787_10131">
<rect x="2.5" y="2" width="50" height="30" rx="5.09091" fill="white"/>
</clipPath>
<clipPath id="clip1_4787_10131">
<rect x="18.5" y="2" width="50" height="30" rx="5.09091" fill="white"/>
</clipPath>
<clipPath id="clip2_4787_10131">
<rect x="34.5" y="2" width="50" height="30" rx="5.09091" fill="white"/>
</clipPath>
</defs>
</svg>
