<svg width="32" height="32" viewBox="0 0 32 32" fill="none" xmlns="http://www.w3.org/2000/svg">
<rect width="32" height="32" rx="10" fill="#06C756"/>
<path fill-rule="evenodd" clip-rule="evenodd" d="M16 24.8002C20.8601 24.8002 24.7999 20.8603 24.7999 16.0002C24.7999 11.1401 20.8601 7.2002 16 7.2002C11.1398 7.2002 7.19995 11.1401 7.19995 16.0002C7.19995 20.8603 11.1398 24.8002 16 24.8002ZM17.1 12.7002C17.1 12.0927 16.6075 11.6002 16 11.6002C15.3924 11.6002 14.9 12.0927 14.9 12.7002L14.9 16.6446L13.4778 15.2224C13.0482 14.7928 12.3517 14.7928 11.9221 15.2224C11.4926 15.652 11.4926 16.3484 11.9221 16.778L15.2221 20.078C15.6517 20.5076 16.3482 20.5076 16.7778 20.078L20.0778 16.778C20.5073 16.3484 20.5073 15.652 20.0778 15.2224C19.6482 14.7928 18.9517 14.7928 18.5221 15.2224L17.1 16.6446V12.7002Z" fill="white"/>
</svg>
