<svg width="280" height="280" viewBox="0 0 280 280" fill="none" xmlns="http://www.w3.org/2000/svg">
<rect width="280" height="280" rx="20" fill="white"/>
<rect x="0.5" y="0.5" width="279" height="279" rx="19.5" stroke="#18181B" stroke-opacity="0.12"/>
<path d="M20 20H28.2759V28.2759H20V20Z" fill="black"/>
<path d="M28.2759 20H36.5517V28.2759H28.2759V20Z" fill="black"/>
<path d="M36.5517 20H44.8276V28.2759H36.5517V20Z" fill="black"/>
<path d="M44.8276 20H53.1035V28.2759H44.8276V20Z" fill="black"/>
<path d="M53.1035 20H61.3793V28.2759H53.1035V20Z" fill="black"/>
<path d="M61.3793 20H69.6552V28.2759H61.3793V20Z" fill="black"/>
<path d="M69.6552 20H77.931V28.2759H69.6552V20Z" fill="black"/>
<path d="M111.034 20H119.31V28.2759H111.034V20Z" fill="black"/>
<path d="M127.586 20H135.862V28.2759H127.586V20Z" fill="black"/>
<path d="M135.862 20H144.138V28.2759H135.862V20Z" fill="black"/>
<path d="M144.138 20H152.414V28.2759H144.138V20Z" fill="black"/>
<path d="M152.414 20H160.69V28.2759H152.414V20Z" fill="black"/>
<path d="M160.69 20H168.966V28.2759H160.69V20Z" fill="black"/>
<path d="M202.069 20H210.345V28.2759H202.069V20Z" fill="black"/>
<path d="M210.345 20H218.621V28.2759H210.345V20Z" fill="black"/>
<path d="M218.621 20H226.897V28.2759H218.621V20Z" fill="black"/>
<path d="M226.897 20H235.172V28.2759H226.897V20Z" fill="black"/>
<path d="M235.172 20H243.448V28.2759H235.172V20Z" fill="black"/>
<path d="M243.448 20H251.724V28.2759H243.448V20Z" fill="black"/>
<path d="M251.724 20H260V28.2759H251.724V20Z" fill="black"/>
<path d="M20 28.2759H28.2759V36.5517H20V28.2759Z" fill="black"/>
<path d="M69.6552 28.2759H77.931V36.5517H69.6552V28.2759Z" fill="black"/>
<path d="M94.4828 28.2759H102.759V36.5517H94.4828V28.2759Z" fill="black"/>
<path d="M119.31 28.2759H127.586V36.5517H119.31V28.2759Z" fill="black"/>
<path d="M127.586 28.2759H135.862V36.5517H127.586V28.2759Z" fill="black"/>
<path d="M144.138 28.2759H152.414V36.5517H144.138V28.2759Z" fill="black"/>
<path d="M152.414 28.2759H160.69V36.5517H152.414V28.2759Z" fill="black"/>
<path d="M160.69 28.2759H168.966V36.5517H160.69V28.2759Z" fill="black"/>
<path d="M202.069 28.2759H210.345V36.5517H202.069V28.2759Z" fill="black"/>
<path d="M251.724 28.2759H260V36.5517H251.724V28.2759Z" fill="black"/>
<path d="M20 36.5517H28.2759V44.8276H20V36.5517Z" fill="black"/>
<path d="M36.5517 36.5517H44.8276V44.8276H36.5517V36.5517Z" fill="black"/>
<path d="M44.8276 36.5517H53.1035V44.8276H44.8276V36.5517Z" fill="black"/>
<path d="M53.1035 36.5517H61.3793V44.8276H53.1035V36.5517Z" fill="black"/>
<path d="M69.6552 36.5517H77.931V44.8276H69.6552V36.5517Z" fill="black"/>
<path d="M94.4828 36.5517H102.759V44.8276H94.4828V36.5517Z" fill="black"/>
<path d="M102.759 36.5517H111.034V44.8276H102.759V36.5517Z" fill="black"/>
<path d="M111.034 36.5517H119.31V44.8276H111.034V36.5517Z" fill="black"/>
<path d="M144.138 36.5517H152.414V44.8276H144.138V36.5517Z" fill="black"/>
<path d="M152.414 36.5517H160.69V44.8276H152.414V36.5517Z" fill="black"/>
<path d="M168.966 36.5517H177.241V44.8276H168.966V36.5517Z" fill="black"/>
<path d="M177.241 36.5517H185.517V44.8276H177.241V36.5517Z" fill="black"/>
<path d="M202.069 36.5517H210.345V44.8276H202.069V36.5517Z" fill="black"/>
<path d="M218.621 36.5517H226.897V44.8276H218.621V36.5517Z" fill="black"/>
<path d="M226.897 36.5517H235.172V44.8276H226.897V36.5517Z" fill="black"/>
<path d="M235.172 36.5517H243.448V44.8276H235.172V36.5517Z" fill="black"/>
<path d="M251.724 36.5517H260V44.8276H251.724V36.5517Z" fill="black"/>
<path d="M20 44.8276H28.2759V53.1035H20V44.8276Z" fill="black"/>
<path d="M36.5517 44.8276H44.8276V53.1035H36.5517V44.8276Z" fill="black"/>
<path d="M44.8276 44.8276H53.1035V53.1035H44.8276V44.8276Z" fill="black"/>
<path d="M53.1035 44.8276H61.3793V53.1035H53.1035V44.8276Z" fill="black"/>
<path d="M69.6552 44.8276H77.931V53.1035H69.6552V44.8276Z" fill="black"/>
<path d="M94.4828 44.8276H102.759V53.1035H94.4828V44.8276Z" fill="black"/>
<path d="M102.759 44.8276H111.034V53.1035H102.759V44.8276Z" fill="black"/>
<path d="M119.31 44.8276H127.586V53.1035H119.31V44.8276Z" fill="black"/>
<path d="M127.586 44.8276H135.862V53.1035H127.586V44.8276Z" fill="black"/>
<path d="M135.862 44.8276H144.138V53.1035H135.862V44.8276Z" fill="black"/>
<path d="M152.414 44.8276H160.69V53.1035H152.414V44.8276Z" fill="black"/>
<path d="M185.517 44.8276H193.793V53.1035H185.517V44.8276Z" fill="black"/>
<path d="M202.069 44.8276H210.345V53.1035H202.069V44.8276Z" fill="black"/>
<path d="M218.621 44.8276H226.897V53.1035H218.621V44.8276Z" fill="black"/>
<path d="M226.897 44.8276H235.172V53.1035H226.897V44.8276Z" fill="black"/>
<path d="M235.172 44.8276H243.448V53.1035H235.172V44.8276Z" fill="black"/>
<path d="M251.724 44.8276H260V53.1035H251.724V44.8276Z" fill="black"/>
<path d="M20 53.1035H28.2759V61.3793H20V53.1035Z" fill="black"/>
<path d="M36.5517 53.1035H44.8276V61.3793H36.5517V53.1035Z" fill="black"/>
<path d="M44.8276 53.1035H53.1035V61.3793H44.8276V53.1035Z" fill="black"/>
<path d="M53.1035 53.1035H61.3793V61.3793H53.1035V53.1035Z" fill="black"/>
<path d="M69.6552 53.1035H77.931V61.3793H69.6552V53.1035Z" fill="black"/>
<path d="M86.2069 53.1035H94.4828V61.3793H86.2069V53.1035Z" fill="black"/>
<path d="M94.4828 53.1035H102.759V61.3793H94.4828V53.1035Z" fill="black"/>
<path d="M119.31 53.1035H127.586V61.3793H119.31V53.1035Z" fill="black"/>
<path d="M144.138 53.1035H152.414V61.3793H144.138V53.1035Z" fill="black"/>
<path d="M152.414 53.1035H160.69V61.3793H152.414V53.1035Z" fill="black"/>
<path d="M177.241 53.1035H185.517V61.3793H177.241V53.1035Z" fill="black"/>
<path d="M202.069 53.1035H210.345V61.3793H202.069V53.1035Z" fill="black"/>
<path d="M218.621 53.1035H226.897V61.3793H218.621V53.1035Z" fill="black"/>
<path d="M226.897 53.1035H235.172V61.3793H226.897V53.1035Z" fill="black"/>
<path d="M235.172 53.1035H243.448V61.3793H235.172V53.1035Z" fill="black"/>
<path d="M251.724 53.1035H260V61.3793H251.724V53.1035Z" fill="black"/>
<path d="M20 61.3793H28.2759V69.6552H20V61.3793Z" fill="black"/>
<path d="M69.6552 61.3793H77.931V69.6552H69.6552V61.3793Z" fill="black"/>
<path d="M94.4828 61.3793H102.759V69.6552H94.4828V61.3793Z" fill="black"/>
<path d="M102.759 61.3793H111.034V69.6552H102.759V61.3793Z" fill="black"/>
<path d="M119.31 61.3793H127.586V69.6552H119.31V61.3793Z" fill="black"/>
<path d="M127.586 61.3793H135.862V69.6552H127.586V61.3793Z" fill="black"/>
<path d="M152.414 61.3793H160.69V69.6552H152.414V61.3793Z" fill="black"/>
<path d="M160.69 61.3793H168.966V69.6552H160.69V61.3793Z" fill="black"/>
<path d="M168.966 61.3793H177.241V69.6552H168.966V61.3793Z" fill="black"/>
<path d="M177.241 61.3793H185.517V69.6552H177.241V61.3793Z" fill="black"/>
<path d="M202.069 61.3793H210.345V69.6552H202.069V61.3793Z" fill="black"/>
<path d="M251.724 61.3793H260V69.6552H251.724V61.3793Z" fill="black"/>
<path d="M20 69.6552H28.2759V77.931H20V69.6552Z" fill="black"/>
<path d="M28.2759 69.6552H36.5517V77.931H28.2759V69.6552Z" fill="black"/>
<path d="M36.5517 69.6552H44.8276V77.931H36.5517V69.6552Z" fill="black"/>
<path d="M44.8276 69.6552H53.1035V77.931H44.8276V69.6552Z" fill="black"/>
<path d="M53.1035 69.6552H61.3793V77.931H53.1035V69.6552Z" fill="black"/>
<path d="M61.3793 69.6552H69.6552V77.931H61.3793V69.6552Z" fill="black"/>
<path d="M69.6552 69.6552H77.931V77.931H69.6552V69.6552Z" fill="black"/>
<path d="M86.2069 69.6552H94.4828V77.931H86.2069V69.6552Z" fill="black"/>
<path d="M102.759 69.6552H111.034V77.931H102.759V69.6552Z" fill="black"/>
<path d="M119.31 69.6552H127.586V77.931H119.31V69.6552Z" fill="black"/>
<path d="M135.862 69.6552H144.138V77.931H135.862V69.6552Z" fill="black"/>
<path d="M152.414 69.6552H160.69V77.931H152.414V69.6552Z" fill="black"/>
<path d="M168.966 69.6552H177.241V77.931H168.966V69.6552Z" fill="black"/>
<path d="M185.517 69.6552H193.793V77.931H185.517V69.6552Z" fill="black"/>
<path d="M202.069 69.6552H210.345V77.931H202.069V69.6552Z" fill="black"/>
<path d="M210.345 69.6552H218.621V77.931H210.345V69.6552Z" fill="black"/>
<path d="M218.621 69.6552H226.897V77.931H218.621V69.6552Z" fill="black"/>
<path d="M226.897 69.6552H235.172V77.931H226.897V69.6552Z" fill="black"/>
<path d="M235.172 69.6552H243.448V77.931H235.172V69.6552Z" fill="black"/>
<path d="M243.448 69.6552H251.724V77.931H243.448V69.6552Z" fill="black"/>
<path d="M251.724 69.6552H260V77.931H251.724V69.6552Z" fill="black"/>
<path d="M86.2069 77.931H94.4828V86.2069H86.2069V77.931Z" fill="black"/>
<path d="M111.034 77.931H119.31V86.2069H111.034V77.931Z" fill="black"/>
<path d="M119.31 77.931H127.586V86.2069H119.31V77.931Z" fill="black"/>
<path d="M135.862 77.931H144.138V86.2069H135.862V77.931Z" fill="black"/>
<path d="M152.414 77.931H160.69V86.2069H152.414V77.931Z" fill="black"/>
<path d="M36.5517 86.2069H44.8276V94.4828H36.5517V86.2069Z" fill="black"/>
<path d="M44.8276 86.2069H53.1035V94.4828H44.8276V86.2069Z" fill="black"/>
<path d="M69.6552 86.2069H77.931V94.4828H69.6552V86.2069Z" fill="black"/>
<path d="M77.931 86.2069H86.2069V94.4828H77.931V86.2069Z" fill="black"/>
<path d="M86.2069 86.2069H94.4828V94.4828H86.2069V86.2069Z" fill="black"/>
<path d="M127.586 86.2069H135.862V94.4828H127.586V86.2069Z" fill="black"/>
<path d="M152.414 86.2069H160.69V94.4828H152.414V86.2069Z" fill="black"/>
<path d="M168.966 86.2069H177.241V94.4828H168.966V86.2069Z" fill="black"/>
<path d="M177.241 86.2069H185.517V94.4828H177.241V86.2069Z" fill="black"/>
<path d="M193.793 86.2069H202.069V94.4828H193.793V86.2069Z" fill="black"/>
<path d="M202.069 86.2069H210.345V94.4828H202.069V86.2069Z" fill="black"/>
<path d="M218.621 86.2069H226.897V94.4828H218.621V86.2069Z" fill="black"/>
<path d="M20 94.4828H28.2759V102.759H20V94.4828Z" fill="black"/>
<path d="M28.2759 94.4828H36.5517V102.759H28.2759V94.4828Z" fill="black"/>
<path d="M44.8276 94.4828H53.1035V102.759H44.8276V94.4828Z" fill="black"/>
<path d="M77.931 94.4828H86.2069V102.759H77.931V94.4828Z" fill="black"/>
<path d="M86.2069 94.4828H94.4828V102.759H86.2069V94.4828Z" fill="black"/>
<path d="M94.4828 94.4828H102.759V102.759H94.4828V94.4828Z" fill="black"/>
<path d="M102.759 94.4828H111.034V102.759H102.759V94.4828Z" fill="black"/>
<path d="M111.034 94.4828H119.31V102.759H111.034V94.4828Z" fill="black"/>
<path d="M127.586 94.4828H135.862V102.759H127.586V94.4828Z" fill="black"/>
<path d="M144.138 94.4828H152.414V102.759H144.138V94.4828Z" fill="black"/>
<path d="M168.966 94.4828H177.241V102.759H168.966V94.4828Z" fill="black"/>
<path d="M185.517 94.4828H193.793V102.759H185.517V94.4828Z" fill="black"/>
<path d="M193.793 94.4828H202.069V102.759H193.793V94.4828Z" fill="black"/>
<path d="M210.345 94.4828H218.621V102.759H210.345V94.4828Z" fill="black"/>
<path d="M226.897 94.4828H235.172V102.759H226.897V94.4828Z" fill="black"/>
<path d="M251.724 94.4828H260V102.759H251.724V94.4828Z" fill="black"/>
<path d="M44.8276 102.759H53.1035V111.034H44.8276V102.759Z" fill="black"/>
<path d="M53.1035 102.759H61.3793V111.034H53.1035V102.759Z" fill="black"/>
<path d="M61.3793 102.759H69.6552V111.034H61.3793V102.759Z" fill="black"/>
<path d="M69.6552 102.759H77.931V111.034H69.6552V102.759Z" fill="black"/>
<path d="M77.931 102.759H86.2069V111.034H77.931V102.759Z" fill="black"/>
<path d="M94.4828 102.759H102.759V111.034H94.4828V102.759Z" fill="black"/>
<path d="M102.759 102.759H111.034V111.034H102.759V102.759Z" fill="black"/>
<path d="M111.034 102.759H119.31V111.034H111.034V102.759Z" fill="black"/>
<path d="M119.31 102.759H127.586V111.034H119.31V102.759Z" fill="black"/>
<path d="M152.414 102.759H160.69V111.034H152.414V102.759Z" fill="black"/>
<path d="M177.241 102.759H185.517V111.034H177.241V102.759Z" fill="black"/>
<path d="M185.517 102.759H193.793V111.034H185.517V102.759Z" fill="black"/>
<path d="M210.345 102.759H218.621V111.034H210.345V102.759Z" fill="black"/>
<path d="M218.621 102.759H226.897V111.034H218.621V102.759Z" fill="black"/>
<path d="M226.897 102.759H235.172V111.034H226.897V102.759Z" fill="black"/>
<path d="M243.448 102.759H251.724V111.034H243.448V102.759Z" fill="black"/>
<path d="M20 111.034H28.2759V119.31H20V111.034Z" fill="black"/>
<path d="M28.2759 111.034H36.5517V119.31H28.2759V111.034Z" fill="black"/>
<path d="M44.8276 111.034H53.1035V119.31H44.8276V111.034Z" fill="black"/>
<path d="M61.3793 111.034H69.6552V119.31H61.3793V111.034Z" fill="black"/>
<path d="M111.034 111.034H119.31V119.31H111.034V111.034Z" fill="black"/>
<path d="M135.862 111.034H144.138V119.31H135.862V111.034Z" fill="black"/>
<path d="M152.414 111.034H160.69V119.31H152.414V111.034Z" fill="black"/>
<path d="M168.966 111.034H177.241V119.31H168.966V111.034Z" fill="black"/>
<path d="M185.517 111.034H193.793V119.31H185.517V111.034Z" fill="black"/>
<path d="M193.793 111.034H202.069V119.31H193.793V111.034Z" fill="black"/>
<path d="M202.069 111.034H210.345V119.31H202.069V111.034Z" fill="black"/>
<path d="M210.345 111.034H218.621V119.31H210.345V111.034Z" fill="black"/>
<path d="M218.621 111.034H226.897V119.31H218.621V111.034Z" fill="black"/>
<path d="M226.897 111.034H235.172V119.31H226.897V111.034Z" fill="black"/>
<path d="M20 119.31H28.2759V127.586H20V119.31Z" fill="black"/>
<path d="M28.2759 119.31H36.5517V127.586H28.2759V119.31Z" fill="black"/>
<path d="M36.5517 119.31H44.8276V127.586H36.5517V119.31Z" fill="black"/>
<path d="M44.8276 119.31H53.1035V127.586H44.8276V119.31Z" fill="black"/>
<path d="M53.1035 119.31H61.3793V127.586H53.1035V119.31Z" fill="black"/>
<path d="M69.6552 119.31H77.931V127.586H69.6552V119.31Z" fill="black"/>
<path d="M94.4828 119.31H102.759V127.586H94.4828V119.31Z" fill="black"/>
<path d="M102.759 119.31H111.034V127.586H102.759V119.31Z" fill="black"/>
<path d="M111.034 119.31H119.31V127.586H111.034V119.31Z" fill="black"/>
<path d="M119.31 119.31H127.586V127.586H119.31V119.31Z" fill="black"/>
<path d="M135.862 119.31H144.138V127.586H135.862V119.31Z" fill="black"/>
<path d="M152.414 119.31H160.69V127.586H152.414V119.31Z" fill="black"/>
<path d="M177.241 119.31H185.517V127.586H177.241V119.31Z" fill="black"/>
<path d="M193.793 119.31H202.069V127.586H193.793V119.31Z" fill="black"/>
<path d="M210.345 119.31H218.621V127.586H210.345V119.31Z" fill="black"/>
<path d="M226.897 119.31H235.172V127.586H226.897V119.31Z" fill="black"/>
<path d="M235.172 119.31H243.448V127.586H235.172V119.31Z" fill="black"/>
<path d="M36.5517 127.586H44.8276V135.862H36.5517V127.586Z" fill="black"/>
<path d="M44.8276 127.586H53.1035V135.862H44.8276V127.586Z" fill="black"/>
<path d="M53.1035 127.586H61.3793V135.862H53.1035V127.586Z" fill="black"/>
<path d="M61.3793 127.586H69.6552V135.862H61.3793V127.586Z" fill="black"/>
<path d="M86.2069 127.586H94.4828V135.862H86.2069V127.586Z" fill="black"/>
<path d="M111.034 127.586H119.31V135.862H111.034V127.586Z" fill="black"/>
<path d="M119.31 127.586H127.586V135.862H119.31V127.586Z" fill="black"/>
<path d="M127.586 127.586H135.862V135.862H127.586V127.586Z" fill="black"/>
<path d="M135.862 127.586H144.138V135.862H135.862V127.586Z" fill="black"/>
<path d="M160.69 127.586H168.966V135.862H160.69V127.586Z" fill="black"/>
<path d="M177.241 127.586H185.517V135.862H177.241V127.586Z" fill="black"/>
<path d="M202.069 127.586H210.345V135.862H202.069V127.586Z" fill="black"/>
<path d="M210.345 127.586H218.621V135.862H210.345V127.586Z" fill="black"/>
<path d="M243.448 127.586H251.724V135.862H243.448V127.586Z" fill="black"/>
<path d="M20 135.862H28.2759V144.138H20V135.862Z" fill="black"/>
<path d="M28.2759 135.862H36.5517V144.138H28.2759V135.862Z" fill="black"/>
<path d="M36.5517 135.862H44.8276V144.138H36.5517V135.862Z" fill="black"/>
<path d="M44.8276 135.862H53.1035V144.138H44.8276V135.862Z" fill="black"/>
<path d="M61.3793 135.862H69.6552V144.138H61.3793V135.862Z" fill="black"/>
<path d="M69.6552 135.862H77.931V144.138H69.6552V135.862Z" fill="black"/>
<path d="M77.931 135.862H86.2069V144.138H77.931V135.862Z" fill="black"/>
<path d="M94.4828 135.862H102.759V144.138H94.4828V135.862Z" fill="black"/>
<path d="M102.759 135.862H111.034V144.138H102.759V135.862Z" fill="black"/>
<path d="M119.31 135.862H127.586V144.138H119.31V135.862Z" fill="black"/>
<path d="M144.138 135.862H152.414V144.138H144.138V135.862Z" fill="black"/>
<path d="M168.966 135.862H177.241V144.138H168.966V135.862Z" fill="black"/>
<path d="M177.241 135.862H185.517V144.138H177.241V135.862Z" fill="black"/>
<path d="M202.069 135.862H210.345V144.138H202.069V135.862Z" fill="black"/>
<path d="M210.345 135.862H218.621V144.138H210.345V135.862Z" fill="black"/>
<path d="M226.897 135.862H235.172V144.138H226.897V135.862Z" fill="black"/>
<path d="M243.448 135.862H251.724V144.138H243.448V135.862Z" fill="black"/>
<path d="M251.724 135.862H260V144.138H251.724V135.862Z" fill="black"/>
<path d="M20 144.138H28.2759V152.414H20V144.138Z" fill="black"/>
<path d="M36.5517 144.138H44.8276V152.414H36.5517V144.138Z" fill="black"/>
<path d="M44.8276 144.138H53.1035V152.414H44.8276V144.138Z" fill="black"/>
<path d="M61.3793 144.138H69.6552V152.414H61.3793V144.138Z" fill="black"/>
<path d="M77.931 144.138H86.2069V152.414H77.931V144.138Z" fill="black"/>
<path d="M94.4828 144.138H102.759V152.414H94.4828V144.138Z" fill="black"/>
<path d="M119.31 144.138H127.586V152.414H119.31V144.138Z" fill="black"/>
<path d="M135.862 144.138H144.138V152.414H135.862V144.138Z" fill="black"/>
<path d="M144.138 144.138H152.414V152.414H144.138V144.138Z" fill="black"/>
<path d="M152.414 144.138H160.69V152.414H152.414V144.138Z" fill="black"/>
<path d="M177.241 144.138H185.517V152.414H177.241V144.138Z" fill="black"/>
<path d="M185.517 144.138H193.793V152.414H185.517V144.138Z" fill="black"/>
<path d="M226.897 144.138H235.172V152.414H226.897V144.138Z" fill="black"/>
<path d="M243.448 144.138H251.724V152.414H243.448V144.138Z" fill="black"/>
<path d="M251.724 144.138H260V152.414H251.724V144.138Z" fill="black"/>
<path d="M20 152.414H28.2759V160.69H20V152.414Z" fill="black"/>
<path d="M36.5517 152.414H44.8276V160.69H36.5517V152.414Z" fill="black"/>
<path d="M44.8276 152.414H53.1035V160.69H44.8276V152.414Z" fill="black"/>
<path d="M69.6552 152.414H77.931V160.69H69.6552V152.414Z" fill="black"/>
<path d="M86.2069 152.414H94.4828V160.69H86.2069V152.414Z" fill="black"/>
<path d="M94.4828 152.414H102.759V160.69H94.4828V152.414Z" fill="black"/>
<path d="M102.759 152.414H111.034V160.69H102.759V152.414Z" fill="black"/>
<path d="M111.034 152.414H119.31V160.69H111.034V152.414Z" fill="black"/>
<path d="M135.862 152.414H144.138V160.69H135.862V152.414Z" fill="black"/>
<path d="M152.414 152.414H160.69V160.69H152.414V152.414Z" fill="black"/>
<path d="M168.966 152.414H177.241V160.69H168.966V152.414Z" fill="black"/>
<path d="M177.241 152.414H185.517V160.69H177.241V152.414Z" fill="black"/>
<path d="M226.897 152.414H235.172V160.69H226.897V152.414Z" fill="black"/>
<path d="M243.448 152.414H251.724V160.69H243.448V152.414Z" fill="black"/>
<path d="M44.8276 160.69H53.1035V168.966H44.8276V160.69Z" fill="black"/>
<path d="M94.4828 160.69H102.759V168.966H94.4828V160.69Z" fill="black"/>
<path d="M127.586 160.69H135.862V168.966H127.586V160.69Z" fill="black"/>
<path d="M135.862 160.69H144.138V168.966H135.862V160.69Z" fill="black"/>
<path d="M152.414 160.69H160.69V168.966H152.414V160.69Z" fill="black"/>
<path d="M177.241 160.69H185.517V168.966H177.241V160.69Z" fill="black"/>
<path d="M193.793 160.69H202.069V168.966H193.793V160.69Z" fill="black"/>
<path d="M202.069 160.69H210.345V168.966H202.069V160.69Z" fill="black"/>
<path d="M243.448 160.69H251.724V168.966H243.448V160.69Z" fill="black"/>
<path d="M20 168.966H28.2759V177.241H20V168.966Z" fill="black"/>
<path d="M44.8276 168.966H53.1035V177.241H44.8276V168.966Z" fill="black"/>
<path d="M53.1035 168.966H61.3793V177.241H53.1035V168.966Z" fill="black"/>
<path d="M61.3793 168.966H69.6552V177.241H61.3793V168.966Z" fill="black"/>
<path d="M69.6552 168.966H77.931V177.241H69.6552V168.966Z" fill="black"/>
<path d="M86.2069 168.966H94.4828V177.241H86.2069V168.966Z" fill="black"/>
<path d="M111.034 168.966H119.31V177.241H111.034V168.966Z" fill="black"/>
<path d="M119.31 168.966H127.586V177.241H119.31V168.966Z" fill="black"/>
<path d="M135.862 168.966H144.138V177.241H135.862V168.966Z" fill="black"/>
<path d="M152.414 168.966H160.69V177.241H152.414V168.966Z" fill="black"/>
<path d="M160.69 168.966H168.966V177.241H160.69V168.966Z" fill="black"/>
<path d="M185.517 168.966H193.793V177.241H185.517V168.966Z" fill="black"/>
<path d="M202.069 168.966H210.345V177.241H202.069V168.966Z" fill="black"/>
<path d="M210.345 168.966H218.621V177.241H210.345V168.966Z" fill="black"/>
<path d="M218.621 168.966H226.897V177.241H218.621V168.966Z" fill="black"/>
<path d="M226.897 168.966H235.172V177.241H226.897V168.966Z" fill="black"/>
<path d="M235.172 168.966H243.448V177.241H235.172V168.966Z" fill="black"/>
<path d="M243.448 168.966H251.724V177.241H243.448V168.966Z" fill="black"/>
<path d="M36.5517 177.241H44.8276V185.517H36.5517V177.241Z" fill="black"/>
<path d="M61.3793 177.241H69.6552V185.517H61.3793V177.241Z" fill="black"/>
<path d="M86.2069 177.241H94.4828V185.517H86.2069V177.241Z" fill="black"/>
<path d="M111.034 177.241H119.31V185.517H111.034V177.241Z" fill="black"/>
<path d="M152.414 177.241H160.69V185.517H152.414V177.241Z" fill="black"/>
<path d="M160.69 177.241H168.966V185.517H160.69V177.241Z" fill="black"/>
<path d="M168.966 177.241H177.241V185.517H168.966V177.241Z" fill="black"/>
<path d="M185.517 177.241H193.793V185.517H185.517V177.241Z" fill="black"/>
<path d="M202.069 177.241H210.345V185.517H202.069V177.241Z" fill="black"/>
<path d="M210.345 177.241H218.621V185.517H210.345V177.241Z" fill="black"/>
<path d="M235.172 177.241H243.448V185.517H235.172V177.241Z" fill="black"/>
<path d="M243.448 177.241H251.724V185.517H243.448V177.241Z" fill="black"/>
<path d="M251.724 177.241H260V185.517H251.724V177.241Z" fill="black"/>
<path d="M28.2759 185.517H36.5517V193.793H28.2759V185.517Z" fill="black"/>
<path d="M36.5517 185.517H44.8276V193.793H36.5517V185.517Z" fill="black"/>
<path d="M69.6552 185.517H77.931V193.793H69.6552V185.517Z" fill="black"/>
<path d="M77.931 185.517H86.2069V193.793H77.931V185.517Z" fill="black"/>
<path d="M86.2069 185.517H94.4828V193.793H86.2069V185.517Z" fill="black"/>
<path d="M102.759 185.517H111.034V193.793H102.759V185.517Z" fill="black"/>
<path d="M127.586 185.517H135.862V193.793H127.586V185.517Z" fill="black"/>
<path d="M135.862 185.517H144.138V193.793H135.862V185.517Z" fill="black"/>
<path d="M144.138 185.517H152.414V193.793H144.138V185.517Z" fill="black"/>
<path d="M177.241 185.517H185.517V193.793H177.241V185.517Z" fill="black"/>
<path d="M185.517 185.517H193.793V193.793H185.517V185.517Z" fill="black"/>
<path d="M193.793 185.517H202.069V193.793H193.793V185.517Z" fill="black"/>
<path d="M202.069 185.517H210.345V193.793H202.069V185.517Z" fill="black"/>
<path d="M210.345 185.517H218.621V193.793H210.345V185.517Z" fill="black"/>
<path d="M218.621 185.517H226.897V193.793H218.621V185.517Z" fill="black"/>
<path d="M226.897 185.517H235.172V193.793H226.897V185.517Z" fill="black"/>
<path d="M243.448 185.517H251.724V193.793H243.448V185.517Z" fill="black"/>
<path d="M86.2069 193.793H94.4828V202.069H86.2069V193.793Z" fill="black"/>
<path d="M94.4828 193.793H102.759V202.069H94.4828V193.793Z" fill="black"/>
<path d="M111.034 193.793H119.31V202.069H111.034V193.793Z" fill="black"/>
<path d="M119.31 193.793H127.586V202.069H119.31V193.793Z" fill="black"/>
<path d="M127.586 193.793H135.862V202.069H127.586V193.793Z" fill="black"/>
<path d="M135.862 193.793H144.138V202.069H135.862V193.793Z" fill="black"/>
<path d="M144.138 193.793H152.414V202.069H144.138V193.793Z" fill="black"/>
<path d="M152.414 193.793H160.69V202.069H152.414V193.793Z" fill="black"/>
<path d="M185.517 193.793H193.793V202.069H185.517V193.793Z" fill="black"/>
<path d="M218.621 193.793H226.897V202.069H218.621V193.793Z" fill="black"/>
<path d="M226.897 193.793H235.172V202.069H226.897V193.793Z" fill="black"/>
<path d="M243.448 193.793H251.724V202.069H243.448V193.793Z" fill="black"/>
<path d="M251.724 193.793H260V202.069H251.724V193.793Z" fill="black"/>
<path d="M20 202.069H28.2759V210.345H20V202.069Z" fill="black"/>
<path d="M28.2759 202.069H36.5517V210.345H28.2759V202.069Z" fill="black"/>
<path d="M36.5517 202.069H44.8276V210.345H36.5517V202.069Z" fill="black"/>
<path d="M44.8276 202.069H53.1035V210.345H44.8276V202.069Z" fill="black"/>
<path d="M53.1035 202.069H61.3793V210.345H53.1035V202.069Z" fill="black"/>
<path d="M61.3793 202.069H69.6552V210.345H61.3793V202.069Z" fill="black"/>
<path d="M69.6552 202.069H77.931V210.345H69.6552V202.069Z" fill="black"/>
<path d="M86.2069 202.069H94.4828V210.345H86.2069V202.069Z" fill="black"/>
<path d="M94.4828 202.069H102.759V210.345H94.4828V202.069Z" fill="black"/>
<path d="M102.759 202.069H111.034V210.345H102.759V202.069Z" fill="black"/>
<path d="M127.586 202.069H135.862V210.345H127.586V202.069Z" fill="black"/>
<path d="M144.138 202.069H152.414V210.345H144.138V202.069Z" fill="black"/>
<path d="M152.414 202.069H160.69V210.345H152.414V202.069Z" fill="black"/>
<path d="M168.966 202.069H177.241V210.345H168.966V202.069Z" fill="black"/>
<path d="M177.241 202.069H185.517V210.345H177.241V202.069Z" fill="black"/>
<path d="M185.517 202.069H193.793V210.345H185.517V202.069Z" fill="black"/>
<path d="M202.069 202.069H210.345V210.345H202.069V202.069Z" fill="black"/>
<path d="M218.621 202.069H226.897V210.345H218.621V202.069Z" fill="black"/>
<path d="M243.448 202.069H251.724V210.345H243.448V202.069Z" fill="black"/>
<path d="M20 210.345H28.2759V218.621H20V210.345Z" fill="black"/>
<path d="M69.6552 210.345H77.931V218.621H69.6552V210.345Z" fill="black"/>
<path d="M102.759 210.345H111.034V218.621H102.759V210.345Z" fill="black"/>
<path d="M119.31 210.345H127.586V218.621H119.31V210.345Z" fill="black"/>
<path d="M127.586 210.345H135.862V218.621H127.586V210.345Z" fill="black"/>
<path d="M135.862 210.345H144.138V218.621H135.862V210.345Z" fill="black"/>
<path d="M152.414 210.345H160.69V218.621H152.414V210.345Z" fill="black"/>
<path d="M177.241 210.345H185.517V218.621H177.241V210.345Z" fill="black"/>
<path d="M185.517 210.345H193.793V218.621H185.517V210.345Z" fill="black"/>
<path d="M218.621 210.345H226.897V218.621H218.621V210.345Z" fill="black"/>
<path d="M243.448 210.345H251.724V218.621H243.448V210.345Z" fill="black"/>
<path d="M251.724 210.345H260V218.621H251.724V210.345Z" fill="black"/>
<path d="M20 218.621H28.2759V226.897H20V218.621Z" fill="black"/>
<path d="M36.5517 218.621H44.8276V226.897H36.5517V218.621Z" fill="black"/>
<path d="M44.8276 218.621H53.1035V226.897H44.8276V218.621Z" fill="black"/>
<path d="M53.1035 218.621H61.3793V226.897H53.1035V218.621Z" fill="black"/>
<path d="M69.6552 218.621H77.931V226.897H69.6552V218.621Z" fill="black"/>
<path d="M102.759 218.621H111.034V226.897H102.759V218.621Z" fill="black"/>
<path d="M119.31 218.621H127.586V226.897H119.31V218.621Z" fill="black"/>
<path d="M127.586 218.621H135.862V226.897H127.586V218.621Z" fill="black"/>
<path d="M185.517 218.621H193.793V226.897H185.517V218.621Z" fill="black"/>
<path d="M193.793 218.621H202.069V226.897H193.793V218.621Z" fill="black"/>
<path d="M202.069 218.621H210.345V226.897H202.069V218.621Z" fill="black"/>
<path d="M210.345 218.621H218.621V226.897H210.345V218.621Z" fill="black"/>
<path d="M218.621 218.621H226.897V226.897H218.621V218.621Z" fill="black"/>
<path d="M235.172 218.621H243.448V226.897H235.172V218.621Z" fill="black"/>
<path d="M20 226.897H28.2759V235.172H20V226.897Z" fill="black"/>
<path d="M36.5517 226.897H44.8276V235.172H36.5517V226.897Z" fill="black"/>
<path d="M44.8276 226.897H53.1035V235.172H44.8276V226.897Z" fill="black"/>
<path d="M53.1035 226.897H61.3793V235.172H53.1035V226.897Z" fill="black"/>
<path d="M69.6552 226.897H77.931V235.172H69.6552V226.897Z" fill="black"/>
<path d="M86.2069 226.897H94.4828V235.172H86.2069V226.897Z" fill="black"/>
<path d="M127.586 226.897H135.862V235.172H127.586V226.897Z" fill="black"/>
<path d="M135.862 226.897H144.138V235.172H135.862V226.897Z" fill="black"/>
<path d="M210.345 226.897H218.621V235.172H210.345V226.897Z" fill="black"/>
<path d="M218.621 226.897H226.897V235.172H218.621V226.897Z" fill="black"/>
<path d="M226.897 226.897H235.172V235.172H226.897V226.897Z" fill="black"/>
<path d="M20 235.172H28.2759V243.448H20V235.172Z" fill="black"/>
<path d="M36.5517 235.172H44.8276V243.448H36.5517V235.172Z" fill="black"/>
<path d="M44.8276 235.172H53.1035V243.448H44.8276V235.172Z" fill="black"/>
<path d="M53.1035 235.172H61.3793V243.448H53.1035V235.172Z" fill="black"/>
<path d="M69.6552 235.172H77.931V243.448H69.6552V235.172Z" fill="black"/>
<path d="M86.2069 235.172H94.4828V243.448H86.2069V235.172Z" fill="black"/>
<path d="M119.31 235.172H127.586V243.448H119.31V235.172Z" fill="black"/>
<path d="M127.586 235.172H135.862V243.448H127.586V235.172Z" fill="black"/>
<path d="M135.862 235.172H144.138V243.448H135.862V235.172Z" fill="black"/>
<path d="M144.138 235.172H152.414V243.448H144.138V235.172Z" fill="black"/>
<path d="M152.414 235.172H160.69V243.448H152.414V235.172Z" fill="black"/>
<path d="M160.69 235.172H168.966V243.448H160.69V235.172Z" fill="black"/>
<path d="M168.966 235.172H177.241V243.448H168.966V235.172Z" fill="black"/>
<path d="M185.517 235.172H193.793V243.448H185.517V235.172Z" fill="black"/>
<path d="M210.345 235.172H218.621V243.448H210.345V235.172Z" fill="black"/>
<path d="M226.897 235.172H235.172V243.448H226.897V235.172Z" fill="black"/>
<path d="M235.172 235.172H243.448V243.448H235.172V235.172Z" fill="black"/>
<path d="M251.724 235.172H260V243.448H251.724V235.172Z" fill="black"/>
<path d="M20 243.448H28.2759V251.724H20V243.448Z" fill="black"/>
<path d="M69.6552 243.448H77.931V251.724H69.6552V243.448Z" fill="black"/>
<path d="M94.4828 243.448H102.759V251.724H94.4828V243.448Z" fill="black"/>
<path d="M119.31 243.448H127.586V251.724H119.31V243.448Z" fill="black"/>
<path d="M127.586 243.448H135.862V251.724H127.586V243.448Z" fill="black"/>
<path d="M144.138 243.448H152.414V251.724H144.138V243.448Z" fill="black"/>
<path d="M202.069 243.448H210.345V251.724H202.069V243.448Z" fill="black"/>
<path d="M226.897 243.448H235.172V251.724H226.897V243.448Z" fill="black"/>
<path d="M235.172 243.448H243.448V251.724H235.172V243.448Z" fill="black"/>
<path d="M243.448 243.448H251.724V251.724H243.448V243.448Z" fill="black"/>
<path d="M20 251.724H28.2759V260H20V251.724Z" fill="black"/>
<path d="M28.2759 251.724H36.5517V260H28.2759V251.724Z" fill="black"/>
<path d="M36.5517 251.724H44.8276V260H36.5517V251.724Z" fill="black"/>
<path d="M44.8276 251.724H53.1035V260H44.8276V251.724Z" fill="black"/>
<path d="M53.1035 251.724H61.3793V260H53.1035V251.724Z" fill="black"/>
<path d="M61.3793 251.724H69.6552V260H61.3793V251.724Z" fill="black"/>
<path d="M69.6552 251.724H77.931V260H69.6552V251.724Z" fill="black"/>
<path d="M102.759 251.724H111.034V260H102.759V251.724Z" fill="black"/>
<path d="M168.966 251.724H177.241V260H168.966V251.724Z" fill="black"/>
<path d="M177.241 251.724H185.517V260H177.241V251.724Z" fill="black"/>
<path d="M202.069 251.724H210.345V260H202.069V251.724Z" fill="black"/>
<path d="M218.621 251.724H226.897V260H218.621V251.724Z" fill="black"/>
<path d="M235.172 251.724H243.448V260H235.172V251.724Z" fill="black"/>
<path d="M243.448 251.724H251.724V260H243.448V251.724Z" fill="black"/>
<path d="M28.2759 20H20V28.2759M28.2759 20V28.2759M28.2759 20H36.5517M28.2759 28.2759H20M28.2759 28.2759H36.5517M28.2759 28.2759V36.5517M20 28.2759V36.5517M36.5517 20V28.2759M36.5517 20H44.8276M36.5517 28.2759H44.8276M44.8276 20V28.2759M44.8276 20H53.1034M44.8276 28.2759H53.1034M53.1034 20V28.2759M53.1034 20H61.3793M53.1034 28.2759H61.3793M61.3793 20V28.2759M61.3793 20H69.6552M61.3793 28.2759H69.6552M69.6552 20V28.2759M69.6552 20H77.931V28.2759M69.6552 28.2759H77.931M69.6552 28.2759V36.5517M77.931 28.2759V36.5517M119.31 28.2759V20H111.034V28.2759H119.31ZM119.31 28.2759H127.586M119.31 28.2759V36.5517M135.862 20H127.586V28.2759M135.862 20V28.2759M135.862 20H144.138M135.862 28.2759H127.586M135.862 28.2759H144.138M135.862 28.2759V36.5517H127.586M127.586 28.2759V36.5517M144.138 20V28.2759M144.138 20H152.414M144.138 28.2759H152.414M144.138 28.2759V36.5517M152.414 20V28.2759M152.414 20H160.69M152.414 28.2759H160.69M152.414 28.2759V36.5517M160.69 20V28.2759M160.69 20H168.966V28.2759M160.69 28.2759H168.966M160.69 28.2759V36.5517M168.966 28.2759V36.5517M210.345 20H202.069V28.2759M210.345 20V28.2759M210.345 20H218.621M210.345 28.2759H202.069M210.345 28.2759H218.621M210.345 28.2759V36.5517M202.069 28.2759V36.5517M218.621 20V28.2759M218.621 20H226.897M218.621 28.2759H226.897M226.897 20V28.2759M226.897 20H235.172M226.897 28.2759H235.172M235.172 20V28.2759M235.172 20H243.448M235.172 28.2759H243.448M243.448 20V28.2759M243.448 20H251.724M243.448 28.2759H251.724M251.724 20V28.2759M251.724 20H260V28.2759M251.724 28.2759H260M251.724 28.2759V36.5517M260 28.2759V36.5517M28.2759 36.5517H20M28.2759 36.5517V44.8276M20 36.5517V44.8276M77.931 36.5517H69.6552M77.931 36.5517V44.8276M69.6552 36.5517V44.8276M102.759 36.5517V28.2759H94.4828V36.5517M102.759 36.5517H94.4828M102.759 36.5517V44.8276M102.759 36.5517H111.034M94.4828 36.5517V44.8276M127.586 36.5517H119.31M119.31 36.5517H111.034M119.31 36.5517V44.8276M152.414 36.5517H144.138M152.414 36.5517H160.69M152.414 36.5517V44.8276M144.138 36.5517V44.8276M160.69 36.5517H168.966M160.69 36.5517V44.8276M168.966 36.5517H177.241M168.966 36.5517V44.8276H177.241M210.345 36.5517H202.069M210.345 36.5517V44.8276M202.069 36.5517V44.8276M260 36.5517H251.724M260 36.5517V44.8276M251.724 36.5517V44.8276M28.2759 44.8276H20M28.2759 44.8276V53.1034M20 44.8276V53.1034M44.8276 36.5517H36.5517V44.8276M44.8276 36.5517V44.8276M44.8276 36.5517H53.1034M44.8276 44.8276H36.5517M44.8276 44.8276H53.1034M44.8276 44.8276V53.1034M36.5517 44.8276V53.1034M53.1034 36.5517V44.8276M53.1034 36.5517H61.3793V44.8276M53.1034 44.8276H61.3793M53.1034 44.8276V53.1034M61.3793 44.8276V53.1034M77.931 44.8276H69.6552M77.931 44.8276V53.1034M69.6552 44.8276V53.1034M102.759 44.8276H94.4828M102.759 44.8276H111.034M102.759 44.8276V53.1034M94.4828 44.8276V53.1034M111.034 36.5517V44.8276M111.034 44.8276H119.31M111.034 44.8276V53.1034H102.759M119.31 44.8276H127.586M119.31 44.8276V53.1034M152.414 44.8276H144.138M152.414 44.8276H160.69M152.414 44.8276V53.1034M144.138 44.8276H135.862M144.138 44.8276V53.1034M160.69 44.8276V53.1034M177.241 36.5517V44.8276M177.241 36.5517H185.517V44.8276M177.241 44.8276H185.517M185.517 44.8276H193.793V53.1034H185.517M185.517 44.8276V53.1034M210.345 44.8276H202.069M210.345 44.8276V53.1034M202.069 44.8276V53.1034M226.897 36.5517H218.621V44.8276M226.897 36.5517V44.8276M226.897 36.5517H235.172M226.897 44.8276H218.621M226.897 44.8276H235.172M226.897 44.8276V53.1034M218.621 44.8276V53.1034M235.172 36.5517V44.8276M235.172 36.5517H243.448V44.8276M235.172 44.8276H243.448M235.172 44.8276V53.1034M243.448 44.8276V53.1034M260 44.8276H251.724M260 44.8276V53.1034M251.724 44.8276V53.1034M28.2759 53.1034H20M28.2759 53.1034V61.3793M20 53.1034V61.3793M44.8276 53.1034H36.5517M44.8276 53.1034H53.1034M44.8276 53.1034V61.3793M36.5517 53.1034V61.3793H44.8276M53.1034 53.1034H61.3793M53.1034 53.1034V61.3793M61.3793 53.1034V61.3793H53.1034M77.931 53.1034H69.6552M77.931 53.1034V61.3793M69.6552 53.1034V61.3793M102.759 53.1034H94.4828M102.759 53.1034V61.3793M94.4828 53.1034H86.2069V61.3793H94.4828M94.4828 53.1034V61.3793M127.586 44.8276V53.1034M127.586 44.8276H135.862M127.586 53.1034H119.31M127.586 53.1034H135.862M127.586 53.1034V61.3793M119.31 53.1034V61.3793M135.862 44.8276V53.1034M135.862 53.1034H144.138M144.138 53.1034H152.414M144.138 53.1034V61.3793H152.414M160.69 53.1034H152.414M160.69 53.1034V61.3793M152.414 53.1034V61.3793M185.517 53.1034H177.241V61.3793M185.517 53.1034V61.3793M210.345 53.1034H202.069M210.345 53.1034V61.3793M202.069 53.1034V61.3793M226.897 53.1034H218.621M226.897 53.1034H235.172M226.897 53.1034V61.3793M218.621 53.1034V61.3793H226.897M235.172 53.1034H243.448M235.172 53.1034V61.3793M243.448 53.1034V61.3793H235.172M260 53.1034H251.724M260 53.1034V61.3793M251.724 53.1034V61.3793M28.2759 61.3793H20M28.2759 61.3793V69.6552M20 61.3793V69.6552M44.8276 61.3793H53.1034M77.931 61.3793H69.6552M77.931 61.3793V69.6552M69.6552 61.3793V69.6552M94.4828 61.3793H102.759M94.4828 61.3793V69.6552M102.759 61.3793V69.6552M102.759 61.3793H111.034V69.6552M127.586 61.3793H119.31M127.586 61.3793V69.6552M127.586 61.3793H135.862V69.6552M119.31 61.3793V69.6552M152.414 61.3793H160.69M152.414 61.3793V69.6552M160.69 61.3793V69.6552M160.69 61.3793H168.966M185.517 61.3793H177.241M185.517 61.3793V69.6552M177.241 61.3793H168.966M177.241 61.3793V69.6552M210.345 61.3793H202.069M210.345 61.3793V69.6552M202.069 61.3793V69.6552M226.897 61.3793H235.172M260 61.3793H251.724M260 61.3793V69.6552M251.724 61.3793V69.6552M28.2759 69.6552H20M28.2759 69.6552V77.931M28.2759 69.6552H36.5517M20 69.6552V77.931H28.2759M77.931 69.6552H69.6552M77.931 69.6552V77.931H69.6552M69.6552 69.6552H61.3793M69.6552 69.6552V77.931M102.759 69.6552H94.4828M102.759 69.6552H111.034M102.759 69.6552V77.931H111.034M94.4828 69.6552H86.2069V77.931M94.4828 69.6552V77.931M111.034 69.6552V77.931M127.586 69.6552H119.31M127.586 69.6552H135.862M127.586 69.6552V77.931M119.31 69.6552V77.931M135.862 69.6552H144.138V77.931M135.862 69.6552V77.931M160.69 69.6552H152.414M160.69 69.6552H168.966M160.69 69.6552V77.931M152.414 69.6552V77.931M168.966 61.3793V69.6552M168.966 69.6552H177.241M168.966 69.6552V77.931H177.241V69.6552M177.241 69.6552H185.517M185.517 69.6552H193.793V77.931H185.517V69.6552ZM210.345 69.6552H202.069M210.345 69.6552V77.931M210.345 69.6552H218.621M202.069 69.6552V77.931H210.345M260 69.6552H251.724M260 69.6552V77.931H251.724M251.724 69.6552H243.448M251.724 69.6552V77.931M28.2759 77.931H36.5517M36.5517 69.6552V77.931M36.5517 69.6552H44.8276M36.5517 77.931H44.8276M44.8276 69.6552V77.931M44.8276 69.6552H53.1034M44.8276 77.931H53.1034M53.1034 69.6552V77.931M53.1034 69.6552H61.3793M53.1034 77.931H61.3793M61.3793 69.6552V77.931M61.3793 77.931H69.6552M94.4828 77.931H86.2069M94.4828 77.931V86.2069M86.2069 77.931V86.2069M111.034 77.931H119.31M111.034 77.931V86.2069H119.31M127.586 77.931H119.31M127.586 77.931V86.2069M119.31 77.931V86.2069M144.138 77.931H135.862M144.138 77.931V86.2069H135.862M135.862 77.931V86.2069M160.69 77.931H152.414M160.69 77.931V86.2069M152.414 77.931V86.2069M210.345 77.931H218.621M218.621 69.6552V77.931M218.621 69.6552H226.897M218.621 77.931H226.897M226.897 69.6552V77.931M226.897 69.6552H235.172M226.897 77.931H235.172M235.172 69.6552V77.931M235.172 69.6552H243.448M235.172 77.931H243.448M243.448 69.6552V77.931M243.448 77.931H251.724M94.4828 86.2069H86.2069M94.4828 86.2069V94.4828M86.2069 86.2069H77.931M86.2069 86.2069V94.4828M119.31 86.2069H127.586M127.586 86.2069H135.862M127.586 86.2069V94.4828M135.862 86.2069V94.4828M160.69 86.2069H152.414M160.69 86.2069V94.4828H152.414M152.414 86.2069V94.4828M44.8276 86.2069H36.5517V94.4828M44.8276 86.2069V94.4828M44.8276 86.2069H53.1034V94.4828M44.8276 94.4828H36.5517M44.8276 94.4828H53.1034M44.8276 94.4828V102.759M36.5517 94.4828H28.2759M36.5517 94.4828V102.759H28.2759M53.1034 94.4828V102.759M77.931 86.2069H69.6552V94.4828H77.931M77.931 86.2069V94.4828M77.931 94.4828H86.2069M77.931 94.4828V102.759M86.2069 94.4828H94.4828M86.2069 94.4828V102.759M94.4828 94.4828V102.759M94.4828 94.4828H102.759M135.862 94.4828H127.586M135.862 94.4828V102.759H127.586M127.586 94.4828V102.759M152.414 94.4828H144.138V102.759H152.414M152.414 94.4828V102.759M177.241 86.2069H168.966V94.4828M177.241 86.2069V94.4828M177.241 86.2069H185.517V94.4828M177.241 94.4828H168.966M177.241 94.4828H185.517M177.241 94.4828V102.759M168.966 94.4828V102.759H177.241M185.517 94.4828H193.793M185.517 94.4828V102.759M202.069 86.2069H193.793V94.4828M202.069 86.2069V94.4828M202.069 86.2069H210.345V94.4828M202.069 94.4828H193.793M202.069 94.4828H210.345M202.069 94.4828V102.759H193.793M193.793 94.4828V102.759M210.345 94.4828H218.621M210.345 94.4828V102.759M226.897 94.4828V86.2069H218.621V94.4828M226.897 94.4828H218.621M226.897 94.4828H235.172V102.759M226.897 94.4828V102.759M218.621 94.4828V102.759M28.2759 94.4828H20V102.759H28.2759M28.2759 94.4828V102.759M53.1034 102.759H44.8276M53.1034 102.759V111.034M53.1034 102.759H61.3793M44.8276 102.759V111.034M86.2069 102.759H77.931M86.2069 102.759H94.4828M86.2069 102.759V111.034H77.931M77.931 102.759H69.6552M77.931 102.759V111.034M94.4828 102.759H102.759M94.4828 102.759V111.034H102.759M102.759 94.4828V102.759M102.759 94.4828H111.034M102.759 102.759H111.034M102.759 102.759V111.034M111.034 94.4828V102.759M111.034 94.4828H119.31V102.759M111.034 102.759H119.31M111.034 102.759V111.034M119.31 102.759V111.034M119.31 102.759H127.586M127.586 102.759V111.034H119.31M152.414 102.759H160.69V111.034M152.414 102.759V111.034M177.241 102.759H185.517M177.241 102.759V111.034M193.793 102.759H185.517M193.793 102.759V111.034M185.517 102.759V111.034M218.621 102.759H210.345M218.621 102.759V111.034M218.621 102.759H226.897M210.345 102.759V111.034M235.172 102.759H226.897M235.172 102.759V111.034M226.897 102.759V111.034M251.724 102.759H260V94.4828H251.724V102.759ZM251.724 102.759H243.448V111.034H251.724V102.759ZM53.1034 111.034H44.8276M53.1034 111.034H61.3793M53.1034 111.034V119.31M44.8276 111.034V119.31M61.3793 102.759V111.034M61.3793 102.759H69.6552M61.3793 111.034H69.6552M61.3793 111.034V119.31M69.6552 102.759V111.034M69.6552 111.034H77.931M69.6552 111.034V119.31M102.759 111.034H111.034M111.034 111.034H119.31M111.034 111.034V119.31M119.31 111.034V119.31M160.69 111.034H152.414M160.69 111.034V119.31M152.414 111.034V119.31M185.517 111.034H177.241M185.517 111.034H193.793M185.517 111.034V119.31M177.241 111.034H168.966V119.31H177.241M177.241 111.034V119.31M193.793 111.034V119.31M193.793 111.034H202.069M218.621 111.034H210.345M218.621 111.034H226.897M218.621 111.034V119.31M210.345 111.034H202.069M210.345 111.034V119.31M226.897 111.034H235.172M226.897 111.034V119.31M235.172 111.034V119.31M28.2759 111.034H20V119.31M28.2759 111.034V119.31M28.2759 111.034H36.5517V119.31M28.2759 119.31H20M28.2759 119.31H36.5517M28.2759 119.31V127.586M20 119.31V127.586H28.2759M36.5517 119.31V127.586M36.5517 119.31H44.8276M53.1034 119.31H44.8276M53.1034 119.31V127.586M53.1034 119.31H61.3793M44.8276 119.31V127.586M69.6552 119.31H61.3793M69.6552 119.31H77.931V127.586H69.6552M69.6552 119.31V127.586M61.3793 119.31V127.586M119.31 119.31H111.034M119.31 119.31V127.586M119.31 119.31H127.586V127.586M111.034 119.31H102.759M111.034 119.31V127.586M144.138 119.31V111.034H135.862V119.31M144.138 119.31H135.862M144.138 119.31V127.586M135.862 119.31V127.586M160.69 119.31H152.414M160.69 119.31V127.586M152.414 119.31V127.586H160.69M177.241 119.31H185.517M177.241 119.31V127.586M193.793 119.31H185.517M193.793 119.31H202.069M193.793 119.31V127.586H202.069M185.517 119.31V127.586M202.069 111.034V119.31M202.069 119.31H210.345M202.069 119.31V127.586M210.345 119.31H218.621M210.345 119.31V127.586M218.621 119.31H226.897M218.621 119.31V127.586M226.897 119.31H235.172M226.897 119.31V127.586H235.172M235.172 119.31V127.586M235.172 119.31H243.448V127.586M28.2759 127.586H36.5517M36.5517 127.586H44.8276M36.5517 127.586V135.862M44.8276 127.586H53.1034M44.8276 127.586V135.862M53.1034 127.586H61.3793M53.1034 127.586V135.862M61.3793 127.586V135.862M61.3793 127.586H69.6552M69.6552 127.586V135.862M102.759 119.31H94.4828V127.586M102.759 119.31V127.586M102.759 127.586H94.4828M102.759 127.586H111.034M94.4828 127.586H86.2069V135.862M94.4828 127.586V135.862M111.034 127.586H119.31M111.034 127.586V135.862M119.31 127.586H127.586M119.31 127.586V135.862M127.586 127.586V135.862M127.586 127.586H135.862M144.138 127.586H135.862M144.138 127.586V135.862M135.862 127.586V135.862M160.69 127.586H168.966V135.862M160.69 127.586V135.862H168.966M185.517 127.586H177.241M185.517 127.586V135.862M177.241 127.586V135.862M202.069 127.586H210.345M202.069 127.586V135.862M218.621 127.586H210.345M218.621 127.586V135.862M210.345 127.586V135.862M235.172 127.586H243.448M243.448 127.586H251.724V135.862M243.448 127.586V135.862M44.8276 135.862H36.5517M44.8276 135.862H53.1034M44.8276 135.862V144.138M36.5517 135.862H28.2759M36.5517 135.862V144.138M53.1034 135.862H61.3793M53.1034 135.862V144.138M61.3793 135.862H69.6552M61.3793 135.862V144.138M69.6552 135.862V144.138M69.6552 135.862H77.931M94.4828 135.862H86.2069M94.4828 135.862H102.759M94.4828 135.862V144.138M86.2069 135.862H77.931M86.2069 135.862V144.138M119.31 135.862H111.034M119.31 135.862H127.586M119.31 135.862V144.138M111.034 135.862H102.759M111.034 135.862V144.138H102.759M127.586 135.862H135.862M127.586 135.862V144.138M135.862 135.862H144.138M144.138 135.862H152.414V144.138M144.138 135.862V144.138M168.966 135.862H177.241M168.966 135.862V144.138H177.241M185.517 135.862H177.241M185.517 135.862V144.138M177.241 135.862V144.138M210.345 135.862H202.069M210.345 135.862H218.621M210.345 135.862V144.138M202.069 135.862V144.138H210.345M218.621 135.862V144.138H210.345M251.724 135.862H243.448M251.724 135.862V144.138M251.724 135.862H260V144.138M243.448 135.862V144.138M28.2759 135.862H20V144.138M28.2759 135.862V144.138M28.2759 144.138H20M28.2759 144.138H36.5517M28.2759 144.138V152.414M20 144.138V152.414M36.5517 144.138H44.8276M36.5517 144.138V152.414M44.8276 144.138H53.1034M44.8276 144.138V152.414M53.1034 144.138V152.414M69.6552 144.138H61.3793M69.6552 144.138H77.931M69.6552 144.138V152.414M61.3793 144.138V152.414H69.6552M77.931 135.862V144.138M77.931 144.138H86.2069M77.931 144.138V152.414M86.2069 144.138V152.414M102.759 135.862V144.138M102.759 144.138H94.4828M102.759 144.138V152.414M94.4828 144.138V152.414M127.586 144.138H119.31M127.586 144.138V152.414H119.31M119.31 144.138V152.414M152.414 144.138H144.138M152.414 144.138V152.414M152.414 144.138H160.69V152.414M144.138 144.138H135.862V152.414M144.138 144.138V152.414M177.241 144.138H185.517M177.241 144.138V152.414M185.517 144.138V152.414M185.517 144.138H193.793V152.414H185.517M235.172 144.138V135.862H226.897V144.138M235.172 144.138H226.897M235.172 144.138V152.414M226.897 144.138V152.414M251.724 144.138H243.448M251.724 144.138H260M251.724 144.138V152.414M243.448 144.138V152.414M260 144.138V152.414H251.724M28.2759 152.414H20M28.2759 152.414V160.69H20V152.414M44.8276 152.414H36.5517M44.8276 152.414H53.1034M44.8276 152.414V160.69M36.5517 152.414V160.69H44.8276M53.1034 152.414V160.69M69.6552 152.414H77.931M69.6552 152.414V160.69H77.931V152.414M86.2069 152.414H77.931M86.2069 152.414H94.4828M86.2069 152.414V160.69H94.4828M102.759 152.414H94.4828M102.759 152.414V160.69M102.759 152.414H111.034M94.4828 152.414V160.69M119.31 152.414H111.034M119.31 152.414V160.69H111.034M144.138 152.414H135.862M144.138 152.414H152.414M144.138 152.414V160.69M135.862 152.414V160.69M152.414 152.414H160.69M152.414 152.414V160.69M160.69 152.414V160.69M185.517 152.414H177.241M185.517 152.414V160.69M177.241 152.414H168.966V160.69H177.241M177.241 152.414V160.69M235.172 152.414H226.897M235.172 152.414V160.69H226.897V152.414M251.724 152.414H243.448M251.724 152.414V160.69M243.448 152.414V160.69M44.8276 160.69H53.1034M44.8276 160.69V168.966M53.1034 160.69V168.966M94.4828 160.69H102.759M94.4828 160.69V168.966M102.759 160.69H111.034M102.759 160.69V168.966H94.4828M111.034 152.414V160.69M144.138 160.69H135.862M144.138 160.69V168.966M135.862 160.69H127.586V168.966M135.862 160.69V168.966M160.69 160.69H152.414M160.69 160.69V168.966M152.414 160.69V168.966M177.241 160.69H185.517M177.241 160.69V168.966H185.517M185.517 160.69V168.966M251.724 160.69H243.448M251.724 160.69V168.966M243.448 160.69V168.966M53.1034 168.966H44.8276M53.1034 168.966V177.241M53.1034 168.966H61.3793M44.8276 168.966V177.241M94.4828 168.966H86.2069V177.241M94.4828 168.966V177.241M135.862 168.966H127.586M135.862 168.966H144.138M135.862 168.966V177.241H144.138V168.966M127.586 168.966H119.31M127.586 168.966V177.241H119.31M160.69 168.966H152.414M160.69 168.966V177.241M160.69 168.966H168.966V177.241M152.414 168.966V177.241M185.517 168.966H193.793M185.517 168.966V177.241M202.069 160.69H193.793V168.966M202.069 160.69V168.966M202.069 160.69H210.345V168.966M202.069 168.966H193.793M202.069 168.966H210.345M202.069 168.966V177.241M193.793 168.966V177.241M210.345 168.966V177.241M210.345 168.966H218.621M251.724 168.966H243.448M251.724 168.966V177.241M243.448 168.966H235.172M243.448 168.966V177.241M53.1034 177.241H44.8276M53.1034 177.241H61.3793M44.8276 177.241H36.5517V185.517M44.8276 177.241V185.517M61.3793 168.966V177.241M61.3793 168.966H69.6552M61.3793 177.241H69.6552M61.3793 177.241V185.517H69.6552M69.6552 168.966V177.241M69.6552 168.966H77.931V177.241H69.6552M69.6552 177.241V185.517M94.4828 177.241H86.2069M94.4828 177.241V185.517M86.2069 177.241V185.517M119.31 168.966H111.034V177.241M119.31 168.966V177.241M119.31 177.241H111.034M119.31 177.241V185.517H111.034M111.034 177.241V185.517M160.69 177.241H152.414M160.69 177.241H168.966M160.69 177.241V185.517M152.414 177.241V185.517M168.966 177.241V185.517M168.966 177.241H177.241V185.517M193.793 177.241H185.517M193.793 177.241V185.517M185.517 177.241V185.517M210.345 177.241H202.069M210.345 177.241H218.621M210.345 177.241V185.517M202.069 177.241V185.517M218.621 168.966V177.241M218.621 168.966H226.897M218.621 177.241H226.897M218.621 177.241V185.517M226.897 168.966V177.241M226.897 168.966H235.172M226.897 177.241H235.172M235.172 168.966V177.241M235.172 177.241H243.448M235.172 177.241V185.517M243.448 177.241H251.724M243.448 177.241V185.517M251.724 177.241V185.517M251.724 177.241H260V185.517H251.724M44.8276 185.517H36.5517M44.8276 185.517V193.793H36.5517M36.5517 185.517H28.2759V193.793H36.5517M36.5517 185.517V193.793M69.6552 185.517H77.931M69.6552 185.517V193.793H77.931M94.4828 185.517H86.2069M94.4828 185.517V193.793M86.2069 185.517H77.931M86.2069 185.517V193.793M111.034 185.517H102.759V193.793M111.034 185.517V193.793M160.69 185.517H152.414M160.69 185.517H168.966M152.414 185.517H144.138M152.414 185.517V193.793M168.966 185.517H177.241M177.241 185.517H185.517M177.241 185.517V193.793H185.517M193.793 185.517H185.517M193.793 185.517V193.793M193.793 185.517H202.069M185.517 185.517V193.793M210.345 185.517H202.069M210.345 185.517H218.621M210.345 185.517V193.793M202.069 185.517V193.793M218.621 185.517V193.793M218.621 185.517H226.897M243.448 185.517H235.172M243.448 185.517H251.724M243.448 185.517V193.793M235.172 185.517H226.897M235.172 185.517V193.793M251.724 185.517V193.793M77.931 185.517V193.793M77.931 193.793H86.2069M86.2069 193.793H94.4828M86.2069 193.793V202.069M94.4828 193.793V202.069M94.4828 193.793H102.759M111.034 193.793H102.759M111.034 193.793H119.31M111.034 193.793V202.069M102.759 193.793V202.069M135.862 185.517H127.586V193.793M135.862 185.517V193.793M135.862 185.517H144.138M135.862 193.793H127.586M135.862 193.793H144.138M135.862 193.793V202.069M127.586 193.793H119.31M127.586 193.793V202.069M144.138 185.517V193.793M144.138 193.793H152.414M144.138 193.793V202.069M152.414 193.793V202.069M152.414 193.793H160.69V202.069M185.517 193.793H193.793M185.517 193.793V202.069M193.793 193.793H202.069M193.793 193.793V202.069M202.069 193.793H210.345M210.345 193.793H218.621M218.621 193.793H226.897M218.621 193.793V202.069M226.897 185.517V193.793M226.897 193.793H235.172M226.897 193.793V202.069M235.172 193.793V202.069H226.897M251.724 193.793H243.448M251.724 193.793V202.069M251.724 193.793H260V202.069H251.724M243.448 193.793V202.069M94.4828 202.069H86.2069M94.4828 202.069H102.759M94.4828 202.069V210.345M86.2069 202.069V210.345H94.4828M102.759 202.069V210.345M102.759 202.069H111.034M119.31 193.793V202.069M119.31 202.069H111.034M119.31 202.069H127.586M111.034 202.069V210.345M127.586 202.069H135.862M127.586 202.069V210.345M135.862 202.069H144.138M135.862 202.069V210.345M144.138 202.069H152.414M144.138 202.069V210.345M152.414 202.069H160.69M152.414 202.069V210.345M160.69 202.069V210.345M193.793 202.069H185.517M193.793 202.069V210.345M185.517 202.069H177.241M185.517 202.069V210.345M226.897 202.069H218.621M226.897 202.069V210.345M218.621 202.069V210.345M251.724 202.069H243.448M251.724 202.069V210.345M243.448 202.069V210.345M28.2759 202.069H20V210.345M28.2759 202.069V210.345M28.2759 202.069H36.5517M28.2759 210.345H20M28.2759 210.345H36.5517M28.2759 210.345V218.621M20 210.345V218.621M36.5517 202.069V210.345M36.5517 202.069H44.8276M36.5517 210.345H44.8276M44.8276 202.069V210.345M44.8276 202.069H53.1034M44.8276 210.345H53.1034M53.1034 202.069V210.345M53.1034 202.069H61.3793M53.1034 210.345H61.3793M61.3793 202.069V210.345M61.3793 202.069H69.6552M61.3793 210.345H69.6552M69.6552 202.069V210.345M69.6552 202.069H77.931V210.345M69.6552 210.345H77.931M69.6552 210.345V218.621M77.931 210.345V218.621M94.4828 210.345H102.759M102.759 210.345H111.034M102.759 210.345V218.621M111.034 210.345V218.621M135.862 210.345H127.586M135.862 210.345V218.621M135.862 210.345H144.138M127.586 210.345H119.31V218.621M127.586 210.345V218.621M152.414 210.345H144.138M152.414 210.345H160.69M152.414 210.345V218.621H160.69V210.345M144.138 210.345V218.621H135.862M177.241 202.069H168.966V210.345H177.241M177.241 202.069V210.345M177.241 210.345H185.517M177.241 210.345V218.621H185.517M185.517 210.345H193.793M185.517 210.345V218.621M193.793 210.345V218.621M226.897 210.345H218.621M226.897 210.345V218.621M218.621 210.345V218.621M251.724 210.345H243.448M251.724 210.345V218.621M251.724 210.345H260V218.621H251.724M243.448 210.345V218.621M28.2759 218.621H20M28.2759 218.621V226.897M20 218.621V226.897M77.931 218.621H69.6552M77.931 218.621V226.897M69.6552 218.621V226.897M111.034 218.621H102.759M111.034 218.621V226.897H102.759V218.621M127.586 218.621H119.31M127.586 218.621H135.862M127.586 218.621V226.897M119.31 218.621V226.897H127.586M135.862 218.621V226.897M185.517 218.621H193.793M185.517 218.621V226.897H193.793M193.793 218.621V226.897M193.793 218.621H202.069M226.897 218.621H218.621M226.897 218.621V226.897M218.621 218.621H210.345M218.621 218.621V226.897M251.724 218.621H243.448M243.448 218.621H235.172V226.897M243.448 218.621V226.897H235.172M28.2759 226.897H20M28.2759 226.897V235.172M20 226.897V235.172M44.8276 218.621H36.5517V226.897M44.8276 218.621V226.897M44.8276 218.621H53.1034M44.8276 226.897H36.5517M44.8276 226.897H53.1034M44.8276 226.897V235.172M36.5517 226.897V235.172M53.1034 218.621V226.897M53.1034 218.621H61.3793V226.897M53.1034 226.897H61.3793M53.1034 226.897V235.172M61.3793 226.897V235.172M77.931 226.897H69.6552M77.931 226.897V235.172M69.6552 226.897V235.172M127.586 226.897H135.862M127.586 226.897V235.172M135.862 226.897V235.172M135.862 226.897H144.138V235.172M193.793 226.897H202.069M202.069 218.621V226.897M202.069 218.621H210.345M202.069 226.897H210.345M210.345 218.621V226.897M210.345 226.897H218.621M210.345 226.897V235.172M218.621 226.897H226.897M218.621 226.897V235.172M226.897 226.897V235.172M226.897 226.897H235.172M235.172 226.897V235.172M28.2759 235.172H20M28.2759 235.172V243.448M20 235.172V243.448M44.8276 235.172H36.5517M44.8276 235.172H53.1034M44.8276 235.172V243.448M36.5517 235.172V243.448H44.8276M53.1034 235.172H61.3793M53.1034 235.172V243.448M61.3793 235.172V243.448H53.1034M77.931 235.172H69.6552M77.931 235.172V243.448M69.6552 235.172V243.448M94.4828 235.172V226.897H86.2069V235.172M94.4828 235.172H86.2069M94.4828 235.172V243.448M86.2069 235.172V243.448H94.4828M135.862 235.172H127.586M135.862 235.172H144.138M135.862 235.172V243.448M127.586 235.172H119.31V243.448M127.586 235.172V243.448M144.138 235.172V243.448M144.138 235.172H152.414M218.621 235.172H210.345M218.621 235.172H226.897M218.621 235.172V243.448H210.345M210.345 235.172V243.448M226.897 235.172H235.172M226.897 235.172V243.448M235.172 235.172V243.448M235.172 235.172H243.448V243.448M28.2759 243.448H20M28.2759 243.448V251.724M20 243.448V251.724M44.8276 243.448H53.1034M77.931 243.448H69.6552M77.931 243.448V251.724M69.6552 243.448V251.724M94.4828 243.448H102.759V251.724M94.4828 243.448V251.724H102.759M127.586 243.448H119.31M127.586 243.448H135.862M127.586 243.448V251.724M119.31 243.448V251.724H127.586M135.862 243.448H144.138M135.862 243.448V251.724H127.586M144.138 243.448H152.414M144.138 243.448V251.724H152.414V243.448M152.414 235.172V243.448M152.414 235.172H160.69M152.414 243.448H160.69M160.69 235.172V243.448M160.69 235.172H168.966M160.69 243.448H168.966M168.966 235.172V243.448M168.966 235.172H177.241V243.448H168.966M210.345 243.448H202.069V251.724M210.345 243.448V251.724M235.172 243.448H226.897M235.172 243.448H243.448M235.172 243.448V251.724M226.897 243.448V251.724M243.448 243.448V251.724M243.448 243.448H251.724M251.724 243.448H260V235.172H251.724V243.448ZM251.724 243.448V251.724M28.2759 251.724H20M28.2759 251.724V260M28.2759 251.724H36.5517M20 251.724V260H28.2759M77.931 251.724H69.6552M77.931 251.724V260H69.6552M69.6552 251.724H61.3793M69.6552 251.724V260M102.759 251.724H111.034V260H102.759V251.724ZM210.345 251.724H202.069M210.345 251.724V260H202.069V251.724M235.172 251.724H226.897M235.172 251.724H243.448M235.172 251.724V260H243.448M226.897 251.724H218.621V260H226.897V251.724ZM243.448 251.724H251.724M243.448 251.724V260M251.724 251.724V260H243.448M28.2759 260H36.5517M36.5517 251.724V260M36.5517 251.724H44.8276M36.5517 260H44.8276M44.8276 251.724V260M44.8276 251.724H53.1034M44.8276 260H53.1034M53.1034 251.724V260M53.1034 251.724H61.3793M53.1034 260H61.3793M61.3793 251.724V260M61.3793 260H69.6552M177.241 251.724H168.966V260H177.241M177.241 251.724V260M177.241 251.724H185.517V260H177.241M20 168.966H28.2759V177.241H20V168.966ZM202.069 202.069H210.345V210.345H202.069V202.069ZM185.517 235.172H193.793V243.448H185.517V235.172Z" stroke="black" stroke-width="0.5"/>
</svg>
