<svg width="44" height="44" viewBox="0 0 44 44" fill="none" xmlns="http://www.w3.org/2000/svg">
<rect x="1" y="1" width="42" height="42" rx="13" stroke="#18181B" stroke-opacity="0.12" stroke-width="2"/>
<path fill-rule="evenodd" clip-rule="evenodd" d="M14 13C14.5523 13 15 13.4477 15 14V16.343C16.6494 14.3045 19.1717 13 22 13C26.5903 13 30.3767 16.4356 30.9304 20.8763C30.9988 21.4243 30.6099 21.924 30.0618 21.9923C29.5138 22.0607 29.0141 21.6718 28.9458 21.1237C28.5153 17.6717 25.5689 15 22 15C19.6223 15 17.52 16.1857 16.2544 18H19C19.5523 18 20 18.4477 20 19C20 19.5523 19.5523 20 19 20H14C13.4477 20 13 19.5523 13 19V14C13 13.4477 13.4477 13 14 13ZM13.9382 22.0077C14.4862 21.9393 14.9859 22.3282 15.0542 22.8763C15.4847 26.3283 18.4311 29 22 29C24.3777 29 26.48 27.8143 27.7456 26H25C24.4477 26 24 25.5523 24 25C24 24.4477 24.4477 24 25 24H30C30.5523 24 31 24.4477 31 25V30C31 30.5523 30.5523 31 30 31C29.4477 31 29 30.5523 29 30V27.657C27.3506 29.6955 24.8283 31 22 31C17.4097 31 13.6233 27.5644 13.0696 23.1237C13.0012 22.5757 13.3901 22.076 13.9382 22.0077Z" fill="#18181B"/>
</svg>
